<svg width="45" height="54" viewBox="0 0 45 54" fill="none" xmlns="http://www.w3.org/2000/svg">
<path d="M0.185547 53H13.2355C21.4855 53 25.5356 48.425 25.5356 40.025V13.475C25.5356 5.075 21.4855 0.5 13.2355 0.5H0.185547V53ZM13.0856 8C15.7106 8 17.2856 9.35001 17.2856 13.1V40.4C17.2856 44.15 15.7106 45.5 13.0856 45.5H8.43555V8H13.0856Z" fill="#F3F3F3"/>
<path d="M28.6751 53C30.0251 53.15 31.1501 53.15 32.6501 53.15C38.8751 53.15 44.5001 50.45 44.5001 39.95V0.5H36.2501V40.55C36.2501 44.6 34.1501 45.575 31.5251 45.575C30.6251 45.575 29.5751 45.575 28.6751 45.5V53Z" fill="#F3F3F3"/>
</svg>
