<svg width="190" height="63" viewBox="0 0 190 63" fill="none" xmlns="http://www.w3.org/2000/svg">
<g filter="url(#filter0_d_151_72)">
<path d="M5.512 27.9199H8.6962C10.7092 27.9199 11.6974 26.8036 11.6974 24.754V18.2758C11.6974 16.2262 10.7092 15.1099 8.6962 15.1099H5.512V27.9199ZM8.6596 16.9399C9.3001 16.9399 9.6844 17.2693 9.6844 18.1843V24.8455C9.6844 25.7605 9.3001 26.0899 8.6596 26.0899H7.525V16.9399H8.6596ZM16.3554 18.0562C16.3554 17.1412 16.758 16.7935 17.3985 16.7935C18.039 16.7935 18.4416 17.1412 18.4416 18.0562V24.9736C18.4416 25.8886 18.039 26.2363 17.3985 26.2363C16.758 26.2363 16.3554 25.8886 16.3554 24.9736V18.0562ZM14.3424 24.8455C14.3424 26.8951 15.4221 28.0663 17.3985 28.0663C19.3749 28.0663 20.4546 26.8951 20.4546 24.8455V18.1843C20.4546 16.1347 19.3749 14.9635 17.3985 14.9635C15.4221 14.9635 14.3424 16.1347 14.3424 18.1843V24.8455ZM28.485 27.9199H31.1568L32.5842 15.1099H30.8274L29.7843 25.2847L28.7778 15.1099H26.838L25.8681 25.2115L24.7884 15.1099H22.8303L24.2577 27.9199H27.021L27.753 21.094L28.485 27.9199ZM39.4249 27.9199H41.4928V15.1099H39.6994V22.7776L37.6315 15.1099H35.1061V27.9199H36.9178V18.6418L39.4249 27.9199ZM44.4591 27.9199H49.7844V26.0899H46.4721V15.1099H44.4591V27.9199ZM54.0336 18.0562C54.0336 17.1412 54.4362 16.7935 55.0767 16.7935C55.7172 16.7935 56.1198 17.1412 56.1198 18.0562V24.9736C56.1198 25.8886 55.7172 26.2363 55.0767 26.2363C54.4362 26.2363 54.0336 25.8886 54.0336 24.9736V18.0562ZM52.0206 24.8455C52.0206 26.8951 53.1003 28.0663 55.0767 28.0663C57.0531 28.0663 58.1328 26.8951 58.1328 24.8455V18.1843C58.1328 16.1347 57.0531 14.9635 55.0767 14.9635C53.1003 14.9635 52.0206 16.1347 52.0206 18.1843V24.8455ZM65.4133 15.1099H62.467L60.4174 27.9199H62.2657L62.6134 25.5958H65.0839L65.4316 27.9199H67.4629L65.4133 15.1099ZM63.8395 17.3791L64.8094 23.8573H62.8696L63.8395 17.3791ZM69.9254 27.9199H73.1096C75.1226 27.9199 76.1108 26.8036 76.1108 24.754V18.2758C76.1108 16.2262 75.1226 15.1099 73.1096 15.1099H69.9254V27.9199ZM73.073 16.9399C73.7135 16.9399 74.0978 17.2693 74.0978 18.1843V24.8455C74.0978 25.7605 73.7135 26.0899 73.073 26.0899H71.9384V16.9399H73.073ZM89.5456 27.9199C89.3443 27.4441 89.326 26.9866 89.326 26.3644V24.388C89.326 23.0521 88.9966 22.0822 87.9901 21.6613C88.8868 21.2404 89.3077 20.3803 89.3077 19.0627V18.0562C89.3077 16.0798 88.411 15.1099 86.3248 15.1099H83.287V27.9199H85.3V22.7044H85.9954C86.9104 22.7044 87.313 23.1436 87.313 24.3331V26.3461C87.313 27.3892 87.3862 27.5905 87.496 27.9199H89.5456ZM86.2699 16.9399C86.9836 16.9399 87.2947 17.3425 87.2947 18.2575V19.5202C87.2947 20.545 86.8372 20.8744 86.0869 20.8744H85.3V16.9399H86.2699ZM94.1879 16.9399H97.6649V15.1099H92.1749V27.9199H97.6649V26.0899H94.1879V22.3384H96.9512V20.5084H94.1879V16.9399ZM100.181 18.1843C100.181 21.8443 104.116 22.3384 104.116 24.9736C104.116 25.8886 103.713 26.218 103.072 26.218C102.432 26.218 102.029 25.8886 102.029 24.9736V24.0586H100.126V24.8455C100.126 26.8951 101.151 28.0663 103.127 28.0663C105.104 28.0663 106.129 26.8951 106.129 24.8455C106.129 21.1855 102.194 20.6914 102.194 18.0562C102.194 17.1412 102.56 16.7935 103.201 16.7935C103.841 16.7935 104.207 17.1412 104.207 18.0562V18.5869H106.11V18.1843C106.11 16.1347 105.104 14.9635 103.146 14.9635C101.188 14.9635 100.181 16.1347 100.181 18.1843ZM108.715 15.1099V24.8638C108.715 26.9134 109.74 28.0846 111.717 28.0846C113.693 28.0846 114.718 26.9134 114.718 24.8638V15.1099H112.815V24.9919C112.815 25.9069 112.412 26.2363 111.772 26.2363C111.131 26.2363 110.728 25.9069 110.728 24.9919V15.1099H108.715ZM120.405 15.1099H117.605V27.9199H119.362V18.8614L120.862 27.9199H122.766L124.156 18.7333V27.9199H126.06V15.1099H123.26L121.887 24.205L120.405 15.1099ZM131.062 16.9399H134.539V15.1099H129.049V27.9199H134.539V26.0899H131.062V22.3384H133.825V20.5084H131.062V16.9399Z" fill="#FCC439"/>
<path d="M120.01 34.826H122.184C122.918 34.826 123.468 35.0228 123.835 35.4165C124.202 35.8101 124.385 36.3872 124.385 37.1476V38.0736C124.385 38.8341 124.202 39.4111 123.835 39.8048C123.468 40.1984 122.918 40.3953 122.184 40.3953H121.486V44.22H120.01V34.826ZM122.184 39.0533C122.426 39.0533 122.605 38.9862 122.721 38.852C122.846 38.7178 122.909 38.4896 122.909 38.1676V37.0537C122.909 36.7316 122.846 36.5035 122.721 36.3693C122.605 36.2351 122.426 36.168 122.184 36.168H121.486V39.0533H122.184ZM125.309 34.826H127.563C128.297 34.826 128.847 35.0228 129.214 35.4165C129.581 35.8101 129.764 36.3872 129.764 37.1476V41.8983C129.764 42.6588 129.581 43.2358 129.214 43.6295C128.847 44.0231 128.297 44.22 127.563 44.22H125.309V34.826ZM127.537 42.878C127.778 42.878 127.962 42.8064 128.087 42.6633C128.221 42.5201 128.288 42.2875 128.288 41.9654V37.0805C128.288 36.7585 128.221 36.5258 128.087 36.3827C127.962 36.2395 127.778 36.168 127.537 36.168H126.785V42.878H127.537ZM130.883 34.826H134.788V36.168H132.359V38.7849H134.265V40.1269H132.359V44.22H130.883V34.826Z" fill="#DFD8D8"/>
<path fill-rule="evenodd" clip-rule="evenodd" d="M162.16 54.1801C174.962 54.1801 185.34 43.802 185.34 31.0001C185.34 18.1981 174.962 7.82007 162.16 7.82007C149.358 7.82007 138.98 18.1981 138.98 31.0001C138.98 43.802 149.358 54.1801 162.16 54.1801ZM163.295 43.115L173.509 32.9007C174.136 32.2739 174.136 31.2577 173.509 30.6309C172.882 30.0041 171.866 30.0041 171.239 30.6309L163.765 38.1052V17.5801C163.765 16.6937 163.046 15.9751 162.16 15.9751C161.274 15.9751 160.555 16.6937 160.555 17.5801V38.1052L153.081 30.6309C152.454 30.0041 151.438 30.0041 150.811 30.6309C150.184 31.2577 150.184 32.2739 150.811 32.9007L161.025 43.115C161.652 43.7418 162.668 43.7418 163.295 43.115Z" fill="#FCC439"/>
</g>
<defs>
<filter id="filter0_d_151_72" x="-2.88" y="0.5" width="195.88" height="69" filterUnits="userSpaceOnUse" color-interpolation-filters="sRGB">
<feFlood flood-opacity="0" result="BackgroundImageFix"/>
<feColorMatrix in="SourceAlpha" type="matrix" values="0 0 0 0 0 0 0 0 0 0 0 0 0 0 0 0 0 0 127 0" result="hardAlpha"/>
<feOffset dy="4"/>
<feGaussianBlur stdDeviation="2"/>
<feComposite in2="hardAlpha" operator="out"/>
<feColorMatrix type="matrix" values="0 0 0 0 0 0 0 0 0 0 0 0 0 0 0 0 0 0 0.25 0"/>
<feBlend mode="normal" in2="BackgroundImageFix" result="effect1_dropShadow_151_72"/>
<feBlend mode="normal" in="SourceGraphic" in2="effect1_dropShadow_151_72" result="shape"/>
</filter>
</defs>
</svg>
