<svg width="374" height="174" viewBox="0 0 374 174" fill="none" xmlns="http://www.w3.org/2000/svg">
<g filter="url(#filter0_d_91_33)">
<path d="M4.04523 16.4352H20.6208C26.0144 16.4352 30.0597 17.8822 32.7565 20.7764C35.4533 23.6705 36.8017 27.9131 36.8017 33.504V68.4311C36.8017 74.0221 35.4533 78.2646 32.7565 81.1588C30.0597 84.0529 26.0144 85.5 20.6208 85.5H4.04523V16.4352ZM20.4235 75.6336C22.1994 75.6336 23.5478 75.1074 24.4687 74.055C25.4553 73.0026 25.9486 71.2924 25.9486 68.9244V33.0107C25.9486 30.6428 25.4553 28.9326 24.4687 27.8802C23.5478 26.8278 22.1994 26.3016 20.4235 26.3016H14.8983V75.6336H20.4235ZM42.1002 16.4352H71.6994V26.3016H52.9532V44.5544H67.8515V54.4208H52.9532V75.6336H71.6994V85.5H42.1002V16.4352ZM73.0544 16.4352H84.0061L91.1099 70.0097H91.3072L98.411 16.4352H108.376L97.9177 85.5H83.5128L73.0544 16.4352ZM111.562 16.4352H141.161V26.3016H122.415V44.5544H137.313V54.4208H122.415V75.6336H141.161V85.5H111.562V16.4352ZM145.377 16.4352H156.23V75.6336H174.088V85.5H145.377V16.4352ZM192.568 86.4866C187.24 86.4866 183.162 84.9738 180.333 81.9481C177.505 78.9224 176.091 74.647 176.091 69.1218V32.8134C176.091 27.2882 177.505 23.0128 180.333 19.9871C183.162 16.9614 187.24 15.4485 192.568 15.4485C197.896 15.4485 201.974 16.9614 204.802 19.9871C207.631 23.0128 209.045 27.2882 209.045 32.8134V69.1218C209.045 74.647 207.631 78.9224 204.802 81.9481C201.974 84.9738 197.896 86.4866 192.568 86.4866ZM192.568 76.6202C196.317 76.6202 198.192 74.351 198.192 69.8124V32.1227C198.192 27.5842 196.317 25.3149 192.568 25.3149C188.819 25.3149 186.944 27.5842 186.944 32.1227V69.8124C186.944 74.351 188.819 76.6202 192.568 76.6202ZM214.357 16.4352H230.341C235.734 16.4352 239.779 17.8822 242.476 20.7764C245.173 23.6705 246.522 27.9131 246.522 33.504V40.3119C246.522 45.9028 245.173 50.1454 242.476 53.0395C239.779 55.9337 235.734 57.3807 230.341 57.3807H225.21V85.5H214.357V16.4352ZM230.341 47.5143C232.117 47.5143 233.432 47.021 234.287 46.0344C235.208 45.0477 235.668 43.3704 235.668 41.0025V32.8134C235.668 30.4454 235.208 28.7682 234.287 27.7815C233.432 26.7949 232.117 26.3016 230.341 26.3016H225.21V47.5143H230.341ZM250.389 16.4352H279.988V26.3016H261.242V44.5544H276.14V54.4208H261.242V75.6336H279.988V85.5H250.389V16.4352ZM284.204 16.4352H300.286C305.877 16.4352 309.955 17.7507 312.521 20.3817C315.086 22.947 316.369 26.9264 316.369 32.3201V36.5626C316.369 43.7322 314.001 48.2708 309.265 50.1783V50.3756C311.896 51.1649 313.738 52.7764 314.79 55.2101C315.908 57.6438 316.467 60.8998 316.467 64.9779V77.1136C316.467 79.0868 316.533 80.6983 316.665 81.9481C316.796 83.1321 317.125 84.316 317.651 85.5H306.601C306.206 84.3818 305.943 83.3294 305.812 82.3427C305.68 81.3561 305.614 79.5802 305.614 77.0149V64.3859C305.614 61.2286 305.088 59.0251 304.036 57.7754C303.049 56.5257 301.306 55.9008 298.806 55.9008H295.057V85.5H284.204V16.4352ZM299.004 46.0344C301.174 46.0344 302.786 45.4753 303.838 44.3571C304.956 43.2389 305.516 41.3643 305.516 38.7332V33.4054C305.516 30.9059 305.055 29.097 304.134 27.9789C303.279 26.8607 301.898 26.3016 299.99 26.3016H295.057V46.0344H299.004Z" fill="#44F4FF"/>
<path d="M335.683 86.14C333.123 86.14 331.182 85.2653 329.859 83.516C328.536 81.7667 327.875 79.228 327.875 75.9V71.228C327.875 68.8813 328.28 66.9187 329.091 65.34C329.902 63.7613 331.224 62.6093 333.059 61.884V61.756C331.395 61.0733 330.158 59.9853 329.347 58.492C328.579 56.956 328.195 54.9933 328.195 52.604V51.772C328.195 48.1453 329.07 45.3933 330.819 43.516C332.568 41.6387 335.192 40.7 338.691 40.7H346.755V47.1H338.819C337.667 47.1 336.771 47.4413 336.131 48.124C335.534 48.8067 335.235 49.916 335.235 51.452V54.204C335.235 55.9107 335.576 57.1267 336.259 57.852C336.984 58.5773 338.051 58.94 339.459 58.94H342.211V53.948H349.123V58.94H351.107V65.34H349.123V80.06C349.123 81.34 349.166 82.3853 349.251 83.196C349.336 83.964 349.55 84.732 349.891 85.5H342.851C342.51 84.5613 342.296 83.388 342.211 81.98H342.083C341.315 83.388 340.419 84.4333 339.395 85.116C338.414 85.7987 337.176 86.14 335.683 86.14ZM338.307 79.74C340.526 79.74 341.827 78.396 342.211 75.708V65.34H339.523C337.902 65.34 336.728 65.788 336.003 66.684C335.278 67.5373 334.915 68.988 334.915 71.036V75.58C334.915 77.0733 335.214 78.14 335.811 78.78C336.408 79.42 337.24 79.74 338.307 79.74Z" fill="white"/>
<path d="M4.04523 94.4352H20.6208C26.0144 94.4352 30.0597 95.8822 32.7565 98.7764C35.4533 101.671 36.8017 105.913 36.8017 111.504V146.431C36.8017 152.022 35.4533 156.265 32.7565 159.159C30.0597 162.053 26.0144 163.5 20.6208 163.5H4.04523V94.4352ZM20.4235 153.634C22.1994 153.634 23.5478 153.107 24.4687 152.055C25.4553 151.003 25.9486 149.292 25.9486 146.924V111.011C25.9486 108.643 25.4553 106.933 24.4687 105.88C23.5478 104.828 22.1994 104.302 20.4235 104.302H14.8983V153.634H20.4235ZM42.1002 94.4352H71.6994V104.302H52.9532V122.554H67.8515V132.421H52.9532V153.634H71.6994V163.5H42.1002V94.4352ZM90.2173 164.487C84.9552 164.487 80.9757 163.007 78.2789 160.047C75.5821 157.021 74.2337 152.713 74.2337 147.122V143.175H84.4948V147.911C84.4948 152.384 86.3694 154.62 90.1186 154.62C91.9603 154.62 93.3416 154.094 94.2625 153.042C95.2492 151.923 95.7425 150.147 95.7425 147.714C95.7425 144.82 95.0847 142.287 93.7692 140.117C92.4537 137.88 90.02 135.216 86.468 132.125C81.9953 128.178 78.8709 124.626 77.095 121.469C75.319 118.246 74.431 114.628 74.431 110.616C74.431 105.157 75.8123 100.947 78.5749 97.9871C81.3375 94.9614 85.3499 93.4485 90.6119 93.4485C95.8082 93.4485 99.7219 94.9614 102.353 97.9871C105.05 100.947 106.398 105.222 106.398 110.813V113.675H96.1371V110.123C96.1371 107.755 95.6767 106.045 94.7558 104.992C93.835 103.874 92.4866 103.315 90.7106 103.315C87.0929 103.315 85.2841 105.518 85.2841 109.925C85.2841 112.425 85.9418 114.76 87.2574 116.931C88.6387 119.101 91.1053 121.732 94.6572 124.824C99.1957 128.77 102.32 132.355 104.03 135.578C105.74 138.801 106.596 142.583 106.596 146.924C106.596 152.581 105.181 156.922 102.353 159.948C99.5904 162.974 95.5451 164.487 90.2173 164.487ZM110.791 94.4352H121.644V163.5H110.791V94.4352ZM143.136 164.487C137.874 164.487 133.862 163.007 131.099 160.047C128.337 157.021 126.956 152.713 126.956 147.122V110.813C126.956 105.222 128.337 100.947 131.099 97.9871C133.862 94.9614 137.874 93.4485 143.136 93.4485C148.399 93.4485 152.411 94.9614 155.173 97.9871C157.936 100.947 159.317 105.222 159.317 110.813V116.733H149.056V110.123C149.056 105.584 147.182 103.315 143.432 103.315C139.683 103.315 137.809 105.584 137.809 110.123V147.911C137.809 152.384 139.683 154.62 143.432 154.62C147.182 154.62 149.056 152.384 149.056 147.911V134.394H143.63V124.528H159.317V147.122C159.317 152.713 157.936 157.021 155.173 160.047C152.411 163.007 148.399 164.487 143.136 164.487ZM164.258 94.4352H177.874L188.431 135.775H188.628V94.4352H198.297V163.5H187.148L174.125 113.083H173.927V163.5H164.258V94.4352ZM204.336 94.4352H233.936V104.302H215.19V122.554H230.088V132.421H215.19V153.634H233.936V163.5H204.336V94.4352ZM238.152 94.4352H254.234C259.825 94.4352 263.903 95.7507 266.469 98.3817C269.034 100.947 270.316 104.926 270.316 110.32V114.563C270.316 121.732 267.948 126.271 263.213 128.178V128.376C265.844 129.165 267.685 130.776 268.738 133.21C269.856 135.644 270.415 138.9 270.415 142.978V155.114C270.415 157.087 270.481 158.698 270.612 159.948C270.744 161.132 271.073 162.316 271.599 163.5H260.549C260.154 162.382 259.891 161.329 259.759 160.343C259.628 159.356 259.562 157.58 259.562 155.015V142.386C259.562 139.229 259.036 137.025 257.983 135.775C256.997 134.526 255.254 133.901 252.754 133.901H249.005V163.5H238.152V94.4352ZM252.952 124.034C255.122 124.034 256.734 123.475 257.786 122.357C258.904 121.239 259.463 119.364 259.463 116.733V111.405C259.463 108.906 259.003 107.097 258.082 105.979C257.227 104.861 255.846 104.302 253.938 104.302H249.005V124.034H252.952Z" fill="#FFDE8B"/>
<path d="M5.0853 11V1.67827H6.00707V5.90055H10.2145V1.67827H11.1511V11H10.2145V6.62905H6.00707V11H5.0853ZM15.0623 11V10.2715H16.4598V2.40677H15.0623V1.67827H18.7345V2.40677H17.3964V10.2715H18.7642V11H15.0623ZM22.7309 12.6057C23.1274 12.0011 23.3355 11.4658 23.3553 11H22.6715V9.46868H24.069V10.7175C24.069 11.1536 23.9847 11.5451 23.8162 11.892C23.6576 12.2389 23.4099 12.6057 23.0729 12.9922L22.7309 12.6057ZM34.9081 11V10.2715H36.3056V2.40677H34.9081V1.67827H38.5803V2.40677H37.2422V10.2715H38.61V11H34.9081ZM42.2942 3.78941C42.3339 3.57136 42.4082 3.12535 42.5173 2.45137C42.6362 1.76748 42.7254 1.21243 42.7849 0.786242L43.7364 0.964648C43.6769 1.20252 43.6372 1.37597 43.6174 1.485C43.4787 2.04995 43.3597 2.49101 43.2606 2.80818C43.1615 3.12535 43.0029 3.50198 42.7849 3.93809L42.2942 3.78941ZM47.5769 11L48.3054 1.67827H49.3312L51.5316 6.77772L53.6576 1.67827H54.6834L55.4714 11H54.624L53.9252 3.01632L51.9479 7.81842H51.1153L49.0636 3.00145L48.4392 11H47.5769ZM66.5009 1.67827H68.4782C69.5685 1.67827 70.406 1.83686 70.9908 2.15402C71.5756 2.46128 71.977 2.94694 72.195 3.61101C72.423 4.27508 72.537 5.19684 72.537 6.3763C72.537 7.46656 72.4378 8.33877 72.2396 8.99293C72.0414 9.63717 71.6548 10.1327 71.08 10.4796C70.5051 10.8265 69.6626 11 68.5526 11H66.5009V1.67827ZM68.5526 10.2715C69.4644 10.2715 70.1384 10.1377 70.5745 9.87009C71.0106 9.60248 71.2931 9.20603 71.4219 8.68072C71.5508 8.1455 71.6152 7.37736 71.6152 6.3763C71.6152 5.34551 71.5359 4.55755 71.3773 4.01242C71.2287 3.45738 70.9313 3.05101 70.4853 2.79331C70.0393 2.53561 69.3703 2.40677 68.4782 2.40677H67.4227V10.2715H68.5526ZM79.3532 11.1189C78.4512 11.1189 77.7822 10.9405 77.3461 10.5837C76.9199 10.2269 76.6424 9.73133 76.5135 9.097C76.3946 8.45276 76.3351 7.55081 76.3351 6.39117V1.67827H77.2569V7.07506C77.2569 7.86798 77.2965 8.48249 77.3758 8.91859C77.4551 9.3547 77.6434 9.69664 77.9408 9.94443C78.248 10.1823 78.7188 10.3012 79.3532 10.3012C79.9875 10.3012 80.4533 10.1823 80.7507 9.94443C81.048 9.69664 81.2363 9.3547 81.3156 8.91859C81.3949 8.48249 81.4346 7.86798 81.4346 7.07506V1.67827H82.3712V6.39117C82.3712 7.5409 82.3068 8.43789 82.1779 9.08213C82.059 9.72638 81.7815 10.2269 81.3454 10.5837C80.9093 10.9405 80.2452 11.1189 79.3532 11.1189ZM88.7151 11.0743C87.6249 11.0743 86.7378 10.886 86.0539 10.5094L86.2621 9.75116C86.6585 9.91965 87.0352 10.0535 87.392 10.1526C87.7587 10.2517 88.1997 10.3012 88.7151 10.3012C89.3396 10.3012 89.8252 10.1476 90.1721 9.84036C90.5289 9.5331 90.7073 9.06231 90.7073 8.42798C90.7073 8.06125 90.6429 7.77382 90.5141 7.56568C90.3852 7.34763 90.2019 7.17418 89.964 7.04533C89.7261 6.91648 89.3792 6.77772 88.9233 6.62905L88.0313 6.3317C87.3771 6.10374 86.8815 5.81135 86.5445 5.45454C86.2175 5.08781 86.0539 4.59224 86.0539 3.96782C86.0539 3.13526 86.3166 2.5257 86.8419 2.13916C87.3672 1.75261 88.056 1.55934 88.9084 1.55934C89.8599 1.55934 90.6925 1.70801 91.4061 2.00535L91.2426 2.74871C90.8957 2.61986 90.5438 2.52075 90.187 2.45137C89.8401 2.37208 89.4535 2.33243 89.0274 2.33243C87.6695 2.33243 86.9906 2.86765 86.9906 3.93809C86.9906 4.34446 87.0798 4.65667 87.2582 4.87472C87.4366 5.08286 87.7934 5.28109 88.3286 5.46941L89.1463 5.76675C89.7608 5.9848 90.2118 6.16816 90.4992 6.31684C90.7966 6.46551 91.0592 6.70834 91.2872 7.04533C91.5151 7.38232 91.6291 7.84816 91.6291 8.44284C91.6291 9.28532 91.3665 9.93452 90.8412 10.3904C90.3158 10.8464 89.6072 11.0743 88.7151 11.0743ZM96.9408 11V2.40677H94.4431V1.67827H100.405V2.40677H97.8775V11H96.9408ZM103.481 11V10.2715H104.879V2.40677H103.481V1.67827H107.154V2.40677H105.816V10.2715H107.183V11H103.481ZM111.091 11V1.67827H112.072L116.74 9.40921V1.67827H117.588V11H116.666L111.968 3.15013V11H111.091ZM121.756 11V9.52815H122.916V11H121.756ZM133.732 11V10.2715H135.129V2.40677H133.732V1.67827H137.404V2.40677H136.066V10.2715H137.434V11H133.732ZM141.118 3.78941C141.158 3.57136 141.232 3.12535 141.341 2.45137C141.46 1.76748 141.549 1.21243 141.609 0.786242L142.56 0.964648C142.501 1.20252 142.461 1.37597 142.441 1.485C142.302 2.04995 142.183 2.49101 142.084 2.80818C141.985 3.12535 141.827 3.50198 141.609 3.93809L141.118 3.78941ZM146.401 11L147.129 1.67827H148.155L150.355 6.77772L152.481 1.67827H153.507L154.295 11H153.448L152.749 3.01632L150.772 7.81842H149.939L147.887 3.00145L147.263 11H146.401ZM164.626 11L167.54 1.67827H168.923L171.688 11H170.751L170.052 8.62125H166.365L165.637 11H164.626ZM166.588 7.95223H169.815L168.239 2.4811L166.588 7.95223ZM185.383 11.0743C184.709 11.0743 184.109 10.9058 183.584 10.5689C183.068 10.222 182.657 9.69664 182.35 8.99293C182.052 8.28922 181.904 7.4071 181.904 6.34657C181.904 4.65171 182.176 3.4326 182.721 2.68924C183.277 1.93597 184.134 1.55934 185.294 1.55934C186.057 1.55934 186.81 1.73774 187.553 2.09455V3.86375H186.75V2.60004C186.344 2.42163 185.888 2.33243 185.383 2.33243C184.798 2.33243 184.322 2.44641 183.955 2.67437C183.589 2.89243 183.306 3.29384 183.108 3.87862C182.92 4.46339 182.826 5.291 182.826 6.36144C182.826 7.69948 183.063 8.69063 183.539 9.33487C184.015 9.97912 184.649 10.3012 185.442 10.3012C186.116 10.3012 186.785 10.1427 187.449 9.82549L187.747 10.5391C186.993 10.8959 186.205 11.0743 185.383 11.0743ZM194.355 11.1189C193.453 11.1189 192.784 10.9405 192.348 10.5837C191.922 10.2269 191.644 9.73133 191.515 9.097C191.396 8.45276 191.337 7.55081 191.337 6.39117V1.67827H192.259V7.07506C192.259 7.86798 192.298 8.48249 192.377 8.91859C192.457 9.3547 192.645 9.69664 192.942 9.94443C193.25 10.1823 193.72 10.3012 194.355 10.3012C194.989 10.3012 195.455 10.1823 195.752 9.94443C196.05 9.69664 196.238 9.3547 196.317 8.91859C196.397 8.48249 196.436 7.86798 196.436 7.07506V1.67827H197.373V6.39117C197.373 7.5409 197.308 8.43789 197.18 9.08213C197.061 9.72638 196.783 10.2269 196.347 10.5837C195.911 10.9405 195.247 11.1189 194.355 11.1189ZM206.616 11.1784C206.229 10.554 205.813 9.83045 205.367 9.0078C204.921 8.18515 204.564 7.46161 204.297 6.83719C203.94 6.86692 203.543 6.88179 203.107 6.88179H202.304V11H201.383V1.67827H203.211C204.123 1.67827 204.837 1.7427 205.352 1.87155C205.877 2.0004 206.274 2.25314 206.542 2.62977C206.819 3.00641 206.958 3.56641 206.958 4.30977C206.958 5.01348 206.809 5.55365 206.512 5.93029C206.224 6.30692 205.773 6.56462 205.159 6.70338L207.374 10.6878L206.616 11.1784ZM202.944 6.1979C203.776 6.1979 204.406 6.1533 204.832 6.06409C205.258 5.97489 205.56 5.80144 205.739 5.54374C205.927 5.27613 206.021 4.86976 206.021 4.32463C206.021 3.74977 205.917 3.32853 205.709 3.06092C205.511 2.7834 205.218 2.60499 204.832 2.5257C204.445 2.44641 203.89 2.40677 203.167 2.40677H202.304V6.1979H202.944ZM210.764 11V10.2715H212.162V2.40677H210.764V1.67827H214.437V2.40677H213.098V10.2715H214.466V11H210.764ZM221.377 11.0743C220.524 11.0743 219.86 10.891 219.384 10.5242C218.919 10.1575 218.592 9.63222 218.403 8.94833C218.225 8.25453 218.136 7.37241 218.136 6.30197C218.136 5.24144 218.23 4.36923 218.418 3.68534C218.616 2.99154 218.953 2.46623 219.429 2.10942C219.905 1.7427 220.554 1.55934 221.377 1.55934C222.199 1.55934 222.849 1.7427 223.324 2.10942C223.8 2.46623 224.137 2.99154 224.335 3.68534C224.533 4.36923 224.633 5.24144 224.633 6.30197C224.633 7.38232 224.538 8.26444 224.35 8.94833C224.172 9.63222 223.845 10.1575 223.369 10.5242C222.893 10.891 222.229 11.0743 221.377 11.0743ZM221.377 10.3012C221.981 10.3012 222.452 10.1625 222.789 9.88496C223.126 9.60744 223.364 9.1862 223.503 8.62125C223.641 8.04639 223.711 7.27825 223.711 6.31684C223.711 5.35542 223.636 4.58729 223.488 4.01242C223.349 3.43756 223.111 3.01632 222.774 2.74871C222.437 2.47119 221.971 2.33243 221.377 2.33243C220.782 2.33243 220.316 2.47119 219.979 2.74871C219.652 3.01632 219.414 3.43756 219.266 4.01242C219.127 4.58729 219.057 5.35542 219.057 6.31684C219.057 7.27825 219.127 8.04639 219.266 8.62125C219.404 9.1862 219.642 9.60744 219.979 9.88496C220.316 10.1625 220.782 10.3012 221.377 10.3012ZM231.429 11.1189C230.527 11.1189 229.858 10.9405 229.422 10.5837C228.996 10.2269 228.718 9.73133 228.589 9.097C228.47 8.45276 228.411 7.55081 228.411 6.39117V1.67827H229.333V7.07506C229.333 7.86798 229.372 8.48249 229.452 8.91859C229.531 9.3547 229.719 9.69664 230.017 9.94443C230.324 10.1823 230.795 10.3012 231.429 10.3012C232.063 10.3012 232.529 10.1823 232.827 9.94443C233.124 9.69664 233.312 9.3547 233.391 8.91859C233.471 8.48249 233.51 7.86798 233.51 7.07506V1.67827H234.447V6.39117C234.447 7.5409 234.383 8.43789 234.254 9.08213C234.135 9.72638 233.857 10.2269 233.421 10.5837C232.985 10.9405 232.321 11.1189 231.429 11.1189ZM240.791 11.0743C239.701 11.0743 238.814 10.886 238.13 10.5094L238.338 9.75116C238.734 9.91965 239.111 10.0535 239.468 10.1526C239.835 10.2517 240.276 10.3012 240.791 10.3012C241.415 10.3012 241.901 10.1476 242.248 9.84036C242.605 9.5331 242.783 9.06231 242.783 8.42798C242.783 8.06125 242.719 7.77382 242.59 7.56568C242.461 7.34763 242.278 7.17418 242.04 7.04533C241.802 6.91648 241.455 6.77772 240.999 6.62905L240.107 6.3317C239.453 6.10374 238.957 5.81135 238.62 5.45454C238.293 5.08781 238.13 4.59224 238.13 3.96782C238.13 3.13526 238.392 2.5257 238.918 2.13916C239.443 1.75261 240.132 1.55934 240.984 1.55934C241.936 1.55934 242.768 1.70801 243.482 2.00535L243.318 2.74871C242.972 2.61986 242.62 2.52075 242.263 2.45137C241.916 2.37208 241.529 2.33243 241.103 2.33243C239.745 2.33243 239.066 2.86765 239.066 3.93809C239.066 4.34446 239.156 4.65667 239.334 4.87472C239.512 5.08286 239.869 5.28109 240.404 5.46941L241.222 5.76675C241.837 5.9848 242.288 6.16816 242.575 6.31684C242.872 6.46551 243.135 6.70834 243.363 7.04533C243.591 7.38232 243.705 7.84816 243.705 8.44284C243.705 9.28532 243.442 9.93452 242.917 10.3904C242.392 10.8464 241.683 11.0743 240.791 11.0743Z" fill="white"/>
<path fill-rule="evenodd" clip-rule="evenodd" d="M289.643 130.872C289.643 130.872 293.377 125.052 295.617 119.959C297.857 114.866 294.124 110.5 289.643 110.5C285.163 110.5 281.429 114.866 283.67 119.959C285.91 125.052 289.643 130.872 289.643 130.872ZM292.63 117.048C292.63 118.656 291.293 119.959 289.643 119.959C287.994 119.959 286.657 118.656 286.657 117.048C286.657 115.441 287.994 114.138 289.643 114.138C291.293 114.138 292.63 115.441 292.63 117.048Z" fill="#F3465C"/>
<path d="M296.738 122.9H299.726C300.746 122.9 301.49 123.14 301.958 123.62C302.426 124.088 302.66 124.814 302.66 125.798V126.302C302.66 126.95 302.552 127.478 302.336 127.886C302.132 128.294 301.814 128.588 301.382 128.768V128.804C302.366 129.14 302.858 130.016 302.858 131.432V132.512C302.858 133.484 302.6 134.228 302.084 134.744C301.58 135.248 300.836 135.5 299.852 135.5H296.738V122.9ZM299.492 128.03C299.888 128.03 300.182 127.928 300.374 127.724C300.578 127.52 300.68 127.178 300.68 126.698V125.996C300.68 125.54 300.596 125.21 300.428 125.006C300.272 124.802 300.02 124.7 299.672 124.7H298.718V128.03H299.492ZM299.852 133.7C300.2 133.7 300.458 133.61 300.626 133.43C300.794 133.238 300.878 132.914 300.878 132.458V131.36C300.878 130.784 300.776 130.388 300.572 130.172C300.38 129.944 300.056 129.83 299.6 129.83H298.718V133.7H299.852ZM307.102 135.68C306.13 135.68 305.386 135.404 304.87 134.852C304.354 134.3 304.096 133.52 304.096 132.512V125.888C304.096 124.88 304.354 124.1 304.87 123.548C305.386 122.996 306.13 122.72 307.102 122.72C308.074 122.72 308.818 122.996 309.334 123.548C309.85 124.1 310.108 124.88 310.108 125.888V132.512C310.108 133.52 309.85 134.3 309.334 134.852C308.818 135.404 308.074 135.68 307.102 135.68ZM307.102 133.88C307.786 133.88 308.128 133.466 308.128 132.638V125.762C308.128 124.934 307.786 124.52 307.102 124.52C306.418 124.52 306.076 124.934 306.076 125.762V132.638C306.076 133.466 306.418 133.88 307.102 133.88ZM311.672 122.9H313.652V135.5H311.672V122.9ZM317.934 135.68C316.974 135.68 316.248 135.41 315.756 134.87C315.264 134.318 315.018 133.532 315.018 132.512V131.792H316.89V132.656C316.89 133.472 317.232 133.88 317.916 133.88C318.252 133.88 318.504 133.784 318.672 133.592C318.852 133.388 318.942 133.064 318.942 132.62C318.942 132.092 318.822 131.63 318.582 131.234C318.342 130.826 317.898 130.34 317.25 129.776C316.434 129.056 315.864 128.408 315.54 127.832C315.216 127.244 315.054 126.584 315.054 125.852C315.054 124.856 315.306 124.088 315.81 123.548C316.314 122.996 317.046 122.72 318.006 122.72C318.954 122.72 319.668 122.996 320.148 123.548C320.64 124.088 320.886 124.868 320.886 125.888V126.41H319.014V125.762C319.014 125.33 318.93 125.018 318.762 124.826C318.594 124.622 318.348 124.52 318.024 124.52C317.364 124.52 317.034 124.922 317.034 125.726C317.034 126.182 317.154 126.608 317.394 127.004C317.646 127.4 318.096 127.88 318.744 128.444C319.572 129.164 320.142 129.818 320.454 130.406C320.766 130.994 320.922 131.684 320.922 132.476C320.922 133.508 320.664 134.3 320.148 134.852C319.644 135.404 318.906 135.68 317.934 135.68ZM322.283 122.9H327.683V124.7H324.263V128.03H326.981V129.83H324.263V133.7H327.683V135.5H322.283V122.9ZM329.782 135.5H329.134V133.592H331.042V135.302L330.052 137.66H329.134L329.782 135.5ZM335.86 122.9H337.84V135.5H335.86V122.9ZM339.548 122.9H342.572C343.556 122.9 344.294 123.164 344.786 123.692C345.278 124.22 345.524 124.994 345.524 126.014V132.386C345.524 133.406 345.278 134.18 344.786 134.708C344.294 135.236 343.556 135.5 342.572 135.5H339.548V122.9ZM342.536 133.7C342.86 133.7 343.106 133.604 343.274 133.412C343.454 133.22 343.544 132.908 343.544 132.476V125.924C343.544 125.492 343.454 125.18 343.274 124.988C343.106 124.796 342.86 124.7 342.536 124.7H341.528V133.7H342.536Z" fill="white"/>
</g>
<defs>
<filter id="filter0_d_91_33" x="-4" y="0.5" width="381.031" height="181" filterUnits="userSpaceOnUse" color-interpolation-filters="sRGB">
<feFlood flood-opacity="0" result="BackgroundImageFix"/>
<feColorMatrix in="SourceAlpha" type="matrix" values="0 0 0 0 0 0 0 0 0 0 0 0 0 0 0 0 0 0 127 0" result="hardAlpha"/>
<feOffset dy="4"/>
<feGaussianBlur stdDeviation="2"/>
<feComposite in2="hardAlpha" operator="out"/>
<feColorMatrix type="matrix" values="0 0 0 0 0 0 0 0 0 0 0 0 0 0 0 0 0 0 0.25 0"/>
<feBlend mode="normal" in2="BackgroundImageFix" result="effect1_dropShadow_91_33"/>
<feBlend mode="normal" in="SourceGraphic" in2="effect1_dropShadow_91_33" result="shape"/>
</filter>
</defs>
</svg>
