<svg width="196" height="262" viewBox="0 0 196 262" fill="none" xmlns="http://www.w3.org/2000/svg">
<g clip-path="url(#clip0_98_1133)">
<rect x="5.00049" y="5.5" width="186" height="251.589" rx="19.5789" fill="#222222" fill-opacity="0.6"/>
<path d="M34.0005 39.5V164.5H159V39.5H34.0005ZM39.2075 44.8409H153.79V159.155H39.2075V44.8409ZM69.3403 110.286L65.2114 126.228C65.1294 126.665 64.9458 126.833 64.438 126.833H56.7896C56.2817 126.833 56.1997 126.645 56.2817 126.04L71.0708 72.9717C71.3169 72.0101 71.4966 71.2408 71.5786 68.5884C71.5786 68.2318 71.7427 68.0475 72.0044 68.0475H82.9302C83.2778 68.0475 83.438 68.1517 83.52 68.5884L100.102 126.12C100.184 126.557 100.102 126.809 99.6763 126.809H91.0903C90.6645 126.809 90.3989 126.665 90.3169 126.308L86.0239 110.262H69.3403V110.286ZM83.9458 101.603C82.481 95.6975 78.9419 82.7399 77.6606 76.4976H77.5786C76.4614 82.7359 73.6528 93.3175 71.4966 101.603H83.9458ZM111.86 107.072C111.961 114.312 115.297 119.157 123.211 119.157C126.305 119.157 128.95 118.74 131.696 117.486C132.043 117.317 132.305 117.422 132.305 117.862V124.562C132.305 125.082 132.141 125.355 131.778 125.627C129.032 127.026 125.614 127.651 121.321 127.651C107.567 127.651 102.418 117.257 102.418 105.614C102.418 93.009 108.766 82.6999 119.958 82.6999C131.29 82.6999 135.235 92.4882 135.235 100.417C135.235 102.986 135.051 105.093 134.809 106.071C134.708 106.507 134.543 106.656 134.118 106.74C133.079 106.928 129.989 107.096 125.43 107.096H111.86V107.072ZM122.442 99.7242C125.106 99.7242 126.043 99.7242 126.309 99.6401C126.309 99.2835 126.391 98.971 126.391 98.7225C126.391 95.8017 125.008 90.4568 119.594 90.4568C114.61 90.4568 112.454 94.9643 111.946 99.7242H122.442Z" fill="#9497F4"/>
<path d="M22.1673 222.791H27.4184L31.436 247.46H27.5594L26.8545 242.561V242.632H22.4492L21.7444 247.46H18.1497L22.1673 222.791ZM26.3964 239.284L24.6695 227.09H24.599L22.9074 239.284H26.3964ZM33.3168 222.791H43.5722V226.315H37.1934V233.187H42.1978V236.711H37.1934V247.46H33.3168V222.791ZM48.8062 226.315H44.7534V222.791H56.7357V226.315H52.6828V247.46H48.8062V226.315ZM58.6126 222.791H69.1852V226.315H62.4892V232.835H67.8108V236.359H62.4892V243.936H69.1852V247.46H58.6126V222.791ZM71.4154 222.791H77.1599C79.1569 222.791 80.6136 223.261 81.5299 224.2C82.4462 225.117 82.9043 226.538 82.9043 228.465V229.98C82.9043 232.541 82.0585 234.162 80.3669 234.843V234.914C81.3067 235.196 81.9645 235.771 82.3405 236.641C82.7399 237.51 82.9396 238.673 82.9396 240.13V244.465C82.9396 245.169 82.9631 245.745 83.0101 246.191C83.057 246.614 83.1745 247.037 83.3625 247.46H79.4154C79.2744 247.061 79.1804 246.685 79.1334 246.332C79.0864 245.98 79.0629 245.346 79.0629 244.429V239.918C79.0629 238.791 78.875 238.003 78.4991 237.557C78.1466 237.111 77.524 236.887 76.6312 236.887H75.292V247.46H71.4154V222.791ZM76.7017 233.363C77.477 233.363 78.0527 233.164 78.4286 232.764C78.828 232.365 79.0277 231.695 79.0277 230.755V228.852C79.0277 227.959 78.8632 227.313 78.5343 226.914C78.2289 226.515 77.7355 226.315 77.0541 226.315H75.292V233.363H76.7017ZM85.6293 222.791H96.2019V226.315H89.5059V232.835H94.8275V236.359H89.5059V243.936H96.2019V247.46H85.6293V222.791ZM98.4321 222.791H108.688V226.315H102.309V233.187H107.313V236.711H102.309V247.46H98.4321V222.791ZM110.547 222.791H120.802V226.315H114.423V233.187H119.428V236.711H114.423V247.46H110.547V222.791ZM122.661 222.791H133.234V226.315H126.538V232.835H131.859V236.359H126.538V243.936H133.234V247.46H122.661V222.791ZM140.926 247.813C139.07 247.813 137.649 247.284 136.662 246.227C135.699 245.169 135.217 243.677 135.217 241.751V228.5C135.217 226.573 135.699 225.081 136.662 224.024C137.649 222.967 139.07 222.438 140.926 222.438C142.782 222.438 144.192 222.967 145.155 224.024C146.142 225.081 146.636 226.573 146.636 228.5V231.108H142.97V228.253C142.97 226.726 142.324 225.962 141.032 225.962C139.74 225.962 139.094 226.726 139.094 228.253V242.033C139.094 243.536 139.74 244.288 141.032 244.288C142.324 244.288 142.97 243.536 142.97 242.033V238.262H146.636V241.751C146.636 243.677 146.142 245.169 145.155 246.227C144.192 247.284 142.782 247.813 140.926 247.813ZM151.986 226.315H147.933V222.791H159.915V226.315H155.862V247.46H151.986V226.315ZM166.832 247.813C164.952 247.813 163.531 247.284 162.567 246.227C161.604 245.146 161.123 243.607 161.123 241.61V240.2H164.788V241.892C164.788 243.489 165.457 244.288 166.797 244.288C167.454 244.288 167.948 244.1 168.277 243.724C168.629 243.325 168.805 242.691 168.805 241.821C168.805 240.788 168.57 239.883 168.1 239.108C167.631 238.309 166.761 237.357 165.493 236.253C163.895 234.843 162.779 233.575 162.145 232.447C161.51 231.296 161.193 230.003 161.193 228.57C161.193 226.62 161.686 225.117 162.673 224.059C163.66 222.979 165.093 222.438 166.973 222.438C168.829 222.438 170.227 222.979 171.167 224.059C172.13 225.117 172.611 226.644 172.611 228.641V229.663H168.946V228.394C168.946 227.548 168.782 226.937 168.453 226.562C168.124 226.162 167.642 225.962 167.008 225.962C165.716 225.962 165.07 226.749 165.07 228.324C165.07 229.216 165.305 230.05 165.774 230.826C166.268 231.601 167.149 232.541 168.418 233.645C170.039 235.055 171.155 236.335 171.766 237.487C172.377 238.638 172.682 239.989 172.682 241.539C172.682 243.56 172.177 245.111 171.167 246.191C170.18 247.272 168.735 247.813 166.832 247.813Z" fill="#F3F3F3"/>
<path d="M18.5129 205.003H19.9451C20.7348 205.003 21.3414 205.118 21.765 205.348C22.1885 205.57 22.4793 205.922 22.6372 206.403C22.8023 206.884 22.8849 207.552 22.8849 208.406C22.8849 209.196 22.8131 209.827 22.6695 210.301C22.5259 210.768 22.246 211.127 21.8296 211.378C21.4132 211.629 20.803 211.755 19.9989 211.755H18.5129V205.003ZM19.9989 211.227C20.6594 211.227 21.1476 211.13 21.4634 210.936C21.7793 210.743 21.9839 210.455 22.0772 210.075C22.1706 209.687 22.2172 209.131 22.2172 208.406C22.2172 207.659 22.1598 207.089 22.0449 206.694C21.9373 206.292 21.7219 205.997 21.3988 205.811C21.0758 205.624 20.5912 205.531 19.9451 205.531H19.1805V211.227H19.9989ZM25.7651 211.755V205.003H29.3618L29.2433 205.531H26.4328V207.954H29.071V208.46H26.4328V211.227H29.2972L29.3833 211.755H25.7651ZM33.7721 211.809C32.9824 211.809 32.3399 211.672 31.8446 211.399L31.9953 210.85C32.2825 210.972 32.5553 211.069 32.8137 211.141C33.0793 211.213 33.3988 211.249 33.7721 211.249C34.2244 211.249 34.5761 211.137 34.8274 210.915C35.0858 210.692 35.2151 210.351 35.2151 209.892C35.2151 209.626 35.1684 209.418 35.0751 209.267C34.9818 209.109 34.8489 208.984 34.6766 208.89C34.5044 208.797 34.2531 208.697 33.9229 208.589L33.2768 208.374C32.8029 208.208 32.444 207.997 32.1999 207.738C31.963 207.473 31.8446 207.114 31.8446 206.661C31.8446 206.058 32.0348 205.617 32.4153 205.337C32.7958 205.057 33.2947 204.917 33.9121 204.917C34.6013 204.917 35.2043 205.025 35.7212 205.24L35.6027 205.778C35.3515 205.685 35.0966 205.613 34.8382 205.563C34.5869 205.506 34.3069 205.477 33.9982 205.477C33.0147 205.477 32.523 205.864 32.523 206.64C32.523 206.934 32.5876 207.16 32.7168 207.318C32.846 207.469 33.1045 207.613 33.4921 207.749L34.0844 207.964C34.5295 208.122 34.8561 208.255 35.0643 208.363C35.2797 208.47 35.4699 208.646 35.635 208.89C35.8002 209.135 35.8827 209.472 35.8827 209.903C35.8827 210.513 35.6925 210.983 35.312 211.313C34.9315 211.644 34.4182 211.809 33.7721 211.809ZM38.3194 211.755V211.227H39.3316V205.531H38.3194V205.003H40.9792V205.531H40.01V211.227H41.0007V211.755H38.3194ZM46.1136 211.809C45.5034 211.809 45.0153 211.687 44.6491 211.443C44.283 211.191 44.021 210.814 43.863 210.312C43.7051 209.809 43.6261 209.152 43.6261 208.341C43.6261 207.128 43.8379 206.256 44.2615 205.725C44.6922 205.186 45.3347 204.917 46.189 204.917C46.8136 204.917 47.3951 205.046 47.9335 205.305V206.586H47.352V205.671C47.2228 205.613 47.0541 205.567 46.8459 205.531C46.6449 205.495 46.4475 205.477 46.2536 205.477C45.8229 205.477 45.4639 205.552 45.1768 205.703C44.8968 205.854 44.6779 206.137 44.5199 206.554C44.362 206.963 44.283 207.541 44.283 208.287C44.283 209.005 44.3404 209.58 44.4553 210.01C44.5702 210.434 44.7604 210.746 45.026 210.947C45.2988 211.148 45.6721 211.249 46.1459 211.249C46.39 211.249 46.6305 211.227 46.8674 211.184C47.1115 211.141 47.3233 211.076 47.5028 210.99V208.772H46.2644V208.255H48.1166V211.27C47.8438 211.421 47.553 211.55 47.2443 211.658C46.9356 211.758 46.5587 211.809 46.1136 211.809ZM51.0514 211.755V205.003H51.7621L55.1434 210.603V205.003H55.7572V211.755H55.0896L51.6868 206.069V211.755H51.0514Z" fill="#F3F3F3"/>
</g>
<rect x="2.55312" y="3.05263" width="190.895" height="256.484" rx="22.0263" stroke="#FCC439" stroke-width="4.89474"/>
<defs>
<clipPath id="clip0_98_1133">
<rect x="5.00049" y="5.5" width="186" height="251.589" rx="19.5789" fill="white"/>
</clipPath>
</defs>
</svg>
