<svg width="197" height="262" viewBox="0 0 197 262" fill="none" xmlns="http://www.w3.org/2000/svg">
<g clip-path="url(#clip0_98_1162)">
<rect x="5.30768" y="5.5" width="186" height="251.589" rx="19.5789" fill="#222222" fill-opacity="0.6"/>
<g clip-path="url(#clip1_98_1162)">
<path d="M97.054 167.166L58.9597 156.591L50.4704 61.3756H143.752L135.254 156.577L97.054 167.166V167.166Z" fill="#264DE4"/>
<path d="M127.978 150.514L135.24 69.1608H97.111V159.072L127.978 150.514V150.514Z" fill="#2965F1"/>
<path d="M69.9318 104.475L70.9783 116.153H97.111V104.475H69.9318ZM67.8286 80.8389L68.8901 92.5167H97.111V80.8389H67.8286V80.8389ZM97.111 134.803L97.0598 134.817L84.0543 131.305L83.2228 121.992H71.5001L73.136 140.328L97.0573 146.968L97.111 146.953V134.803Z" fill="#EBEBEB"/>
<path d="M72.4237 35.5H86.5671V41.4148H78.3385V47.3295H86.5678V53.2439H72.4237V35.5ZM89.3961 35.5H103.54V40.6432H95.3109V41.6718H103.54V53.5014H89.3965V48.1003H97.6255V47.0718H89.3958V35.5H89.3961ZM106.369 35.5H120.513V40.6432H112.284V41.6718H120.513V53.5014H106.369V48.1003H114.598V47.0718H106.369V35.5H106.369Z" fill="#F3F3F3"/>
<path d="M124.216 104.475L126.324 80.8389H97.0708V92.5167H113.526L112.463 104.475H97.0708V116.153H111.451L110.095 131.298L97.0704 134.813V146.962L121.011 140.328L121.186 138.355L123.931 107.611L124.216 104.475V104.475Z" fill="white"/>
</g>
<path d="M24.9414 247.813C23.0854 247.813 21.6639 247.284 20.6772 246.227C19.7139 245.169 19.2322 243.677 19.2322 241.751V228.5C19.2322 226.573 19.7139 225.081 20.6772 224.024C21.6639 222.967 23.0854 222.438 24.9414 222.438C26.7975 222.438 28.2072 222.967 29.1705 224.024C30.1573 225.081 30.6507 226.573 30.6507 228.5V231.108H26.9855V228.253C26.9855 226.726 26.3394 225.962 25.0472 225.962C23.755 225.962 23.1089 226.726 23.1089 228.253V242.033C23.1089 243.536 23.755 244.288 25.0472 244.288C26.3394 244.288 26.9855 243.536 26.9855 242.033V238.262H30.6507V241.751C30.6507 243.677 30.1573 245.169 29.1705 246.227C28.2072 247.284 26.7975 247.813 24.9414 247.813ZM38.0785 247.813C36.1989 247.813 34.7775 247.284 33.8142 246.227C32.8509 245.146 32.3693 243.607 32.3693 241.61V240.2H36.0345V241.892C36.0345 243.489 36.7041 244.288 38.0433 244.288C38.7011 244.288 39.1945 244.1 39.5234 243.724C39.8758 243.325 40.0521 242.691 40.0521 241.821C40.0521 240.788 39.8171 239.883 39.3472 239.108C38.8773 238.309 38.008 237.357 36.7393 236.253C35.1417 234.843 34.0257 233.575 33.3913 232.447C32.7569 231.296 32.4398 230.003 32.4398 228.57C32.4398 226.62 32.9331 225.117 33.9199 224.059C34.9067 222.979 36.3399 222.438 38.2195 222.438C40.0755 222.438 41.4735 222.979 42.4133 224.059C43.3766 225.117 43.8582 226.644 43.8582 228.641V229.663H40.193V228.394C40.193 227.548 40.0286 226.937 39.6996 226.562C39.3707 226.162 38.8891 225.962 38.2547 225.962C36.9625 225.962 36.3164 226.749 36.3164 228.324C36.3164 229.216 36.5513 230.05 37.0212 230.826C37.5146 231.601 38.3957 232.541 39.6644 233.645C41.2855 235.055 42.4015 236.335 43.0124 237.487C43.6233 238.638 43.9287 239.989 43.9287 241.539C43.9287 243.56 43.4235 245.111 42.4133 246.191C41.4265 247.272 39.9816 247.813 38.0785 247.813ZM51.191 247.813C49.3115 247.813 47.89 247.284 46.9267 246.227C45.9635 245.146 45.4818 243.607 45.4818 241.61V240.2H49.147V241.892C49.147 243.489 49.8166 244.288 51.1558 244.288C51.8136 244.288 52.307 244.1 52.636 243.724C52.9884 243.325 53.1646 242.691 53.1646 241.821C53.1646 240.788 52.9296 239.883 52.4598 239.108C51.9899 238.309 51.1206 237.357 49.8518 236.253C48.2542 234.843 47.1382 233.575 46.5038 232.447C45.8695 231.296 45.5523 230.003 45.5523 228.57C45.5523 226.62 46.0457 225.117 47.0325 224.059C48.0192 222.979 49.4524 222.438 51.332 222.438C53.1881 222.438 54.586 222.979 55.5258 224.059C56.4891 225.117 56.9707 226.644 56.9707 228.641V229.663H53.3056V228.394C53.3056 227.548 53.1411 226.937 52.8122 226.562C52.4832 226.162 52.0016 225.962 51.3672 225.962C50.075 225.962 49.4289 226.749 49.4289 228.324C49.4289 229.216 49.6639 230.05 50.1338 230.826C50.6272 231.601 51.5082 232.541 52.7769 233.645C54.3981 235.055 55.5141 236.335 56.1249 237.487C56.7358 238.638 57.0412 239.989 57.0412 241.539C57.0412 243.56 56.5361 245.111 55.5258 246.191C54.539 247.272 53.0941 247.813 51.191 247.813Z" fill="#F3F3F3"/>
<path d="M18.8201 205.003H20.2523C21.042 205.003 21.6486 205.118 22.0722 205.348C22.4957 205.57 22.7865 205.922 22.9444 206.403C23.1095 206.884 23.1921 207.552 23.1921 208.406C23.1921 209.196 23.1203 209.827 22.9767 210.301C22.8331 210.768 22.5531 211.127 22.1368 211.378C21.7204 211.629 21.1102 211.755 20.3061 211.755H18.8201V205.003ZM20.3061 211.227C20.9666 211.227 21.4548 211.13 21.7706 210.936C22.0865 210.743 22.2911 210.455 22.3844 210.075C22.4778 209.687 22.5244 209.131 22.5244 208.406C22.5244 207.659 22.467 207.089 22.3521 206.694C22.2444 206.292 22.0291 205.997 21.706 205.811C21.383 205.624 20.8984 205.531 20.2523 205.531H19.4877V211.227H20.3061ZM26.0723 211.755V205.003H29.669L29.5505 205.531H26.74V207.954H29.3782V208.46H26.74V211.227H29.6044L29.6905 211.755H26.0723ZM31.8933 205.003H32.5932C32.8445 205.972 33.1747 207.182 33.5839 208.632C33.9142 209.809 34.1367 210.617 34.2516 211.055C34.3808 210.567 34.571 209.878 34.8223 208.987C35.3105 207.221 35.6694 205.893 35.8992 205.003H36.6099L34.6716 211.755H33.8424L31.8933 205.003ZM39.1572 211.755V205.003H42.7538L42.6354 205.531H39.8248V207.954H42.4631V208.46H39.8248V211.227H42.6892L42.7753 211.755H39.1572ZM45.4735 211.755V205.003H46.1411V211.227H48.7255L48.8224 211.755H45.4735ZM53.4602 211.809C52.8428 211.809 52.3618 211.676 52.0173 211.41C51.6798 211.145 51.4429 210.764 51.3065 210.269C51.1773 209.766 51.1127 209.127 51.1127 208.352C51.1127 207.584 51.1809 206.952 51.3173 206.457C51.4609 205.954 51.705 205.574 52.0496 205.315C52.3942 205.05 52.8644 204.917 53.4602 204.917C54.0561 204.917 54.5263 205.05 54.8709 205.315C55.2155 205.574 55.4596 205.954 55.6031 206.457C55.7467 206.952 55.8185 207.584 55.8185 208.352C55.8185 209.135 55.7503 209.773 55.6139 210.269C55.4847 210.764 55.2478 211.145 54.9032 211.41C54.5586 211.676 54.0776 211.809 53.4602 211.809ZM53.4602 211.249C53.8981 211.249 54.2391 211.148 54.4832 210.947C54.7273 210.746 54.8996 210.441 55.0001 210.032C55.1006 209.615 55.1509 209.059 55.1509 208.363C55.1509 207.666 55.097 207.11 54.9893 206.694C54.8888 206.277 54.7165 205.972 54.4725 205.778C54.2284 205.577 53.891 205.477 53.4602 205.477C53.0295 205.477 52.6921 205.577 52.448 205.778C52.2111 205.972 52.0388 206.277 51.9311 206.694C51.8306 207.11 51.7804 207.666 51.7804 208.363C51.7804 209.059 51.8306 209.615 51.9311 210.032C52.0316 210.441 52.2039 210.746 52.448 210.947C52.6921 211.148 53.0295 211.249 53.4602 211.249ZM58.6845 205.003H60.5151C61.2474 205.003 61.7965 205.15 62.1627 205.445C62.536 205.739 62.7226 206.256 62.7226 206.995C62.7226 207.519 62.6185 207.921 62.4103 208.201C62.2022 208.481 61.8971 208.675 61.495 208.783C61.1002 208.883 60.5761 208.933 59.9228 208.933H59.3521V211.755H58.6845V205.003ZM59.7936 208.384C60.3967 208.384 60.8453 208.363 61.1397 208.32C61.434 208.269 61.6566 208.147 61.8073 207.954C61.9653 207.753 62.0442 207.437 62.0442 207.006C62.0442 206.446 61.9258 206.062 61.6889 205.854C61.4591 205.638 61.0822 205.531 60.5582 205.531H59.3521V208.384H59.7936ZM65.2411 211.755L65.7688 205.003H66.5118L68.1055 208.697L69.6454 205.003H70.3884L70.9592 211.755H70.3454L69.8393 205.972L68.4071 209.45H67.804L66.318 205.961L65.8657 211.755H65.2411ZM73.9356 211.755V205.003H77.5322L77.4138 205.531H74.6032V207.954H77.2415V208.46H74.6032V211.227H77.4676L77.5538 211.755H73.9356ZM80.2519 211.755V205.003H80.9626L84.3439 210.603V205.003H84.9577V211.755H84.2901L80.8872 206.069V211.755H80.2519ZM89.2045 211.755V205.531H87.3954V205.003H91.7135V205.531H89.8829V211.755H89.2045Z" fill="#F3F3F3"/>
</g>
<rect x="2.86031" y="3.05263" width="190.895" height="256.484" rx="22.0263" stroke="#34C4CD" stroke-width="4.89474"/>
<defs>
<clipPath id="clip0_98_1162">
<rect x="5.30768" y="5.5" width="186" height="251.589" rx="19.5789" fill="white"/>
</clipPath>
<clipPath id="clip1_98_1162">
<rect width="93.6067" height="132" fill="white" transform="translate(50.3077 35.5)"/>
</clipPath>
</defs>
</svg>
