<svg width="197" height="262" viewBox="0 0 197 262" fill="none" xmlns="http://www.w3.org/2000/svg">
<g clip-path="url(#clip0_98_1078)">
<rect x="5.38477" y="5.5" width="186" height="251.589" rx="19.5789" fill="#222222" fill-opacity="0.6"/>
<path d="M22.4 113.731V96.3693H44.0767V95.3538H22.4V79.5152H45.4472V78.5H21.3848V114.746H45.6501V113.731H22.4ZM65.1949 88.6528L56.2096 100.481L47.427 88.6531H46.1071L55.6003 101.243L45.193 114.746H46.4115L56.209 102.004L66.0574 114.746H67.3265L56.869 101.242L66.4127 88.6525L65.1949 88.6528ZM70.3727 123.681V107.436H70.4742C71.0836 109.805 72.2849 111.709 74.0786 113.147C75.8723 114.585 78.1566 115.305 80.9317 115.305C82.7254 115.305 84.3161 114.941 85.7037 114.213C87.0912 113.486 88.2503 112.496 89.1811 111.244C90.1116 109.991 90.8224 108.536 91.3133 106.878C91.8038 105.22 92.0494 103.476 92.0494 101.649C92.0494 99.6861 91.7953 97.8754 91.2877 96.2173C90.7801 94.5589 90.044 93.1204 89.0796 91.9023C88.115 90.6838 86.9474 89.736 85.5766 89.0596C84.2061 88.3825 82.6577 88.044 80.9317 88.044C79.6118 88.044 78.3851 88.2387 77.2513 88.6278C76.1176 89.0172 75.1109 89.5669 74.231 90.2777C73.3459 90.994 72.5755 91.8414 71.9464 92.7905C71.3035 93.7551 70.8127 94.8127 70.4742 95.9635H70.3727V88.6528H69.3575V123.681H70.3727ZM80.9317 114.34C77.7507 114.34 75.1953 113.248 73.2663 111.066C71.3374 108.883 70.3727 105.744 70.3727 101.649C70.3727 99.9564 70.6098 98.3489 71.0836 96.826C71.5574 95.3032 72.2426 93.9662 73.1393 92.8157C74.0363 91.6649 75.1447 90.7512 76.4643 90.0745C77.7843 89.3975 79.2736 89.0589 80.9317 89.0589C82.6239 89.0589 84.1047 89.3975 85.3737 90.0745C86.6427 90.7512 87.6921 91.6735 88.5211 92.841C89.3502 94.0086 89.9763 95.3456 90.3995 96.8513C90.8224 98.3574 91.0339 99.9564 91.0339 101.649C91.0339 103.172 90.8395 104.686 90.4501 106.192C90.061 107.698 89.4602 109.052 88.6479 110.254C87.8359 111.455 86.7954 112.436 85.5261 113.198C84.2567 113.959 82.7254 114.34 80.9317 114.34ZM97.6334 114.746V99.9735C97.6334 98.5521 97.8363 97.1642 98.2428 95.8108C98.6486 94.4571 99.2748 93.2639 100.121 92.232C100.967 91.1997 102.041 90.3874 103.344 89.7951C104.647 89.2028 106.196 88.9575 107.989 89.0589V88.0437C106.432 88.0102 105.071 88.179 103.903 88.5513C102.735 88.9237 101.728 89.4313 100.882 90.0745C100.036 90.7174 99.3595 91.4702 98.8519 92.3334C98.3446 93.1952 97.9682 94.1276 97.7349 95.1H97.6334V88.6528H96.6182V114.746L97.6334 114.746ZM109.258 101.902H131.087C131.155 100.109 130.977 98.383 130.554 96.7246C130.131 95.0662 129.454 93.5939 128.524 92.3081C127.593 91.022 126.392 89.9898 124.919 89.2113C123.447 88.4328 121.696 88.0437 119.665 88.0437C118.21 88.0437 116.789 88.3484 115.401 88.9578C114.013 89.5669 112.795 90.455 111.746 91.6226C110.697 92.7901 109.851 94.22 109.208 95.9126C108.565 97.6045 108.243 99.5335 108.243 101.7C108.243 103.628 108.463 105.431 108.903 107.106C109.343 108.781 110.02 110.237 110.934 111.472C111.848 112.707 113.024 113.663 114.462 114.34C115.9 115.017 117.635 115.338 119.665 115.304C122.643 115.304 125.148 114.467 127.178 112.792C129.209 111.116 130.41 108.756 130.783 105.71H129.768C129.328 108.587 128.202 110.744 126.392 112.182C124.581 113.621 122.305 114.34 119.564 114.34C117.702 114.34 116.129 114.018 114.842 113.375C113.557 112.733 112.507 111.852 111.695 110.736C110.883 109.619 110.282 108.307 109.893 106.801C109.504 105.295 109.292 103.662 109.258 101.902ZM130.072 100.887H109.259C109.36 99.0597 109.698 97.4184 110.274 95.9632C110.849 94.5077 111.602 93.2639 112.533 92.232C113.463 91.1997 114.547 90.413 115.782 89.8712C117.017 89.3298 118.345 89.0589 119.767 89.0589C121.459 89.0589 122.948 89.3722 124.234 89.9983C125.52 90.6244 126.595 91.4791 127.458 92.5619C128.321 93.6448 128.972 94.9056 129.412 96.3437C129.852 97.7821 130.072 99.2967 130.072 100.887ZM152.155 96.3693H153.17C153.17 93.4586 152.324 91.3435 150.632 90.0236C148.939 88.7037 146.638 88.0437 143.728 88.0437C142.103 88.0437 140.733 88.247 139.616 88.6531C138.499 89.0589 137.585 89.5836 136.874 90.2265C136.164 90.8694 135.656 91.5802 135.352 92.3587C135.047 93.1372 134.895 93.8818 134.895 94.5924C134.895 96.0137 135.148 97.1475 135.656 97.9936C136.164 98.8397 136.959 99.4997 138.042 99.9735C138.787 100.312 139.632 100.616 140.58 100.888C141.528 101.158 142.628 101.446 143.88 101.75C144.997 102.021 146.097 102.292 147.18 102.562C148.263 102.833 149.219 103.197 150.048 103.654C150.877 104.111 151.554 104.695 152.079 105.405C152.603 106.116 152.865 107.047 152.865 108.197C152.865 109.314 152.603 110.262 152.079 111.04C151.558 111.814 150.874 112.465 150.073 112.944C149.261 113.435 148.356 113.79 147.358 114.01C146.359 114.23 145.386 114.34 144.439 114.34C141.359 114.34 138.998 113.655 137.357 112.284C135.715 110.913 134.895 108.756 134.895 105.811H133.879C133.879 109.094 134.768 111.497 136.544 113.02C138.321 114.543 140.953 115.304 144.439 115.304C145.555 115.304 146.68 115.177 147.815 114.924C148.948 114.67 149.964 114.255 150.86 113.68C151.749 113.112 152.496 112.348 153.043 111.446C153.601 110.532 153.881 109.416 153.881 108.096C153.881 106.844 153.635 105.828 153.145 105.05C152.654 104.272 152.011 103.628 151.215 103.121C150.42 102.613 149.524 102.216 148.525 101.928C147.521 101.639 146.514 101.359 145.504 101.09C144.262 100.764 143.018 100.443 141.773 100.126C140.707 99.8549 139.717 99.5335 138.804 99.1612C137.924 98.7888 137.221 98.2559 136.697 97.5622C136.172 96.8684 135.91 95.8785 135.91 94.5924C135.91 94.3556 135.978 93.9324 136.113 93.3234C136.248 92.714 136.57 92.0964 137.078 91.4702C137.585 90.8444 138.363 90.2859 139.413 89.7951C140.462 89.3045 141.9 89.0589 143.728 89.0589C144.98 89.0589 146.122 89.1945 147.154 89.4651C148.187 89.736 149.075 90.1674 149.819 90.7597C150.564 91.352 151.139 92.1049 151.545 93.0187C151.952 93.9327 152.155 95.0494 152.155 96.3693ZM175.659 96.3693H176.674C176.674 93.4586 175.828 91.3435 174.136 90.0236C172.444 88.7037 170.142 88.0437 167.232 88.0437C165.607 88.0437 164.237 88.247 163.12 88.6531C162.003 89.0589 161.089 89.5836 160.379 90.2265C159.668 90.8694 159.16 91.5802 158.855 92.3587C158.551 93.1372 158.399 93.8818 158.399 94.5924C158.399 96.0137 158.653 97.1475 159.16 97.9936C159.668 98.8397 160.463 99.4997 161.546 99.9735C162.291 100.312 163.137 100.616 164.084 100.888C165.032 101.158 166.132 101.446 167.384 101.75C168.501 102.021 169.601 102.292 170.684 102.562C171.767 102.833 172.723 103.197 173.552 103.654C174.381 104.111 175.058 104.695 175.583 105.405C176.107 106.116 176.37 107.047 176.37 108.197C176.37 109.314 176.107 110.262 175.583 111.04C175.062 111.814 174.378 112.465 173.578 112.944C172.765 113.435 171.86 113.79 170.861 114.01C169.863 114.23 168.89 114.34 167.943 114.34C164.863 114.34 162.502 113.655 160.861 112.284C159.219 110.913 158.399 108.756 158.399 105.811H157.384C157.384 109.094 158.272 111.497 160.049 113.02C161.825 114.543 164.457 115.304 167.943 115.304C169.059 115.304 170.185 115.177 171.318 114.924C172.452 114.67 173.467 114.255 174.364 113.68C175.253 113.112 176 112.348 176.547 111.446C177.106 110.532 177.385 109.416 177.385 108.096C177.385 106.844 177.139 105.828 176.649 105.05C176.158 104.272 175.515 103.628 174.72 103.121C173.924 102.613 173.027 102.216 172.029 101.928C171.025 101.639 170.018 101.359 169.009 101.09C167.766 100.764 166.522 100.443 165.277 100.126C164.211 99.8549 163.221 99.5335 162.308 99.1612C161.428 98.7888 160.725 98.2559 160.201 97.5622C159.676 96.8684 159.414 95.8785 159.414 94.5924C159.414 94.3556 159.482 93.9324 159.617 93.3234C159.752 92.714 160.074 92.0964 160.582 91.4702C161.089 90.8444 161.868 90.2859 162.917 89.7951C163.966 89.3045 165.404 89.0589 167.232 89.0589C168.484 89.0589 169.626 89.1945 170.658 89.4651C171.691 89.736 172.579 90.1674 173.324 90.7597C174.068 91.352 174.643 92.1049 175.05 93.0187C175.456 93.9327 175.659 95.0494 175.659 96.3693Z" fill="#F3F3F3"/>
<path d="M19.556 222.791H30.1286V226.315H23.4326V232.835H28.7542V236.359H23.4326V243.936H30.1286V247.46H19.556V222.791ZM35.8461 234.843L31.5818 222.791H35.6699L38.2778 230.755H38.3483L41.0267 222.791H44.6919L40.4276 234.843L44.9033 247.46H40.8153L37.9959 238.861H37.9254L35.0356 247.46H31.3704L35.8461 234.843ZM46.7447 222.791H52.454C54.3805 222.791 55.8255 223.307 56.7887 224.341C57.752 225.375 58.2337 226.89 58.2337 228.887V231.319C58.2337 233.316 57.752 234.832 56.7887 235.865C55.8255 236.899 54.3805 237.416 52.454 237.416H50.6214V247.46H46.7447V222.791ZM52.454 233.892C53.0883 233.892 53.5582 233.716 53.8637 233.363C54.1926 233.011 54.357 232.412 54.357 231.566V228.641C54.357 227.795 54.1926 227.196 53.8637 226.843C53.5582 226.491 53.0883 226.315 52.454 226.315H50.6214V233.892H52.454ZM60.3391 222.791H66.0836C68.0806 222.791 69.5373 223.261 70.4536 224.2C71.3699 225.117 71.828 226.538 71.828 228.465V229.98C71.828 232.541 70.9822 234.162 69.2906 234.843V234.914C70.2304 235.196 70.8883 235.771 71.2642 236.641C71.6636 237.51 71.8633 238.673 71.8633 240.13V244.465C71.8633 245.169 71.8868 245.745 71.9338 246.191C71.9808 246.614 72.0982 247.037 72.2862 247.46H68.3391C68.1981 247.061 68.1041 246.685 68.0571 246.332C68.0101 245.98 67.9867 245.346 67.9867 244.429V239.918C67.9867 238.791 67.7987 238.003 67.4228 237.557C67.0704 237.111 66.4477 236.887 65.5549 236.887H64.2157V247.46H60.3391V222.791ZM65.6254 233.363C66.4008 233.363 66.9764 233.164 67.3523 232.764C67.7517 232.365 67.9514 231.695 67.9514 230.755V228.852C67.9514 227.959 67.7869 227.313 67.458 226.914C67.1526 226.515 66.6592 226.315 65.9779 226.315H64.2157V233.363H65.6254ZM74.553 222.791H85.1256V226.315H78.4296V232.835H83.7512V236.359H78.4296V243.936H85.1256V247.46H74.553V222.791ZM92.4642 247.813C90.5846 247.813 89.1632 247.284 88.1999 246.227C87.2366 245.146 86.755 243.607 86.755 241.61V240.2H90.4202V241.892C90.4202 243.489 91.0898 244.288 92.429 244.288C93.0868 244.288 93.5802 244.1 93.9091 243.724C94.2616 243.325 94.4378 242.691 94.4378 241.821C94.4378 240.788 94.2028 239.883 93.7329 239.108C93.263 238.309 92.3937 237.357 91.125 236.253C89.5274 234.843 88.4114 233.575 87.777 232.447C87.1427 231.296 86.8255 230.003 86.8255 228.57C86.8255 226.62 87.3189 225.117 88.3057 224.059C89.2924 222.979 90.7256 222.438 92.6052 222.438C94.4613 222.438 95.8592 222.979 96.799 224.059C97.7623 225.117 98.2439 226.644 98.2439 228.641V229.663H94.5788V228.394C94.5788 227.548 94.4143 226.937 94.0854 226.562C93.7564 226.162 93.2748 225.962 92.6404 225.962C91.3482 225.962 90.7021 226.749 90.7021 228.324C90.7021 229.216 90.9371 230.05 91.407 230.826C91.9003 231.601 92.7814 232.541 94.0501 233.645C95.6713 235.055 96.7873 236.335 97.3981 237.487C98.009 238.638 98.3144 239.989 98.3144 241.539C98.3144 243.56 97.8093 245.111 96.799 246.191C95.8122 247.272 94.3673 247.813 92.4642 247.813ZM105.577 247.813C103.697 247.813 102.276 247.284 101.312 246.227C100.349 245.146 99.8675 243.607 99.8675 241.61V240.2H103.533V241.892C103.533 243.489 104.202 244.288 105.542 244.288C106.199 244.288 106.693 244.1 107.022 243.724C107.374 243.325 107.55 242.691 107.55 241.821C107.55 240.788 107.315 239.883 106.845 239.108C106.376 238.309 105.506 237.357 104.238 236.253C102.64 234.843 101.524 233.575 100.89 232.447C100.255 231.296 99.938 230.003 99.938 228.57C99.938 226.62 100.431 225.117 101.418 224.059C102.405 222.979 103.838 222.438 105.718 222.438C107.574 222.438 108.972 222.979 109.912 224.059C110.875 225.117 111.356 226.644 111.356 228.641V229.663H107.691V228.394C107.691 227.548 107.527 226.937 107.198 226.562C106.869 226.162 106.387 225.962 105.753 225.962C104.461 225.962 103.815 226.749 103.815 228.324C103.815 229.216 104.05 230.05 104.52 230.826C105.013 231.601 105.894 232.541 107.163 233.645C108.784 235.055 109.9 236.335 110.511 237.487C111.122 238.638 111.427 239.989 111.427 241.539C111.427 243.56 110.922 245.111 109.912 246.191C108.925 247.272 107.48 247.813 105.577 247.813Z" fill="#F3F3F3"/>
<path d="M18.8972 205.003H20.3294C21.1191 205.003 21.7257 205.118 22.1492 205.348C22.5728 205.57 22.8635 205.922 23.0215 206.403C23.1866 206.884 23.2692 207.552 23.2692 208.406C23.2692 209.196 23.1974 209.827 23.0538 210.301C22.9102 210.768 22.6302 211.127 22.2139 211.378C21.7975 211.629 21.1873 211.755 20.3832 211.755H18.8972V205.003ZM20.3832 211.227C21.0437 211.227 21.5319 211.13 21.8477 210.936C22.1636 210.743 22.3682 210.455 22.4615 210.075C22.5549 209.687 22.6015 209.131 22.6015 208.406C22.6015 207.659 22.5441 207.089 22.4292 206.694C22.3215 206.292 22.1062 205.997 21.7831 205.811C21.4601 205.624 20.9755 205.531 20.3294 205.531H19.5648V211.227H20.3832ZM26.1494 211.755V205.003H29.7461L29.6276 205.531H26.8171V207.954H29.4553V208.46H26.8171V211.227H29.6815L29.7676 211.755H26.1494ZM31.9704 205.003H32.6703C32.9216 205.972 33.2518 207.182 33.661 208.632C33.9913 209.809 34.2138 210.617 34.3287 211.055C34.4579 210.567 34.6481 209.878 34.8994 208.987C35.3876 207.221 35.7465 205.893 35.9762 205.003H36.687L34.7486 211.755H33.9195L31.9704 205.003ZM39.2342 211.755V205.003H42.8309L42.7124 205.531H39.9019V207.954H42.5401V208.46H39.9019V211.227H42.7663L42.8524 211.755H39.2342ZM45.5506 211.755V205.003H46.2182V211.227H48.8026L48.8995 211.755H45.5506ZM53.5373 211.809C52.9199 211.809 52.4389 211.676 52.0943 211.41C51.7569 211.145 51.52 210.764 51.3836 210.269C51.2544 209.766 51.1898 209.127 51.1898 208.352C51.1898 207.584 51.258 206.952 51.3944 206.457C51.538 205.954 51.7821 205.574 52.1267 205.315C52.4712 205.05 52.9415 204.917 53.5373 204.917C54.1332 204.917 54.6034 205.05 54.948 205.315C55.2926 205.574 55.5367 205.954 55.6802 206.457C55.8238 206.952 55.8956 207.584 55.8956 208.352C55.8956 209.135 55.8274 209.773 55.691 210.269C55.5618 210.764 55.3249 211.145 54.9803 211.41C54.6357 211.676 54.1547 211.809 53.5373 211.809ZM53.5373 211.249C53.9752 211.249 54.3162 211.148 54.5603 210.947C54.8044 210.746 54.9767 210.441 55.0772 210.032C55.1777 209.615 55.228 209.059 55.228 208.363C55.228 207.666 55.1741 207.11 55.0664 206.694C54.9659 206.277 54.7936 205.972 54.5495 205.778C54.3055 205.577 53.9681 205.477 53.5373 205.477C53.1066 205.477 52.7692 205.577 52.5251 205.778C52.2882 205.972 52.1159 206.277 52.0082 206.694C51.9077 207.11 51.8574 207.666 51.8574 208.363C51.8574 209.059 51.9077 209.615 52.0082 210.032C52.1087 210.441 52.281 210.746 52.5251 210.947C52.7692 211.148 53.1066 211.249 53.5373 211.249ZM58.7616 205.003H60.5922C61.3244 205.003 61.8736 205.15 62.2398 205.445C62.6131 205.739 62.7997 206.256 62.7997 206.995C62.7997 207.519 62.6956 207.921 62.4874 208.201C62.2792 208.481 61.9741 208.675 61.5721 208.783C61.1773 208.883 60.6532 208.933 59.9999 208.933H59.4292V211.755H58.7616V205.003ZM59.8707 208.384C60.4737 208.384 60.9224 208.363 61.2168 208.32C61.5111 208.269 61.7336 208.147 61.8844 207.954C62.0423 207.753 62.1213 207.437 62.1213 207.006C62.1213 206.446 62.0029 206.062 61.766 205.854C61.5362 205.638 61.1593 205.531 60.6353 205.531H59.4292V208.384H59.8707ZM65.3182 211.755L65.8459 205.003H66.5889L68.1826 208.697L69.7225 205.003H70.4655L71.0363 211.755H70.4225L69.9163 205.972L68.4841 209.45H67.8811L66.3951 205.961L65.9428 211.755H65.3182ZM74.0127 211.755V205.003H77.6093L77.4909 205.531H74.6803V207.954H77.3186V208.46H74.6803V211.227H77.5447L77.6309 211.755H74.0127ZM80.329 211.755V205.003H81.0397L84.421 210.603V205.003H85.0348V211.755H84.3672L80.9643 206.069V211.755H80.329ZM89.2816 211.755V205.531H87.4725V205.003H91.7906V205.531H89.96V211.755H89.2816Z" fill="#F3F3F3"/>
</g>
<rect x="2.9374" y="3.05263" width="190.895" height="256.484" rx="22.0263" stroke="#34C4CD" stroke-width="4.89474"/>
<defs>
<clipPath id="clip0_98_1078">
<rect x="5.38477" y="5.5" width="186" height="251.589" rx="19.5789" fill="white"/>
</clipPath>
</defs>
</svg>
