<svg width="197" height="262" viewBox="0 0 197 262" fill="none" xmlns="http://www.w3.org/2000/svg">
<g clip-path="url(#clip0_98_1086)">
<rect x="5.15405" y="5.5" width="186" height="251.589" rx="19.5789" fill="#222222" fill-opacity="0.6"/>
<g clip-path="url(#clip1_98_1086)">
<path d="M75.9874 164.5C87.4874 164.5 96.8207 155.167 96.8207 143.667V122.833H75.9874C64.4874 122.833 55.1541 132.167 55.1541 143.667C55.1541 155.167 64.4874 164.5 75.9874 164.5Z" fill="#0ACF83"/>
<path d="M55.1541 102C55.1541 90.5 64.4874 81.1666 75.9874 81.1666H96.8207V122.833H75.9874C64.4874 122.833 55.1541 113.5 55.1541 102Z" fill="#A259FF"/>
<path d="M55.1541 60.3333C55.1541 48.8333 64.4874 39.5 75.9874 39.5H96.8207V81.1667H75.9874C64.4874 81.1667 55.1541 71.8333 55.1541 60.3333Z" fill="#F24E1E"/>
<path d="M96.8207 39.5H117.654C129.154 39.5 138.487 48.8333 138.487 60.3333C138.487 71.8333 129.154 81.1667 117.654 81.1667H96.8207V39.5Z" fill="#FF7262"/>
<path d="M138.487 102C138.487 113.5 129.154 122.833 117.654 122.833C106.154 122.833 96.8207 113.5 96.8207 102C96.8207 90.5 106.154 81.1666 117.654 81.1666C129.154 81.1666 138.487 90.5 138.487 102Z" fill="#1ABCFE"/>
</g>
<path d="M19.3253 222.791H29.5808V226.315H23.2019V233.187H28.2063V236.711H23.2019V247.46H19.3253V222.791ZM31.4398 222.791H35.3164V247.46H31.4398V222.791ZM43.7175 247.813C41.8379 247.813 40.4048 247.284 39.418 246.227C38.4312 245.146 37.9378 243.607 37.9378 241.61V228.641C37.9378 226.644 38.4312 225.117 39.418 224.059C40.4048 222.979 41.8379 222.438 43.7175 222.438C45.5971 222.438 47.0303 222.979 48.0171 224.059C49.0038 225.117 49.4972 226.644 49.4972 228.641V230.755H45.832V228.394C45.832 226.773 45.1624 225.962 43.8232 225.962C42.484 225.962 41.8144 226.773 41.8144 228.394V241.892C41.8144 243.489 42.484 244.288 43.8232 244.288C45.1624 244.288 45.832 243.489 45.832 241.892V237.064H43.8937V233.539H49.4972V241.61C49.4972 243.607 49.0038 245.146 48.0171 246.227C47.0303 247.284 45.5971 247.813 43.7175 247.813ZM51.9862 222.791H57.5192L59.9862 240.447H60.0566L62.5236 222.791H68.0566V247.46H64.3914V228.782H64.3209L61.5016 247.46H58.2593L55.4399 228.782H55.3694V247.46H51.9862V222.791ZM73.9451 222.791H79.1961L83.2137 247.46H79.3371L78.6323 242.561V242.632H74.227L73.5222 247.46H69.9275L73.9451 222.791ZM78.1741 239.284L76.4472 227.09H76.3768L74.6851 239.284H78.1741Z" fill="#F3F3F3"/>
<path d="M18.6665 205.003H20.0987C20.8884 205.003 21.495 205.118 21.9185 205.348C22.3421 205.57 22.6328 205.922 22.7908 206.403C22.9559 206.884 23.0384 207.552 23.0384 208.406C23.0384 209.196 22.9667 209.827 22.8231 210.301C22.6795 210.768 22.3995 211.127 21.9831 211.378C21.5668 211.629 20.9566 211.755 20.1525 211.755H18.6665V205.003ZM20.1525 211.227C20.813 211.227 21.3011 211.13 21.617 210.936C21.9329 210.743 22.1375 210.455 22.2308 210.075C22.3241 209.687 22.3708 209.131 22.3708 208.406C22.3708 207.659 22.3134 207.089 22.1985 206.694C22.0908 206.292 21.8755 205.997 21.5524 205.811C21.2294 205.624 20.7448 205.531 20.0987 205.531H19.3341V211.227H20.1525ZM25.9187 211.755V205.003H29.5154L29.3969 205.531H26.5863V207.954H29.2246V208.46H26.5863V211.227H29.4507L29.5369 211.755H25.9187ZM33.9257 211.809C33.136 211.809 32.4935 211.672 31.9981 211.399L32.1489 210.85C32.436 210.972 32.7088 211.069 32.9673 211.141C33.2329 211.213 33.5524 211.249 33.9257 211.249C34.3779 211.249 34.7297 211.137 34.981 210.915C35.2394 210.692 35.3686 210.351 35.3686 209.892C35.3686 209.626 35.322 209.418 35.2286 209.267C35.1353 209.109 35.0025 208.984 34.8302 208.89C34.6579 208.797 34.4067 208.697 34.0764 208.589L33.4303 208.374C32.9565 208.208 32.5976 207.997 32.3535 207.738C32.1166 207.473 31.9981 207.114 31.9981 206.661C31.9981 206.058 32.1884 205.617 32.5688 205.337C32.9493 205.057 33.4483 204.917 34.0657 204.917C34.7548 204.917 35.3579 205.025 35.8747 205.24L35.7563 205.778C35.505 205.685 35.2502 205.613 34.9917 205.563C34.7405 205.506 34.4605 205.477 34.1518 205.477C33.1683 205.477 32.6765 205.864 32.6765 206.64C32.6765 206.934 32.7411 207.16 32.8704 207.318C32.9996 207.469 33.258 207.613 33.6457 207.749L34.2379 207.964C34.683 208.122 35.0097 208.255 35.2179 208.363C35.4332 208.47 35.6235 208.646 35.7886 208.89C35.9537 209.135 36.0363 209.472 36.0363 209.903C36.0363 210.513 35.846 210.983 35.4655 211.313C35.0851 211.644 34.5718 211.809 33.9257 211.809ZM38.4729 211.755V211.227H39.4852V205.531H38.4729V205.003H41.1327V205.531H40.1636V211.227H41.1543V211.755H38.4729ZM46.2672 211.809C45.657 211.809 45.1688 211.687 44.8027 211.443C44.4366 211.191 44.1745 210.814 44.0166 210.312C43.8587 209.809 43.7797 209.152 43.7797 208.341C43.7797 207.128 43.9915 206.256 44.415 205.725C44.8458 205.186 45.4883 204.917 46.3426 204.917C46.9672 204.917 47.5487 205.046 48.0871 205.305V206.586H47.5056V205.671C47.3764 205.613 47.2077 205.567 46.9995 205.531C46.7985 205.495 46.601 205.477 46.4072 205.477C45.9765 205.477 45.6175 205.552 45.3304 205.703C45.0504 205.854 44.8314 206.137 44.6735 206.554C44.5155 206.963 44.4366 207.541 44.4366 208.287C44.4366 209.005 44.494 209.58 44.6089 210.01C44.7237 210.434 44.914 210.746 45.1796 210.947C45.4524 211.148 45.8257 211.249 46.2995 211.249C46.5436 211.249 46.7841 211.227 47.021 211.184C47.2651 211.141 47.4769 211.076 47.6563 210.99V208.772H46.418V208.255H48.2701V211.27C47.9973 211.421 47.7066 211.55 47.3979 211.658C47.0892 211.758 46.7123 211.809 46.2672 211.809ZM51.205 211.755V205.003H51.9157L55.297 210.603V205.003H55.9108V211.755H55.2432L51.8403 206.069V211.755H51.205Z" fill="#F3F3F3"/>
</g>
<rect x="2.70668" y="3.05263" width="190.895" height="256.484" rx="22.0263" stroke="#FCC439" stroke-width="4.89474"/>
<defs>
<clipPath id="clip0_98_1086">
<rect x="5.15405" y="5.5" width="186" height="251.589" rx="19.5789" fill="white"/>
</clipPath>
<clipPath id="clip1_98_1086">
<rect width="83.3333" height="125" fill="white" transform="translate(55.1541 39.5)"/>
</clipPath>
</defs>
</svg>
