<svg width="197" height="262" viewBox="0 0 197 262" fill="none" xmlns="http://www.w3.org/2000/svg">
<g clip-path="url(#clip0_98_1141)">
<rect x="5.84619" y="5.5" width="186" height="251.589" rx="19.5789" fill="#222222" fill-opacity="0.6"/>
<path d="M62.5862 124.854C76.4633 125.8 79.429 125.457 79.429 128.266C79.429 133.98 60.7005 133.997 60.7005 128.7C60.7033 127.246 61.6405 126.014 62.5862 124.854V124.854ZM70.5719 91.5286C61.3462 91.5286 60.9291 104.234 70.3576 104.234C79.6462 104.234 79.4176 91.5286 70.5719 91.5286V91.5286ZM161.846 52.2143V152.786C161.846 156.423 160.401 159.911 157.829 162.483C155.257 165.055 151.769 166.5 148.132 166.5H47.5605C43.9232 166.5 40.4349 165.055 37.863 162.483C35.2911 159.911 33.8462 156.423 33.8462 152.786V52.2143C33.8462 48.577 35.2911 45.0887 37.863 42.5168C40.4349 39.9449 43.9232 38.5 47.5605 38.5H148.132C151.769 38.5 155.257 39.9449 157.829 42.5168C160.401 45.0887 161.846 48.577 161.846 52.2143V52.2143ZM96.9891 72.0171C96.9891 76.1571 99.3833 78.5543 103.52 78.5543C107.732 78.5543 110.129 76.1571 110.129 72.0171C110.129 67.8771 107.738 65.6429 103.526 65.6429C99.3891 65.6429 96.9891 67.8829 96.9891 72.0171ZM90.7548 85.0714H76.5976C69.4548 83.2 53.2948 83.6857 53.2948 98.4286C53.2948 103.8 55.9805 107.571 59.5376 109.317C55.0548 113.423 52.9319 115.357 52.9319 118.1C52.9319 120.063 53.7291 121.877 56.1262 122.889C53.5833 125.289 52.1262 127.026 52.1262 130.294C52.1319 136.029 57.1405 139.357 70.2805 139.357C82.9148 139.357 90.2433 134.64 90.2433 126.291C90.2433 115.814 82.1776 116.2 63.1662 115.04L65.5605 111.203C70.4176 112.557 86.7576 112.983 86.7576 99.08C86.7576 95.74 85.3776 93.4171 84.0719 91.7457L90.7519 91.2371L90.7548 85.0714ZM114.852 116.454L111.138 115.946C110.046 115.8 109.975 115.66 109.975 114.491V84.3629H94.9462L94.1491 90.24C98.6491 91.8257 99.0062 91.6286 99.0062 93.1457V114.5C99.0062 116.106 98.9176 115.809 94.1491 116.463V122.194H114.84L114.852 116.454ZM143.56 119.357L141.598 112.966C129.903 117.357 130.783 109.42 130.783 108.186V90.8371H141.598V83.5771H131.363C130.543 83.5771 130.792 84.2971 130.792 72.54H123.883C123.086 80.4543 120.546 83.6486 114.169 84.3743V90.8371C120.018 90.8371 119.832 90.5943 119.832 91.5629V110.583C119.832 118.789 123.098 122.271 131.738 122.271C135.866 122.271 140.438 120.891 143.56 119.357V119.357Z" fill="#F3F3F3"/>
<path d="M25.5152 247.813C23.6356 247.813 22.2024 247.284 21.2157 246.227C20.2289 245.146 19.7355 243.607 19.7355 241.61V228.641C19.7355 226.644 20.2289 225.117 21.2157 224.059C22.2024 222.979 23.6356 222.438 25.5152 222.438C27.3948 222.438 28.828 222.979 29.8147 224.059C30.8015 225.117 31.2949 226.644 31.2949 228.641V230.755H27.6297V228.394C27.6297 226.773 26.9601 225.962 25.6209 225.962C24.2817 225.962 23.6121 226.773 23.6121 228.394V241.892C23.6121 243.489 24.2817 244.288 25.6209 244.288C26.9601 244.288 27.6297 243.489 27.6297 241.892V237.064H25.6914V233.539H31.2949V241.61C31.2949 243.607 30.8015 245.146 29.8147 246.227C28.828 247.284 27.3948 247.813 25.5152 247.813ZM33.7839 222.791H37.6605V247.46H33.7839V222.791ZM43.5947 226.315H39.5418V222.791H51.5242V226.315H47.4713V247.46H43.5947V226.315Z" fill="#F3F3F3"/>
<path d="M19.3586 205.003H20.7908C21.5805 205.003 22.1871 205.118 22.6107 205.348C23.0342 205.57 23.325 205.922 23.4829 206.403C23.648 206.884 23.7306 207.552 23.7306 208.406C23.7306 209.196 23.6588 209.827 23.5152 210.301C23.3716 210.768 23.0917 211.127 22.6753 211.378C22.2589 211.629 21.6487 211.755 20.8446 211.755H19.3586V205.003ZM20.8446 211.227C21.5051 211.227 21.9933 211.13 22.3092 210.936C22.625 210.743 22.8296 210.455 22.923 210.075C23.0163 209.687 23.0629 209.131 23.0629 208.406C23.0629 207.659 23.0055 207.089 22.8906 206.694C22.783 206.292 22.5676 205.997 22.2445 205.811C21.9215 205.624 21.4369 205.531 20.7908 205.531H20.0262V211.227H20.8446ZM26.6108 211.755V205.003H30.2075L30.089 205.531H27.2785V207.954H29.9168V208.46H27.2785V211.227H30.1429L30.229 211.755H26.6108ZM32.4318 205.003H33.1318C33.383 205.972 33.7133 207.182 34.1225 208.632C34.4527 209.809 34.6752 210.617 34.7901 211.055C34.9193 210.567 35.1096 209.878 35.3608 208.987C35.849 207.221 36.2079 205.893 36.4377 205.003H37.1484L35.2101 211.755H34.3809L32.4318 205.003ZM39.6957 211.755V205.003H43.2923L43.1739 205.531H40.3633V207.954H43.0016V208.46H40.3633V211.227H43.2277L43.3139 211.755H39.6957ZM46.012 211.755V205.003H46.6796V211.227H49.264L49.361 211.755H46.012ZM53.9987 211.809C53.3814 211.809 52.9004 211.676 52.5558 211.41C52.2184 211.145 51.9815 210.764 51.8451 210.269C51.7158 209.766 51.6512 209.127 51.6512 208.352C51.6512 207.584 51.7194 206.952 51.8558 206.457C51.9994 205.954 52.2435 205.574 52.5881 205.315C52.9327 205.05 53.4029 204.917 53.9987 204.917C54.5946 204.917 55.0648 205.05 55.4094 205.315C55.754 205.574 55.9981 205.954 56.1417 206.457C56.2852 206.952 56.357 207.584 56.357 208.352C56.357 209.135 56.2888 209.773 56.1524 210.269C56.0232 210.764 55.7863 211.145 55.4417 211.41C55.0971 211.676 54.6161 211.809 53.9987 211.809ZM53.9987 211.249C54.4367 211.249 54.7777 211.148 55.0217 210.947C55.2658 210.746 55.4381 210.441 55.5386 210.032C55.6391 209.615 55.6894 209.059 55.6894 208.363C55.6894 207.666 55.6355 207.11 55.5279 206.694C55.4274 206.277 55.2551 205.972 55.011 205.778C54.7669 205.577 54.4295 205.477 53.9987 205.477C53.568 205.477 53.2306 205.577 52.9865 205.778C52.7496 205.972 52.5773 206.277 52.4696 206.694C52.3691 207.11 52.3189 207.666 52.3189 208.363C52.3189 209.059 52.3691 209.615 52.4696 210.032C52.5701 210.441 52.7424 210.746 52.9865 210.947C53.2306 211.148 53.568 211.249 53.9987 211.249ZM59.223 205.003H61.0536C61.7859 205.003 62.3351 205.15 62.7012 205.445C63.0745 205.739 63.2611 206.256 63.2611 206.995C63.2611 207.519 63.1571 207.921 62.9489 208.201C62.7407 208.481 62.4356 208.675 62.0335 208.783C61.6387 208.883 61.1146 208.933 60.4614 208.933H59.8906V211.755H59.223V205.003ZM60.3321 208.384C60.9352 208.384 61.3839 208.363 61.6782 208.32C61.9725 208.269 62.1951 208.147 62.3458 207.954C62.5038 207.753 62.5827 207.437 62.5827 207.006C62.5827 206.446 62.4643 206.062 62.2274 205.854C61.9977 205.638 61.6208 205.531 61.0967 205.531H59.8906V208.384H60.3321ZM65.7797 211.755L66.3073 205.003H67.0503L68.6441 208.697L70.1839 205.003H70.927L71.4977 211.755H70.8839L70.3778 205.972L68.9456 209.45H68.3425L66.8565 205.961L66.4042 211.755H65.7797ZM74.4741 211.755V205.003H78.0708L77.9523 205.531H75.1417V207.954H77.78V208.46H75.1417V211.227H78.0061L78.0923 211.755H74.4741ZM80.7904 211.755V205.003H81.5011L84.8824 210.603V205.003H85.4962V211.755H84.8286L81.4258 206.069V211.755H80.7904ZM89.743 211.755V205.531H87.9339V205.003H92.252V205.531H90.4214V211.755H89.743Z" fill="#F3F3F3"/>
</g>
<rect x="3.39882" y="3.05263" width="190.895" height="256.484" rx="22.0263" stroke="#34C4CD" stroke-width="4.89474"/>
<defs>
<clipPath id="clip0_98_1141">
<rect x="5.84619" y="5.5" width="186" height="251.589" rx="19.5789" fill="white"/>
</clipPath>
</defs>
</svg>
