<svg width="196" height="262" viewBox="0 0 196 262" fill="none" xmlns="http://www.w3.org/2000/svg">
<g clip-path="url(#clip0_98_1149)">
<rect x="5.0769" y="5.5" width="186" height="251.589" rx="19.5789" fill="#222222" fill-opacity="0.6"/>
<g clip-path="url(#clip1_98_1149)">
<path d="M143.521 61.3756L135.023 156.577L96.8232 167.166L58.7289 156.591L50.2396 61.3756H143.521Z" fill="#E44D26"/>
<path d="M96.8802 159.072L127.747 150.514L135.009 69.1608H96.8802V159.072Z" fill="#F16529"/>
<path d="M80.3601 92.5167H96.8802V80.8389H67.5978L67.8772 83.9718L70.7475 116.153H96.8802V104.475H81.4275L80.3601 92.5167V92.5167ZM82.9921 121.992H71.2693L72.9052 140.328L96.8265 146.968L96.8802 146.953V134.804L96.829 134.817L83.8236 131.305L82.9921 121.992Z" fill="#EBEBEB"/>
<path d="M58.9183 35.5H64.8529V41.3632H70.2817V35.5H76.2166V53.2553H70.282V47.3098H64.8532V53.2553H58.9187L58.9183 35.5ZM84.0203 41.3881H78.7966V35.5H95.1829V41.3881H89.9559V53.2553H84.0214V41.3881H84.0203ZM97.7834 35.5H103.971L107.778 41.7387L111.58 35.5H117.771V53.2553H111.861V44.4548L107.778 50.7678H107.675L103.59 44.4548V53.2553H97.7834V35.5ZM120.724 35.5H126.661V47.3866H135.006V53.2553H120.724L120.724 35.5Z" fill="#F3F3F3"/>
<path d="M96.84 116.153H111.22L109.864 131.298L96.8396 134.813V146.963L120.78 140.328L120.955 138.355L123.7 107.611L123.985 104.475H96.84V116.153ZM96.84 92.4882V92.5167H125.047L125.281 89.8921L125.814 83.9718L126.093 80.8389H96.84V92.4886V92.4882Z" fill="white"/>
</g>
<path d="M19.2481 222.791H23.1248V232.835H27.2834V222.791H31.16V247.46H27.2834V236.359H23.1248V247.46H19.2481V222.791ZM37.0779 226.315H33.0251V222.791H45.0074V226.315H40.9545V247.46H37.0779V226.315ZM46.8843 222.791H52.4173L54.8843 240.447H54.9547L57.4217 222.791H62.9547V247.46H59.2895V228.782H59.219L56.3997 247.46H53.1574L50.338 228.782H50.2675V247.46H46.8843V222.791ZM65.8476 222.791H69.7242V243.936H76.103V247.46H65.8476V222.791Z" fill="#F3F3F3"/>
<path d="M18.5893 205.003H20.0215C20.8112 205.003 21.4178 205.118 21.8414 205.348C22.2649 205.57 22.5557 205.922 22.7136 206.403C22.8787 206.884 22.9613 207.552 22.9613 208.406C22.9613 209.196 22.8895 209.827 22.7459 210.301C22.6023 210.768 22.3224 211.127 21.906 211.378C21.4896 211.629 20.8794 211.755 20.0754 211.755H18.5893V205.003ZM20.0754 211.227C20.7358 211.227 21.224 211.13 21.5399 210.936C21.8557 210.743 22.0603 210.455 22.1537 210.075C22.247 209.687 22.2937 209.131 22.2937 208.406C22.2937 207.659 22.2362 207.089 22.1214 206.694C22.0137 206.292 21.7983 205.997 21.4753 205.811C21.1522 205.624 20.6676 205.531 20.0215 205.531H19.257V211.227H20.0754ZM25.8416 211.755V205.003H29.4382L29.3198 205.531H26.5092V207.954H29.1475V208.46H26.5092V211.227H29.3736L29.4597 211.755H25.8416ZM31.6625 205.003H32.3625C32.6137 205.972 32.944 207.182 33.3532 208.632C33.6834 209.809 33.9059 210.617 34.0208 211.055C34.15 210.567 34.3403 209.878 34.5915 208.987C35.0797 207.221 35.4387 205.893 35.6684 205.003H36.3791L34.4408 211.755H33.6116L31.6625 205.003ZM38.9264 211.755V205.003H42.523L42.4046 205.531H39.594V207.954H42.2323V208.46H39.594V211.227H42.4584L42.5446 211.755H38.9264ZM45.2427 211.755V205.003H45.9103V211.227H48.4948L48.5917 211.755H45.2427ZM53.2295 211.809C52.6121 211.809 52.1311 211.676 51.7865 211.41C51.4491 211.145 51.2122 210.764 51.0758 210.269C50.9465 209.766 50.8819 209.127 50.8819 208.352C50.8819 207.584 50.9501 206.952 51.0865 206.457C51.2301 205.954 51.4742 205.574 51.8188 205.315C52.1634 205.05 52.6336 204.917 53.2295 204.917C53.8253 204.917 54.2955 205.05 54.6401 205.315C54.9847 205.574 55.2288 205.954 55.3724 206.457C55.5159 206.952 55.5877 207.584 55.5877 208.352C55.5877 209.135 55.5195 209.773 55.3831 210.269C55.2539 210.764 55.017 211.145 54.6724 211.41C54.3278 211.676 53.8468 211.809 53.2295 211.809ZM53.2295 211.249C53.6674 211.249 54.0084 211.148 54.2525 210.947C54.4965 210.746 54.6688 210.441 54.7693 210.032C54.8698 209.615 54.9201 209.059 54.9201 208.363C54.9201 207.666 54.8663 207.11 54.7586 206.694C54.6581 206.277 54.4858 205.972 54.2417 205.778C53.9976 205.577 53.6602 205.477 53.2295 205.477C52.7987 205.477 52.4613 205.577 52.2172 205.778C51.9803 205.972 51.808 206.277 51.7003 206.694C51.5998 207.11 51.5496 207.666 51.5496 208.363C51.5496 209.059 51.5998 209.615 51.7003 210.032C51.8008 210.441 51.9731 210.746 52.2172 210.947C52.4613 211.148 52.7987 211.249 53.2295 211.249ZM58.4537 205.003H60.2843C61.0166 205.003 61.5658 205.15 61.9319 205.445C62.3052 205.739 62.4919 206.256 62.4919 206.995C62.4919 207.519 62.3878 207.921 62.1796 208.201C61.9714 208.481 61.6663 208.675 61.2643 208.783C60.8694 208.883 60.3454 208.933 59.6921 208.933H59.1213V211.755H58.4537V205.003ZM59.5628 208.384C60.1659 208.384 60.6146 208.363 60.9089 208.32C61.2032 208.269 61.4258 208.147 61.5765 207.954C61.7345 207.753 61.8134 207.437 61.8134 207.006C61.8134 206.446 61.695 206.062 61.4581 205.854C61.2284 205.638 60.8515 205.531 60.3274 205.531H59.1213V208.384H59.5628ZM65.0104 211.755L65.538 205.003H66.281L67.8748 208.697L69.4147 205.003H70.1577L70.7284 211.755H70.1146L69.6085 205.972L68.1763 209.45H67.5733L66.0872 205.961L65.6349 211.755H65.0104ZM73.7048 211.755V205.003H77.3015L77.183 205.531H74.3725V207.954H77.0107V208.46H74.3725V211.227H77.2369L77.323 211.755H73.7048ZM80.0211 211.755V205.003H80.7318L84.1131 210.603V205.003H84.7269V211.755H84.0593L80.6565 206.069V211.755H80.0211ZM88.9737 211.755V205.531H87.1646V205.003H91.4827V205.531H89.6521V211.755H88.9737Z" fill="#F3F3F3"/>
</g>
<rect x="2.62954" y="3.05263" width="190.895" height="256.484" rx="22.0263" stroke="#34C4CD" stroke-width="4.89474"/>
<defs>
<clipPath id="clip0_98_1149">
<rect x="5.0769" y="5.5" width="186" height="251.589" rx="19.5789" fill="white"/>
</clipPath>
<clipPath id="clip1_98_1149">
<rect width="93.6066" height="132" fill="white" transform="translate(50.0769 35.5)"/>
</clipPath>
</defs>
</svg>
