<svg width="196" height="262" viewBox="0 0 196 262" fill="none" xmlns="http://www.w3.org/2000/svg">
<g clip-path="url(#clip0_98_1099)">
<rect x="4.92334" y="5.5" width="186" height="251.589" rx="19.5789" fill="#222222" fill-opacity="0.6"/>
<g clip-path="url(#clip1_98_1099)">
<path d="M33.9233 40.0664V161.934H158.923V40.0664H33.9233ZM39.1304 45.2734H153.712V156.723H39.1304V45.2734ZM77.2788 109.078L73.1499 124.684C73.0679 125.133 72.9038 125.211 72.396 125.211H64.7476C64.2202 125.211 64.1382 125.047 64.2202 124.457L79.0093 72.6602C79.2749 71.7227 79.4351 70.8906 79.5171 68.3047C79.5171 67.957 79.7007 67.7969 79.9663 67.7969H90.8726C91.2202 67.7969 91.3999 67.8789 91.4819 68.3047L108.064 124.539C108.166 124.965 108.064 125.211 107.638 125.211H99.0522C98.603 125.211 98.3608 125.109 98.2788 124.762L93.9663 109.074H77.2632L77.2788 109.078ZM91.8062 100.613C90.3413 94.8555 86.9038 82.2422 85.6226 76.1367H85.521C84.4233 82.2188 81.6538 92.5352 79.521 100.613H91.8062ZM115.244 71.6641C115.244 68.3086 117.564 66.332 120.576 66.332C123.751 66.332 125.908 68.4883 125.908 71.6641C125.908 75.1016 123.669 76.9961 120.474 76.9961C117.361 76.9961 115.224 75.1055 115.224 71.6641H115.244ZM115.833 83.5039C115.833 83.0977 115.998 82.9336 116.423 82.9336H124.603C125.072 82.9336 125.232 83.0977 125.232 83.543V124.66C125.232 125.086 125.15 125.25 124.623 125.25H116.564C116.037 125.25 115.873 125.004 115.873 124.578V83.5L115.833 83.5039Z" fill="#F29E39"/>
</g>
<path d="M19.0946 222.791H22.9712V247.46H19.0946V222.791ZM25.8746 222.791H29.7512V243.936H36.13V247.46H25.8746V222.791ZM37.989 222.791H41.8657V243.936H48.2445V247.46H37.989V222.791ZM55.7422 247.813C53.8627 247.813 52.4295 247.284 51.4427 246.227C50.4559 245.146 49.9625 243.607 49.9625 241.61V222.791H53.8392V241.892C53.8392 242.738 54.0036 243.349 54.3326 243.724C54.685 244.1 55.1784 244.288 55.8127 244.288C56.4471 244.288 56.9287 244.1 57.2577 243.724C57.6101 243.349 57.7863 242.738 57.7863 241.892V222.791H61.522V241.61C61.522 243.607 61.0286 245.146 60.0418 246.227C59.055 247.284 57.6218 247.813 55.7422 247.813ZM69.3226 247.813C67.443 247.813 66.0216 247.284 65.0583 246.227C64.095 245.146 63.6134 243.607 63.6134 241.61V240.2H67.2785V241.892C67.2785 243.489 67.9481 244.288 69.2873 244.288C69.9452 244.288 70.4386 244.1 70.7675 243.724C71.1199 243.325 71.2961 242.691 71.2961 241.821C71.2961 240.788 71.0612 239.883 70.5913 239.108C70.1214 238.309 69.2521 237.357 67.9834 236.253C66.3857 234.843 65.2697 233.575 64.6354 232.447C64.001 231.296 63.6838 230.003 63.6838 228.57C63.6838 226.62 64.1772 225.117 65.164 224.059C66.1508 222.979 67.584 222.438 69.4635 222.438C71.3196 222.438 72.7176 222.979 73.6574 224.059C74.6206 225.117 75.1023 226.644 75.1023 228.641V229.663H71.4371V228.394C71.4371 227.548 71.2726 226.937 70.9437 226.562C70.6148 226.162 70.1331 225.962 69.4988 225.962C68.2066 225.962 67.5605 226.749 67.5605 228.324C67.5605 229.216 67.7954 230.05 68.2653 230.826C68.7587 231.601 69.6398 232.541 70.9085 233.645C72.5296 235.055 73.6456 236.335 74.2565 237.487C74.8673 238.638 75.1728 239.989 75.1728 241.539C75.1728 243.56 74.6676 245.111 73.6574 246.191C72.6706 247.272 71.2256 247.813 69.3226 247.813ZM80.4263 226.315H76.3735V222.791H88.3558V226.315H84.3029V247.46H80.4263V226.315ZM90.2327 222.791H95.9772C97.9742 222.791 99.4309 223.261 100.347 224.2C101.263 225.117 101.722 226.538 101.722 228.465V229.98C101.722 232.541 100.876 234.162 99.1842 234.843V234.914C100.124 235.196 100.782 235.771 101.158 236.641C101.557 237.51 101.757 238.673 101.757 240.13V244.465C101.757 245.169 101.78 245.745 101.827 246.191C101.874 246.614 101.992 247.037 102.18 247.46H98.2327C98.0917 247.061 97.9977 246.685 97.9507 246.332C97.9037 245.98 97.8802 245.346 97.8802 244.429V239.918C97.8802 238.791 97.6923 238.003 97.3164 237.557C96.964 237.111 96.3413 236.887 95.4485 236.887H94.1093V247.46H90.2327V222.791ZM95.519 233.363C96.2943 233.363 96.87 233.164 97.2459 232.764C97.6453 232.365 97.845 231.695 97.845 230.755V228.852C97.845 227.959 97.6805 227.313 97.3516 226.914C97.0462 226.515 96.5528 226.315 95.8714 226.315H94.1093V233.363H95.519ZM107.442 222.791H112.693L116.711 247.46H112.834L112.129 242.561V242.632H107.724L107.019 247.46H103.425L107.442 222.791ZM111.671 239.284L109.944 227.09H109.874L108.182 239.284H111.671ZM120.005 226.315H115.952V222.791H127.934V226.315H123.881V247.46H120.005V226.315ZM135.277 247.813C133.374 247.813 131.917 247.272 130.907 246.191C129.897 245.111 129.392 243.583 129.392 241.61V228.641C129.392 226.667 129.897 225.14 130.907 224.059C131.917 222.979 133.374 222.438 135.277 222.438C137.18 222.438 138.637 222.979 139.647 224.059C140.657 225.14 141.163 226.667 141.163 228.641V241.61C141.163 243.583 140.657 245.111 139.647 246.191C138.637 247.272 137.18 247.813 135.277 247.813ZM135.277 244.288C136.616 244.288 137.286 243.478 137.286 241.857V228.394C137.286 226.773 136.616 225.962 135.277 225.962C133.938 225.962 133.268 226.773 133.268 228.394V241.857C133.268 243.478 133.938 244.288 135.277 244.288ZM143.784 222.791H149.529C151.526 222.791 152.982 223.261 153.899 224.2C154.815 225.117 155.273 226.538 155.273 228.465V229.98C155.273 232.541 154.427 234.162 152.736 234.843V234.914C153.675 235.196 154.333 235.771 154.709 236.641C155.109 237.51 155.308 238.673 155.308 240.13V244.465C155.308 245.169 155.332 245.745 155.379 246.191C155.426 246.614 155.543 247.037 155.731 247.46H151.784C151.643 247.061 151.549 246.685 151.502 246.332C151.455 245.98 151.432 245.346 151.432 244.429V239.918C151.432 238.791 151.244 238.003 150.868 237.557C150.515 237.111 149.893 236.887 149 236.887H147.661V247.46H143.784V222.791ZM149.071 233.363C149.846 233.363 150.421 233.164 150.797 232.764C151.197 232.365 151.396 231.695 151.396 230.755V228.852C151.396 227.959 151.232 227.313 150.903 226.914C150.598 226.515 150.104 226.315 149.423 226.315H147.661V233.363H149.071Z" fill="#F3F3F3"/>
<path d="M18.4358 205.003H19.868C20.6576 205.003 21.2643 205.118 21.6878 205.348C22.1114 205.57 22.4021 205.922 22.5601 206.403C22.7252 206.884 22.8077 207.552 22.8077 208.406C22.8077 209.196 22.7359 209.827 22.5924 210.301C22.4488 210.768 22.1688 211.127 21.7524 211.378C21.336 211.629 20.7258 211.755 19.9218 211.755H18.4358V205.003ZM19.9218 211.227C20.5823 211.227 21.0704 211.13 21.3863 210.936C21.7022 210.743 21.9068 210.455 22.0001 210.075C22.0934 209.687 22.1401 209.131 22.1401 208.406C22.1401 207.659 22.0827 207.089 21.9678 206.694C21.8601 206.292 21.6447 205.997 21.3217 205.811C20.9986 205.624 20.5141 205.531 19.868 205.531H19.1034V211.227H19.9218ZM25.688 211.755V205.003H29.2846L29.1662 205.531H26.3556V207.954H28.9939V208.46H26.3556V211.227H29.22L29.3062 211.755H25.688ZM33.6949 211.809C32.9053 211.809 32.2627 211.672 31.7674 211.399L31.9182 210.85C32.2053 210.972 32.4781 211.069 32.7366 211.141C33.0022 211.213 33.3216 211.249 33.6949 211.249C34.1472 211.249 34.499 211.137 34.7503 210.915C35.0087 210.692 35.1379 210.351 35.1379 209.892C35.1379 209.626 35.0913 209.418 34.9979 209.267C34.9046 209.109 34.7718 208.984 34.5995 208.89C34.4272 208.797 34.1759 208.697 33.8457 208.589L33.1996 208.374C32.7258 208.208 32.3668 207.997 32.1228 207.738C31.8859 207.473 31.7674 207.114 31.7674 206.661C31.7674 206.058 31.9576 205.617 32.3381 205.337C32.7186 205.057 33.2176 204.917 33.8349 204.917C34.5241 204.917 35.1272 205.025 35.644 205.24L35.5256 205.778C35.2743 205.685 35.0195 205.613 34.761 205.563C34.5098 205.506 34.2298 205.477 33.9211 205.477C32.9376 205.477 32.4458 205.864 32.4458 206.64C32.4458 206.934 32.5104 207.16 32.6396 207.318C32.7689 207.469 33.0273 207.613 33.415 207.749L34.0072 207.964C34.4523 208.122 34.779 208.255 34.9872 208.363C35.2025 208.47 35.3928 208.646 35.5579 208.89C35.723 209.135 35.8056 209.472 35.8056 209.903C35.8056 210.513 35.6153 210.983 35.2348 211.313C34.8544 211.644 34.3411 211.809 33.6949 211.809ZM38.2422 211.755V211.227H39.2544V205.531H38.2422V205.003H40.902V205.531H39.9329V211.227H40.9236V211.755H38.2422ZM46.0365 211.809C45.4263 211.809 44.9381 211.687 44.572 211.443C44.2059 211.191 43.9438 210.814 43.7859 210.312C43.628 209.809 43.549 209.152 43.549 208.341C43.549 207.128 43.7608 206.256 44.1843 205.725C44.6151 205.186 45.2576 204.917 46.1119 204.917C46.7364 204.917 47.3179 205.046 47.8564 205.305V206.586H47.2749V205.671C47.1456 205.613 46.9769 205.567 46.7687 205.531C46.5677 205.495 46.3703 205.477 46.1765 205.477C45.7457 205.477 45.3868 205.552 45.0996 205.703C44.8197 205.854 44.6007 206.137 44.4428 206.554C44.2848 206.963 44.2059 207.541 44.2059 208.287C44.2059 209.005 44.2633 209.58 44.3782 210.01C44.493 210.434 44.6833 210.746 44.9489 210.947C45.2217 211.148 45.595 211.249 46.0688 211.249C46.3129 211.249 46.5534 211.227 46.7903 211.184C47.0344 211.141 47.2461 211.076 47.4256 210.99V208.772H46.1873V208.255H48.0394V211.27C47.7666 211.421 47.4759 211.55 47.1672 211.658C46.8585 211.758 46.4816 211.809 46.0365 211.809ZM50.9743 211.755V205.003H51.685L55.0663 210.603V205.003H55.6801V211.755H55.0124L51.6096 206.069V211.755H50.9743Z" fill="#F3F3F3"/>
</g>
<rect x="2.47597" y="3.05263" width="190.895" height="256.484" rx="22.0263" stroke="#FCC439" stroke-width="4.89474"/>
<defs>
<clipPath id="clip0_98_1099">
<rect x="4.92334" y="5.5" width="186" height="251.589" rx="19.5789" fill="white"/>
</clipPath>
<clipPath id="clip1_98_1099">
<rect width="125" height="125" fill="white" transform="translate(33.9233 38.5)"/>
</clipPath>
</defs>
</svg>
