<svg width="197" height="262" viewBox="0 0 197 262" fill="none" xmlns="http://www.w3.org/2000/svg">
<g clip-path="url(#clip0_98_1046)">
<rect x="5.53845" y="5.5" width="186" height="251.589" rx="19.5789" fill="#222222" fill-opacity="0.6"/>
<g clip-path="url(#clip1_98_1046)">
<path d="M33.5385 37.5H161.538V165.5H33.5385V37.5Z" fill="#F7DF1E"/>
<path d="M67.1945 144.466L76.9895 138.538C78.8795 141.889 80.5985 144.724 84.722 144.724C88.6745 144.724 91.167 143.178 91.167 137.164V96.2646H103.195V137.334C103.195 149.792 95.8925 155.463 85.2375 155.463C75.615 155.463 70.0295 150.48 67.194 144.465L67.1945 144.466ZM109.729 143.177L119.523 137.507C122.101 141.717 125.452 144.81 131.38 144.81C136.365 144.81 139.543 142.318 139.543 138.881C139.543 134.757 136.278 133.296 130.779 130.891L127.772 129.601C119.094 125.908 113.337 121.268 113.337 111.473C113.337 102.451 120.211 95.5766 130.951 95.5766C138.598 95.5766 144.097 98.2406 148.049 105.2L138.683 111.215C136.621 107.521 134.388 106.06 130.951 106.06C127.428 106.06 125.194 108.294 125.194 111.215C125.194 114.824 127.428 116.285 132.583 118.519L135.59 119.808C145.815 124.19 151.571 128.658 151.571 138.71C151.571 149.537 143.065 155.465 131.638 155.465C120.468 155.465 113.251 150.138 109.728 143.178" fill="#494343"/>
</g>
<path d="M20.626 247.601C19.9211 247.601 19.322 247.554 18.8286 247.46V243.936C19.2046 244.03 19.6275 244.077 20.0974 244.077C20.8727 244.077 21.4483 243.889 21.8242 243.513C22.2001 243.114 22.3881 242.514 22.3881 241.716V222.791H26.2647V241.61C26.2647 243.63 25.7948 245.134 24.855 246.121C23.9387 247.108 22.5291 247.601 20.626 247.601ZM31.9632 222.791H37.2143L41.2319 247.46H37.3553L36.6504 242.561V242.632H32.2451L31.5403 247.46H27.9456L31.9632 222.791ZM36.1923 239.284L34.4654 227.09H34.3949L32.7033 239.284H36.1923ZM41.0926 222.791H45.0044L47.5419 241.927H47.6124L50.1498 222.791H53.7092L49.9736 247.46H44.8282L41.0926 222.791ZM57.5688 222.791H62.8199L66.8375 247.46H62.9608L62.256 242.561V242.632H57.8507L57.1459 247.46H53.5512L57.5688 222.791ZM61.7979 239.284L60.071 227.09H60.0005L58.3089 239.284H61.7979ZM73.6546 247.813C71.775 247.813 70.3536 247.284 69.3903 246.227C68.427 245.146 67.9454 243.607 67.9454 241.61V240.2H71.6106V241.892C71.6106 243.489 72.2802 244.288 73.6194 244.288C74.2772 244.288 74.7706 244.1 75.0996 243.724C75.452 243.325 75.6282 242.691 75.6282 241.821C75.6282 240.788 75.3932 239.883 74.9233 239.108C74.4534 238.309 73.5841 237.357 72.3154 236.253C70.7178 234.843 69.6018 233.575 68.9674 232.447C68.3331 231.296 68.0159 230.003 68.0159 228.57C68.0159 226.62 68.5093 225.117 69.4961 224.059C70.4828 222.979 71.916 222.438 73.7956 222.438C75.6517 222.438 77.0496 222.979 77.9894 224.059C78.9527 225.117 79.4343 226.644 79.4343 228.641V229.663H75.7692V228.394C75.7692 227.548 75.6047 226.937 75.2758 226.562C74.9468 226.162 74.4652 225.962 73.8308 225.962C72.5386 225.962 71.8925 226.749 71.8925 228.324C71.8925 229.216 72.1275 230.05 72.5974 230.826C73.0908 231.601 73.9718 232.541 75.2405 233.645C76.8617 235.055 77.9777 236.335 78.5885 237.487C79.1994 238.638 79.5048 239.989 79.5048 241.539C79.5048 243.56 78.9997 245.111 77.9894 246.191C77.0026 247.272 75.5577 247.813 73.6546 247.813ZM87.1901 247.813C85.334 247.813 83.9126 247.284 82.9258 246.227C81.9625 245.169 81.4809 243.677 81.4809 241.751V228.5C81.4809 226.573 81.9625 225.081 82.9258 224.024C83.9126 222.967 85.334 222.438 87.1901 222.438C89.0462 222.438 90.4558 222.967 91.4191 224.024C92.4059 225.081 92.8993 226.573 92.8993 228.5V231.108H89.2341V228.253C89.2341 226.726 88.588 225.962 87.2958 225.962C86.0036 225.962 85.3575 226.726 85.3575 228.253V242.033C85.3575 243.536 86.0036 244.288 87.2958 244.288C88.588 244.288 89.2341 243.536 89.2341 242.033V238.262H92.8993V241.751C92.8993 243.677 92.4059 245.169 91.4191 246.227C90.4558 247.284 89.0462 247.813 87.1901 247.813ZM95.2187 222.791H100.963C102.96 222.791 104.417 223.261 105.333 224.2C106.249 225.117 106.708 226.538 106.708 228.465V229.98C106.708 232.541 105.862 234.162 104.17 234.843V234.914C105.11 235.196 105.768 235.771 106.144 236.641C106.543 237.51 106.743 238.673 106.743 240.13V244.465C106.743 245.169 106.766 245.745 106.813 246.191C106.86 246.614 106.978 247.037 107.166 247.46H103.219C103.078 247.061 102.984 246.685 102.937 246.332C102.89 245.98 102.866 245.346 102.866 244.429V239.918C102.866 238.791 102.678 238.003 102.302 237.557C101.95 237.111 101.327 236.887 100.435 236.887H99.0953V247.46H95.2187V222.791ZM100.505 233.363C101.28 233.363 101.856 233.164 102.232 232.764C102.631 232.365 102.831 231.695 102.831 230.755V228.852C102.831 227.959 102.667 227.313 102.338 226.914C102.032 226.515 101.539 226.315 100.857 226.315H99.0953V233.363H100.505ZM109.433 222.791H113.309V247.46H109.433V222.791ZM116.212 222.791H121.922C123.848 222.791 125.293 223.307 126.256 224.341C127.22 225.375 127.701 226.89 127.701 228.887V231.319C127.701 233.316 127.22 234.832 126.256 235.865C125.293 236.899 123.848 237.416 121.922 237.416H120.089V247.46H116.212V222.791ZM121.922 233.892C122.556 233.892 123.026 233.716 123.331 233.363C123.66 233.011 123.825 232.412 123.825 231.566V228.641C123.825 227.795 123.66 227.196 123.331 226.843C123.026 226.491 122.556 226.315 121.922 226.315H120.089V233.892H121.922ZM132.907 226.315H128.854V222.791H140.836V226.315H136.783V247.46H132.907V226.315Z" fill="#F3F3F3"/>
<path d="M19.0509 205.003H20.4831C21.2727 205.003 21.8794 205.118 22.3029 205.348C22.7265 205.57 23.0172 205.922 23.1752 206.403C23.3403 206.884 23.4228 207.552 23.4228 208.406C23.4228 209.196 23.3511 209.827 23.2075 210.301C23.0639 210.768 22.7839 211.127 22.3675 211.378C21.9512 211.629 21.3409 211.755 20.5369 211.755H19.0509V205.003ZM20.5369 211.227C21.1974 211.227 21.6855 211.13 22.0014 210.936C22.3173 210.743 22.5219 210.455 22.6152 210.075C22.7085 209.687 22.7552 209.131 22.7552 208.406C22.7552 207.659 22.6978 207.089 22.5829 206.694C22.4752 206.292 22.2599 205.997 21.9368 205.811C21.6137 205.624 21.1292 205.531 20.4831 205.531H19.7185V211.227H20.5369ZM26.3031 211.755V205.003H29.8998L29.7813 205.531H26.9707V207.954H29.609V208.46H26.9707V211.227H29.8351L29.9213 211.755H26.3031ZM32.1241 205.003H32.824C33.0753 205.972 33.4055 207.182 33.8147 208.632C34.1449 209.809 34.3675 210.617 34.4824 211.055C34.6116 210.567 34.8018 209.878 35.0531 208.987C35.5413 207.221 35.9002 205.893 36.1299 205.003H36.8406L34.9023 211.755H34.0732L32.1241 205.003ZM39.3879 211.755V205.003H42.9846L42.8661 205.531H40.0556V207.954H42.6938V208.46H40.0556V211.227H42.92L43.0061 211.755H39.3879ZM45.7042 211.755V205.003H46.3719V211.227H48.9563L49.0532 211.755H45.7042ZM53.691 211.809C53.0736 211.809 52.5926 211.676 52.248 211.41C51.9106 211.145 51.6737 210.764 51.5373 210.269C51.4081 209.766 51.3435 209.127 51.3435 208.352C51.3435 207.584 51.4117 206.952 51.5481 206.457C51.6917 205.954 51.9357 205.574 52.2803 205.315C52.6249 205.05 53.0951 204.917 53.691 204.917C54.2869 204.917 54.7571 205.05 55.1017 205.315C55.4463 205.574 55.6903 205.954 55.8339 206.457C55.9775 206.952 56.0493 207.584 56.0493 208.352C56.0493 209.135 55.9811 209.773 55.8447 210.269C55.7155 210.764 55.4786 211.145 55.134 211.41C54.7894 211.676 54.3084 211.809 53.691 211.809ZM53.691 211.249C54.1289 211.249 54.4699 211.148 54.714 210.947C54.9581 210.746 55.1304 210.441 55.2309 210.032C55.3314 209.615 55.3816 209.059 55.3816 208.363C55.3816 207.666 55.3278 207.11 55.2201 206.694C55.1196 206.277 54.9473 205.972 54.7032 205.778C54.4592 205.577 54.1217 205.477 53.691 205.477C53.2603 205.477 52.9229 205.577 52.6788 205.778C52.4419 205.972 52.2696 206.277 52.1619 206.694C52.0614 207.11 52.0111 207.666 52.0111 208.363C52.0111 209.059 52.0614 209.615 52.1619 210.032C52.2624 210.441 52.4347 210.746 52.6788 210.947C52.9229 211.148 53.2603 211.249 53.691 211.249ZM58.9152 205.003H60.7459C61.4781 205.003 62.0273 205.15 62.3934 205.445C62.7668 205.739 62.9534 206.256 62.9534 206.995C62.9534 207.519 62.8493 207.921 62.6411 208.201C62.4329 208.481 62.1278 208.675 61.7258 208.783C61.331 208.883 60.8069 208.933 60.1536 208.933H59.5829V211.755H58.9152V205.003ZM60.0244 208.384C60.6274 208.384 61.0761 208.363 61.3704 208.32C61.6648 208.269 61.8873 208.147 62.0381 207.954C62.196 207.753 62.275 207.437 62.275 207.006C62.275 206.446 62.1565 206.062 61.9196 205.854C61.6899 205.638 61.313 205.531 60.789 205.531H59.5829V208.384H60.0244ZM65.4719 211.755L65.9996 205.003H66.7426L68.3363 208.697L69.8762 205.003H70.6192L71.1899 211.755H70.5761L70.07 205.972L68.6378 209.45H68.0348L66.5488 205.961L66.0965 211.755H65.4719ZM74.1664 211.755V205.003H77.763L77.6446 205.531H74.834V207.954H77.4723V208.46H74.834V211.227H77.6984L77.7846 211.755H74.1664ZM80.4827 211.755V205.003H81.1934L84.5747 210.603V205.003H85.1885V211.755H84.5208L81.118 206.069V211.755H80.4827ZM89.4352 211.755V205.531H87.6261V205.003H91.9443V205.531H90.1137V211.755H89.4352Z" fill="#F3F3F3"/>
</g>
<rect x="3.09108" y="3.05263" width="190.895" height="256.484" rx="22.0263" stroke="#34C4CD" stroke-width="4.89474"/>
<defs>
<clipPath id="clip0_98_1046">
<rect x="5.53845" y="5.5" width="186" height="251.589" rx="19.5789" fill="white"/>
</clipPath>
<clipPath id="clip1_98_1046">
<rect x="33.5385" y="37.5" width="128" height="128" rx="20" fill="white"/>
</clipPath>
</defs>
</svg>
