<svg width="197" height="262" viewBox="0 0 197 262" fill="none" xmlns="http://www.w3.org/2000/svg">
<g clip-path="url(#clip0_98_1108)">
<rect x="5.69263" y="5.5" width="186" height="251.589" rx="19.5789" fill="#222222" fill-opacity="0.6"/>
<path d="M34.6926 40.5V162.363H159.693V40.5H34.6926ZM39.8997 45.7109H154.482V157.16H39.8997V45.7109ZM69.3176 125.523C68.7083 125.523 68.5481 125.258 68.5481 124.754V68.8008C68.5481 68.3516 68.7083 68.1133 69.1575 68.1133H77.3958C77.845 68.1133 77.927 68.2969 77.927 68.7422V116.957H99.4114C99.8372 116.957 99.9583 117.145 99.8801 117.57L98.5793 124.957C98.4973 125.383 98.2317 125.566 97.802 125.566H69.3176V125.523ZM107.876 91.7891C107.876 91.1602 107.876 89.6328 107.611 86.707C107.611 86.2813 107.716 86.1758 108.06 86.0156C111.232 84.7344 118.763 82.418 127.185 82.418C127.611 82.418 127.775 82.4961 127.775 82.9453V90.4922C127.775 90.9414 127.615 91.0234 127.165 91.0234C123.911 90.8633 119.025 91.2891 117.216 92.0586V124.918C117.216 125.344 117.048 125.508 116.622 125.508H108.447C108.021 125.508 107.857 125.348 107.857 124.918V91.793L107.876 91.7891Z" fill="#54A8F8"/>
<path d="M19.8639 222.791H23.7405V243.936H30.1193V247.46H19.8639V222.791ZM31.9783 222.791H35.855V247.46H31.9783V222.791ZM44.2561 247.813C42.3765 247.813 40.9433 247.284 39.9566 246.227C38.9698 245.146 38.4764 243.607 38.4764 241.61V228.641C38.4764 226.644 38.9698 225.117 39.9566 224.059C40.9433 222.979 42.3765 222.438 44.2561 222.438C46.1357 222.438 47.5689 222.979 48.5556 224.059C49.5424 225.117 50.0358 226.644 50.0358 228.641V230.755H46.3706V228.394C46.3706 226.773 45.701 225.962 44.3618 225.962C43.0226 225.962 42.353 226.773 42.353 228.394V241.892C42.353 243.489 43.0226 244.288 44.3618 244.288C45.701 244.288 46.3706 243.489 46.3706 241.892V237.064H44.4323V233.539H50.0358V241.61C50.0358 243.607 49.5424 245.146 48.5556 246.227C47.5689 247.284 46.1357 247.813 44.2561 247.813ZM52.5248 222.791H56.4014V232.835H60.56V222.791H64.4366V247.46H60.56V236.359H56.4014V247.46H52.5248V222.791ZM70.3545 226.315H66.3017V222.791H78.284V226.315H74.2312V247.46H70.3545V226.315ZM80.1609 222.791H85.9054C87.9024 222.791 89.3591 223.261 90.2754 224.2C91.1917 225.117 91.6498 226.538 91.6498 228.465V229.98C91.6498 232.541 90.804 234.162 89.1124 234.843V234.914C90.0522 235.196 90.7101 235.771 91.086 236.641C91.4854 237.51 91.6851 238.673 91.6851 240.13V244.465C91.6851 245.169 91.7086 245.745 91.7556 246.191C91.8026 246.614 91.92 247.037 92.108 247.46H88.1609C88.0199 247.061 87.9259 246.685 87.8789 246.332C87.8319 245.98 87.8085 245.346 87.8085 244.429V239.918C87.8085 238.791 87.6205 238.003 87.2446 237.557C86.8922 237.111 86.2695 236.887 85.3767 236.887H84.0375V247.46H80.1609V222.791ZM85.4472 233.363C86.2226 233.363 86.7982 233.164 87.1741 232.764C87.5735 232.365 87.7732 231.695 87.7732 230.755V228.852C87.7732 227.959 87.6087 227.313 87.2798 226.914C86.9744 226.515 86.481 226.315 85.7997 226.315H84.0375V233.363H85.4472ZM99.9783 247.813C98.0752 247.813 96.6185 247.272 95.6082 246.191C94.598 245.111 94.0928 243.583 94.0928 241.61V228.641C94.0928 226.667 94.598 225.14 95.6082 224.059C96.6185 222.979 98.0752 222.438 99.9783 222.438C101.881 222.438 103.338 222.979 104.348 224.059C105.359 225.14 105.864 226.667 105.864 228.641V241.61C105.864 243.583 105.359 245.111 104.348 246.191C103.338 247.272 101.881 247.813 99.9783 247.813ZM99.9783 244.288C101.317 244.288 101.987 243.478 101.987 241.857V228.394C101.987 226.773 101.317 225.962 99.9783 225.962C98.6391 225.962 97.9695 226.773 97.9695 228.394V241.857C97.9695 243.478 98.6391 244.288 99.9783 244.288ZM114.089 247.813C112.186 247.813 110.729 247.272 109.719 246.191C108.709 245.111 108.203 243.583 108.203 241.61V228.641C108.203 226.667 108.709 225.14 109.719 224.059C110.729 222.979 112.186 222.438 114.089 222.438C115.992 222.438 117.449 222.979 118.459 224.059C119.469 225.14 119.974 226.667 119.974 228.641V241.61C119.974 243.583 119.469 245.111 118.459 246.191C117.449 247.272 115.992 247.813 114.089 247.813ZM114.089 244.288C115.428 244.288 116.098 243.478 116.098 241.857V228.394C116.098 226.773 115.428 225.962 114.089 225.962C112.75 225.962 112.08 226.773 112.08 228.394V241.857C112.08 243.478 112.75 244.288 114.089 244.288ZM122.596 222.791H128.129L130.596 240.447H130.666L133.133 222.791H138.666V247.46H135.001V228.782H134.931L132.111 247.46H128.869L126.05 228.782H125.979V247.46H122.596V222.791Z" fill="#F3F3F3"/>
<path d="M19.205 205.003H20.6372C21.4269 205.003 22.0335 205.118 22.4571 205.348C22.8807 205.57 23.1714 205.922 23.3293 206.403C23.4945 206.884 23.577 207.552 23.577 208.406C23.577 209.196 23.5052 209.827 23.3617 210.301C23.2181 210.768 22.9381 211.127 22.5217 211.378C22.1053 211.629 21.4951 211.755 20.6911 211.755H19.205V205.003ZM20.6911 211.227C21.3515 211.227 21.8397 211.13 22.1556 210.936C22.4715 210.743 22.6761 210.455 22.7694 210.075C22.8627 209.687 22.9094 209.131 22.9094 208.406C22.9094 207.659 22.8519 207.089 22.7371 206.694C22.6294 206.292 22.414 205.997 22.091 205.811C21.7679 205.624 21.2833 205.531 20.6372 205.531H19.8727V211.227H20.6911ZM26.4573 211.755V205.003H30.0539L29.9355 205.531H27.1249V207.954H29.7632V208.46H27.1249V211.227H29.9893L30.0755 211.755H26.4573ZM34.4642 211.809C33.6746 211.809 33.032 211.672 32.5367 211.399L32.6874 210.85C32.9746 210.972 33.2474 211.069 33.5058 211.141C33.7715 211.213 34.0909 211.249 34.4642 211.249C34.9165 211.249 35.2683 211.137 35.5195 210.915C35.778 210.692 35.9072 210.351 35.9072 209.892C35.9072 209.626 35.8605 209.418 35.7672 209.267C35.6739 209.109 35.5411 208.984 35.3688 208.89C35.1965 208.797 34.9452 208.697 34.615 208.589L33.9689 208.374C33.4951 208.208 33.1361 207.997 32.892 207.738C32.6551 207.473 32.5367 207.114 32.5367 206.661C32.5367 206.058 32.7269 205.617 33.1074 205.337C33.4879 205.057 33.9868 204.917 34.6042 204.917C35.2934 204.917 35.8964 205.025 36.4133 205.24L36.2949 205.778C36.0436 205.685 35.7888 205.613 35.5303 205.563C35.279 205.506 34.9991 205.477 34.6904 205.477C33.7069 205.477 33.2151 205.864 33.2151 206.64C33.2151 206.934 33.2797 207.16 33.4089 207.318C33.5382 207.469 33.7966 207.613 34.1843 207.749L34.7765 207.964C35.2216 208.122 35.5483 208.255 35.7564 208.363C35.9718 208.47 36.1621 208.646 36.3272 208.89C36.4923 209.135 36.5748 209.472 36.5748 209.903C36.5748 210.513 36.3846 210.983 36.0041 211.313C35.6236 211.644 35.1103 211.809 34.4642 211.809ZM39.0115 211.755V211.227H40.0237V205.531H39.0115V205.003H41.6713V205.531H40.7021V211.227H41.6928V211.755H39.0115ZM46.8058 211.809C46.1956 211.809 45.7074 211.687 45.3413 211.443C44.9752 211.191 44.7131 210.814 44.5552 210.312C44.3972 209.809 44.3183 209.152 44.3183 208.341C44.3183 207.128 44.5301 206.256 44.9536 205.725C45.3844 205.186 46.0269 204.917 46.8812 204.917C47.5057 204.917 48.0872 205.046 48.6256 205.305V206.586H48.0442V205.671C47.9149 205.613 47.7462 205.567 47.538 205.531C47.337 205.495 47.1396 205.477 46.9458 205.477C46.515 205.477 46.1561 205.552 45.8689 205.703C45.589 205.854 45.37 206.137 45.2121 206.554C45.0541 206.963 44.9752 207.541 44.9752 208.287C44.9752 209.005 45.0326 209.58 45.1474 210.01C45.2623 210.434 45.4526 210.746 45.7182 210.947C45.991 211.148 46.3643 211.249 46.8381 211.249C47.0822 211.249 47.3227 211.227 47.5596 211.184C47.8037 211.141 48.0154 211.076 48.1949 210.99V208.772H46.9565V208.255H48.8087V211.27C48.5359 211.421 48.2452 211.55 47.9365 211.658C47.6278 211.758 47.2509 211.809 46.8058 211.809ZM51.7436 211.755V205.003H52.4543L55.8356 210.603V205.003H56.4494V211.755H55.7817L52.3789 206.069V211.755H51.7436Z" fill="#F3F3F3"/>
</g>
<rect x="3.24526" y="3.05263" width="190.895" height="256.484" rx="22.0263" stroke="#FCC439" stroke-width="4.89474"/>
<defs>
<clipPath id="clip0_98_1108">
<rect x="5.69263" y="5.5" width="186" height="251.589" rx="19.5789" fill="white"/>
</clipPath>
</defs>
</svg>
