<svg width="197" height="262" viewBox="0 0 197 262" fill="none" xmlns="http://www.w3.org/2000/svg">
<g clip-path="url(#clip0_98_1175)">
<rect x="5.76923" y="5.5" width="186" height="251.589" rx="19.5789" fill="#222222" fill-opacity="0.6"/>
<g clip-path="url(#clip1_98_1175)">
<path d="M45.7692 105.6V60.5L84.7692 83.05V98.0831L58.7692 83.05V113.117L45.7692 105.6Z" fill="#00B0FF"/>
<path d="M84.7692 83.05L123.769 60.5V105.6L97.7692 120.633L84.7692 113.117L110.769 98.0831V83.05L84.7692 98.0831V83.05Z" fill="#0081CB"/>
<path d="M84.7692 113.117V128.15L110.769 143.183V128.15L84.7692 113.117Z" fill="#00B0FF"/>
<path d="M110.769 143.183L149.769 120.633V90.5672L136.769 98.0835V113.117L110.769 128.15V143.184V143.183ZM136.769 83.05V68.0164L149.769 60.5V75.5336L136.769 83.05Z" fill="#0081CB"/>
</g>
<path d="M19.9405 222.791H25.4735L27.9404 240.447H28.0109L30.4779 222.791H36.0109V247.46H32.3457V228.782H32.2752L29.4558 247.46H26.2136L23.3942 228.782H23.3237V247.46H19.9405V222.791ZM44.5425 247.813C42.6629 247.813 41.2297 247.284 40.243 246.227C39.2562 245.146 38.7628 243.607 38.7628 241.61V222.791H42.6394V241.892C42.6394 242.738 42.8039 243.349 43.1328 243.724C43.4852 244.1 43.9786 244.288 44.613 244.288C45.2473 244.288 45.729 244.1 46.0579 243.724C46.4103 243.349 46.5865 242.738 46.5865 241.892V222.791H50.3222V241.61C50.3222 243.607 49.8288 245.146 48.842 246.227C47.8552 247.284 46.4221 247.813 44.5425 247.813ZM53.0832 222.791H56.9598V247.46H53.0832V222.791Z" fill="#F3F3F3"/>
<path d="M19.2816 205.003H20.7138C21.5035 205.003 22.1101 205.118 22.5337 205.348C22.9573 205.57 23.248 205.922 23.4059 206.403C23.5711 206.884 23.6536 207.552 23.6536 208.406C23.6536 209.196 23.5818 209.827 23.4382 210.301C23.2947 210.768 23.0147 211.127 22.5983 211.378C22.1819 211.629 21.5717 211.755 20.7677 211.755H19.2816V205.003ZM20.7677 211.227C21.4281 211.227 21.9163 211.13 22.2322 210.936C22.5481 210.743 22.7527 210.455 22.846 210.075C22.9393 209.687 22.986 209.131 22.986 208.406C22.986 207.659 22.9285 207.089 22.8137 206.694C22.706 206.292 22.4906 205.997 22.1676 205.811C21.8445 205.624 21.3599 205.531 20.7138 205.531H19.9493V211.227H20.7677ZM26.5339 211.755V205.003H30.1305L30.0121 205.531H27.2015V207.954H29.8398V208.46H27.2015V211.227H30.0659L30.1521 211.755H26.5339ZM32.3548 205.003H33.0548C33.3061 205.972 33.6363 207.182 34.0455 208.632C34.3757 209.809 34.5983 210.617 34.7131 211.055C34.8424 210.567 35.0326 209.878 35.2839 208.987C35.772 207.221 36.131 205.893 36.3607 205.003H37.0714L35.1331 211.755H34.3039L32.3548 205.003ZM39.6187 211.755V205.003H43.2154L43.0969 205.531H40.2863V207.954H42.9246V208.46H40.2863V211.227H43.1507L43.2369 211.755H39.6187ZM45.935 211.755V205.003H46.6027V211.227H49.1871L49.284 211.755H45.935ZM53.9218 211.809C53.3044 211.809 52.8234 211.676 52.4788 211.41C52.1414 211.145 51.9045 210.764 51.7681 210.269C51.6389 209.766 51.5743 209.127 51.5743 208.352C51.5743 207.584 51.6425 206.952 51.7789 206.457C51.9224 205.954 52.1665 205.574 52.5111 205.315C52.8557 205.05 53.3259 204.917 53.9218 204.917C54.5176 204.917 54.9879 205.05 55.3324 205.315C55.677 205.574 55.9211 205.954 56.0647 206.457C56.2083 206.952 56.2801 207.584 56.2801 208.352C56.2801 209.135 56.2119 209.773 56.0755 210.269C55.9462 210.764 55.7093 211.145 55.3647 211.41C55.0202 211.676 54.5392 211.809 53.9218 211.809ZM53.9218 211.249C54.3597 211.249 54.7007 211.148 54.9448 210.947C55.1889 210.746 55.3612 210.441 55.4617 210.032C55.5622 209.615 55.6124 209.059 55.6124 208.363C55.6124 207.666 55.5586 207.11 55.4509 206.694C55.3504 206.277 55.1781 205.972 54.934 205.778C54.6899 205.577 54.3525 205.477 53.9218 205.477C53.491 205.477 53.1536 205.577 52.9095 205.778C52.6726 205.972 52.5003 206.277 52.3927 206.694C52.2922 207.11 52.2419 207.666 52.2419 208.363C52.2419 209.059 52.2922 209.615 52.3927 210.032C52.4932 210.441 52.6655 210.746 52.9095 210.947C53.1536 211.148 53.491 211.249 53.9218 211.249ZM59.146 205.003H60.9767C61.7089 205.003 62.2581 205.15 62.6242 205.445C62.9975 205.739 63.1842 206.256 63.1842 206.995C63.1842 207.519 63.0801 207.921 62.8719 208.201C62.6637 208.481 62.3586 208.675 61.9566 208.783C61.5617 208.883 61.0377 208.933 60.3844 208.933H59.8137V211.755H59.146V205.003ZM60.2552 208.384C60.8582 208.384 61.3069 208.363 61.6012 208.32C61.8956 208.269 62.1181 208.147 62.2689 207.954C62.4268 207.753 62.5058 207.437 62.5058 207.006C62.5058 206.446 62.3873 206.062 62.1504 205.854C61.9207 205.638 61.5438 205.531 61.0197 205.531H59.8137V208.384H60.2552ZM65.7027 211.755L66.2303 205.003H66.9734L68.5671 208.697L70.107 205.003H70.85L71.4207 211.755H70.8069L70.3008 205.972L68.8686 209.45H68.2656L66.7795 205.961L66.3273 211.755H65.7027ZM74.3971 211.755V205.003H77.9938L77.8753 205.531H75.0648V207.954H77.703V208.46H75.0648V211.227H77.9292L78.0153 211.755H74.3971ZM80.7135 211.755V205.003H81.4242L84.8055 210.603V205.003H85.4193V211.755H84.7516L81.3488 206.069V211.755H80.7135ZM89.666 211.755V205.531H87.8569V205.003H92.1751V205.531H90.3444V211.755H89.666Z" fill="#F3F3F3"/>
</g>
<rect x="3.32186" y="3.05263" width="190.895" height="256.484" rx="22.0263" stroke="#34C4CD" stroke-width="4.89474"/>
<defs>
<clipPath id="clip0_98_1175">
<rect x="5.76923" y="5.5" width="186" height="251.589" rx="19.5789" fill="white"/>
</clipPath>
<clipPath id="clip1_98_1175">
<rect width="104" height="83" fill="white" transform="translate(45.7692 60.5)"/>
</clipPath>
</defs>
</svg>
