<svg width="197" height="262" viewBox="0 0 197 262" fill="none" xmlns="http://www.w3.org/2000/svg">
<g clip-path="url(#clip0_98_1056)">
<rect x="5.61548" y="5.5" width="186" height="251.589" rx="19.5789" fill="#222222" fill-opacity="0.6"/>
<path d="M96.3504 144.84C95.8725 144.84 95.4263 144.713 95.0119 144.49L90.7731 141.972C90.1355 141.621 90.4543 141.494 90.6457 141.43C91.5061 141.143 91.6655 141.079 92.5578 140.57C92.6535 140.506 92.7812 140.538 92.8766 140.601L96.1276 142.545C96.255 142.609 96.4144 142.609 96.5098 142.545L109.227 135.183C109.354 135.119 109.418 134.992 109.418 134.833V120.14C109.418 119.98 109.354 119.853 109.227 119.789L96.5098 112.459C96.3824 112.395 96.223 112.395 96.1276 112.459L83.4107 119.789C83.2833 119.853 83.2194 120.012 83.2194 120.14V134.832C83.2194 134.96 83.2833 135.119 83.4107 135.183L86.8848 137.191C88.7653 138.147 89.9444 137.031 89.9444 135.916V121.414C89.9444 121.223 90.1038 121.032 90.3269 121.032H91.9523C92.1436 121.032 92.3347 121.191 92.3347 121.414V135.916C92.3347 138.434 90.9642 139.9 88.5739 139.9C87.8409 139.9 87.2673 139.9 85.6417 139.103L82.2953 137.191C81.4666 136.713 80.9567 135.82 80.9567 134.864V120.172C80.9567 119.215 81.4666 118.323 82.2953 117.845L95.0119 110.483C95.8088 110.036 96.8926 110.036 97.6893 110.483L110.406 117.845C111.235 118.323 111.745 119.215 111.745 120.172V134.864C111.745 135.82 111.235 136.713 110.406 137.191L97.6893 144.553C97.2748 144.745 96.7969 144.84 96.3507 144.84H96.3504ZM100.271 134.737C94.6934 134.737 93.5459 132.187 93.5459 130.02C93.5459 129.829 93.7053 129.637 93.9284 129.637H95.5857C95.7768 129.637 95.9362 129.765 95.9362 129.956C96.1913 131.645 96.9243 132.474 100.303 132.474C102.98 132.474 104.128 131.868 104.128 130.434C104.128 129.605 103.808 129 99.6334 128.586C96.1593 128.235 93.9921 127.47 93.9921 124.697C93.9921 122.116 96.1596 120.586 99.7928 120.586C103.872 120.586 105.88 121.988 106.135 125.048C106.135 125.144 106.103 125.239 106.04 125.335C105.976 125.398 105.88 125.462 105.785 125.462H104.127C103.968 125.462 103.808 125.335 103.777 125.175C103.394 123.423 102.406 122.849 99.7928 122.849C96.8606 122.849 96.5098 123.869 96.5098 124.633C96.5098 125.558 96.9243 125.845 100.876 126.354C104.797 126.865 106.645 127.598 106.645 130.338C106.613 133.143 104.319 134.737 100.271 134.737Z" fill="#539E43"/>
<path d="M56.8935 87.3759C56.8935 86.8023 56.5747 86.2601 56.0649 85.9733L42.5513 78.1968C42.328 78.0691 42.0731 78.0054 41.8183 77.9734H41.6907C41.4359 77.9734 41.1808 78.0691 40.9577 78.1968L27.4441 85.9733C26.934 86.2601 26.6155 86.802 26.6155 87.3759L26.6475 108.283C26.6475 108.57 26.8069 108.857 27.0617 108.985C27.3167 109.144 27.6353 109.144 27.8586 108.985L35.8902 104.395C36.4001 104.108 36.7189 103.567 36.7189 102.993V93.2083C36.7189 92.6347 37.0374 92.0928 37.5476 91.806L40.9577 89.8299C41.2128 89.6705 41.4996 89.6065 41.7864 89.6065C42.0731 89.6065 42.3599 89.6705 42.5833 89.8299L45.9934 91.806C46.5036 92.0928 46.8221 92.6344 46.8221 93.2083V102.993C46.8221 103.567 47.1409 104.108 47.6507 104.395L55.6824 108.985C55.8064 109.063 55.9501 109.104 56.0967 109.104C56.2433 109.104 56.387 109.063 56.511 108.985C56.7661 108.857 56.9255 108.57 56.9255 108.283L56.8935 87.3759ZM121.848 58.5958C121.593 58.4681 121.274 58.4681 121.051 58.5958C120.796 58.7552 120.637 59.01 120.637 59.2968V80.0135C120.637 80.2046 120.541 80.3957 120.35 80.5234C120.159 80.6188 119.967 80.6188 119.776 80.5234L116.398 78.5793C116.15 78.4382 115.87 78.3641 115.585 78.3641C115.3 78.3641 115.02 78.4382 114.772 78.5793L101.259 86.3878C100.749 86.6746 100.43 87.2165 100.43 87.7901V103.375C100.43 103.949 100.749 104.491 101.259 104.778L114.772 112.586C115.02 112.727 115.3 112.801 115.585 112.801C115.87 112.801 116.15 112.727 116.398 112.586L129.911 104.778C130.421 104.491 130.74 103.949 130.74 103.375V64.5239C130.74 63.9183 130.421 63.3767 129.911 63.0896L121.848 58.5958H121.848ZM120.605 98.244C120.605 98.4034 120.541 98.5308 120.414 98.5945L115.792 101.272C115.728 101.303 115.657 101.319 115.585 101.319C115.513 101.319 115.442 101.303 115.378 101.272L110.757 98.5945C110.629 98.5308 110.565 98.3714 110.565 98.244V92.8895C110.565 92.7301 110.629 92.6027 110.757 92.539L115.378 89.8616C115.442 89.8301 115.513 89.8137 115.585 89.8137C115.657 89.8137 115.728 89.8301 115.792 89.8616L120.414 92.539C120.541 92.6024 120.605 92.7621 120.605 92.8895V98.244ZM166.819 92.7621C167.329 92.4753 167.615 91.9334 167.615 91.3595V87.567C167.615 86.9934 167.297 86.4515 166.819 86.1647L153.401 78.3882C153.153 78.2471 152.873 78.173 152.588 78.173C152.303 78.173 152.023 78.2471 151.775 78.3882L138.262 86.1964C137.751 86.4832 137.433 87.0251 137.433 87.5987V103.184C137.433 103.758 137.752 104.299 138.262 104.586L151.679 112.235C152.19 112.522 152.795 112.522 153.273 112.235L161.4 107.71C161.655 107.582 161.815 107.296 161.815 107.009C161.815 106.722 161.655 106.435 161.4 106.308L147.823 98.4991C147.568 98.3397 147.409 98.0849 147.409 97.7981V92.9217C147.409 92.6349 147.568 92.3482 147.823 92.2205L152.062 89.7982C152.186 89.7201 152.33 89.6786 152.476 89.6786C152.623 89.6786 152.766 89.7201 152.891 89.7982L157.13 92.2205C157.385 92.3799 157.544 92.6347 157.544 92.9217V96.7463C157.544 97.0331 157.703 97.3199 157.958 97.4473C158.082 97.5254 158.226 97.5669 158.373 97.5669C158.519 97.5669 158.663 97.5254 158.787 97.4473L166.819 92.7621V92.7621Z" fill="#F3F3F3"/>
<path d="M152.381 92.0288C152.428 91.9976 152.483 91.981 152.54 91.981C152.597 91.981 152.652 91.9976 152.699 92.0288L155.281 93.5268C155.377 93.5908 155.44 93.6862 155.44 93.8136V96.8098C155.44 96.9372 155.377 97.0329 155.281 97.0966L152.699 98.5945C152.652 98.6257 152.597 98.6423 152.54 98.6423C152.483 98.6423 152.428 98.6257 152.381 98.5945L149.799 97.0966C149.704 97.0329 149.64 96.9372 149.64 96.8098V93.8139C149.64 93.6862 149.703 93.5905 149.799 93.5271L152.381 92.0288V92.0288Z" fill="#539E43"/>
<path d="M92.9402 86.1964L79.4587 78.4518C79.3262 78.3849 79.1873 78.3315 79.0442 78.2924L63.937 104.172C64.0622 104.325 64.2133 104.455 64.3835 104.555L77.865 112.3C78.2475 112.523 78.6937 112.586 79.1079 112.459L93.291 86.5154C93.1953 86.388 93.0676 86.2921 92.9402 86.1966V86.1964Z" fill="url(#paint0_linear_98_1056)"/>
<path fill-rule="evenodd" clip-rule="evenodd" d="M77.4188 75.6151L77.2277 75.7108H77.4825L77.4188 75.6151V75.6151Z" fill="url(#paint1_linear_98_1056)"/>
<path fill-rule="evenodd" clip-rule="evenodd" d="M92.9721 104.523C93.3546 104.299 93.6414 103.917 93.7691 103.503L78.9801 78.2605C78.5977 78.1968 78.1832 78.2285 77.833 78.4516L64.4468 86.1647L78.8845 112.49C79.0944 112.456 79.2984 112.392 79.49 112.299L92.9719 104.523L92.9721 104.523Z" fill="url(#paint2_linear_98_1056)"/>
<path fill-rule="evenodd" clip-rule="evenodd" d="M94.2153 104.268L94.1196 104.108V104.331L94.215 104.268H94.2153Z" fill="url(#paint3_linear_98_1056)"/>
<path fill-rule="evenodd" clip-rule="evenodd" d="M92.9722 104.523L79.5223 112.267C79.3325 112.364 79.1278 112.429 78.9167 112.458L79.1718 112.937L94.0876 104.3V104.108L93.7051 103.471C93.6414 103.917 93.3546 104.299 92.9722 104.523V104.523Z" fill="url(#paint4_linear_98_1056)"/>
<path fill-rule="evenodd" clip-rule="evenodd" d="M92.9722 104.523L79.5223 112.267C79.3325 112.364 79.1278 112.429 78.9167 112.458L79.1718 112.937L94.0876 104.3V104.108L93.7051 103.471C93.6414 103.917 93.3546 104.299 92.9722 104.523V104.523Z" fill="url(#paint5_linear_98_1056)"/>
<path d="M19.7867 222.791H24.6501L28.421 237.557H28.4915V222.791H31.9453V247.46H27.9629L23.3109 229.451H23.2405V247.46H19.7867V222.791ZM40.4301 247.813C38.527 247.813 37.0703 247.272 36.06 246.191C35.0498 245.111 34.5446 243.583 34.5446 241.61V228.641C34.5446 226.667 35.0498 225.14 36.06 224.059C37.0703 222.979 38.527 222.438 40.4301 222.438C42.3331 222.438 43.7898 222.979 44.8001 224.059C45.8104 225.14 46.3155 226.667 46.3155 228.641V241.61C46.3155 243.583 45.8104 245.111 44.8001 246.191C43.7898 247.272 42.3331 247.813 40.4301 247.813ZM40.4301 244.288C41.7693 244.288 42.4389 243.478 42.4389 241.857V228.394C42.4389 226.773 41.7693 225.962 40.4301 225.962C39.0909 225.962 38.4213 226.773 38.4213 228.394V241.857C38.4213 243.478 39.0909 244.288 40.4301 244.288ZM48.9372 222.791H54.8579C56.7844 222.791 58.2293 223.307 59.1926 224.341C60.1559 225.375 60.6376 226.89 60.6376 228.887V241.363C60.6376 243.36 60.1559 244.876 59.1926 245.909C58.2293 246.943 56.7844 247.46 54.8579 247.46H48.9372V222.791ZM54.7874 243.936C55.4217 243.936 55.9034 243.748 56.2323 243.372C56.5847 242.996 56.7609 242.385 56.7609 241.539V228.711C56.7609 227.865 56.5847 227.255 56.2323 226.879C55.9034 226.503 55.4217 226.315 54.7874 226.315H52.8138V243.936H54.7874ZM63.2543 222.791H73.8269V226.315H67.1309V232.835H72.4525V236.359H67.1309V243.936H73.8269V247.46H63.2543V222.791ZM76.2292 243.724H79.9648V247.46H76.2292V243.724ZM83.7878 247.601C83.0829 247.601 82.4838 247.554 81.9904 247.46V243.936C82.3663 244.03 82.7892 244.077 83.2591 244.077C84.0345 244.077 84.6101 243.889 84.986 243.513C85.3619 243.114 85.5499 242.514 85.5499 241.716V222.791H89.4265V241.61C89.4265 243.63 88.9566 245.134 88.0168 246.121C87.1005 247.108 85.6908 247.601 83.7878 247.601ZM97.2379 247.813C95.3583 247.813 93.9368 247.284 92.9736 246.227C92.0103 245.146 91.5286 243.607 91.5286 241.61V240.2H95.1938V241.892C95.1938 243.489 95.8634 244.288 97.2026 244.288C97.8605 244.288 98.3539 244.1 98.6828 243.724C99.0352 243.325 99.2114 242.691 99.2114 241.821C99.2114 240.788 98.9765 239.883 98.5066 239.108C98.0367 238.309 97.1674 237.357 95.8987 236.253C94.301 234.843 93.185 233.575 92.5507 232.447C91.9163 231.296 91.5991 230.003 91.5991 228.57C91.5991 226.62 92.0925 225.117 93.0793 224.059C94.0661 222.979 95.4992 222.438 97.3788 222.438C99.2349 222.438 100.633 222.979 101.573 224.059C102.536 225.117 103.018 226.644 103.018 228.641V229.663H99.3524V228.394C99.3524 227.548 99.1879 226.937 98.859 226.562C98.5301 226.162 98.0484 225.962 97.4141 225.962C96.1219 225.962 95.4758 226.749 95.4758 228.324C95.4758 229.216 95.7107 230.05 96.1806 230.826C96.674 231.601 97.555 232.541 98.8238 233.645C100.445 235.055 101.561 236.335 102.172 237.487C102.783 238.638 103.088 239.989 103.088 241.539C103.088 243.56 102.583 245.111 101.573 246.191C100.586 247.272 99.1409 247.813 97.2379 247.813Z" fill="#F3F3F3"/>
<path d="M19.1279 205.003H20.5601C21.3498 205.003 21.9564 205.118 22.38 205.348C22.8035 205.57 23.0943 205.922 23.2522 206.403C23.4173 206.884 23.4999 207.552 23.4999 208.406C23.4999 209.196 23.4281 209.827 23.2845 210.301C23.1409 210.768 22.8609 211.127 22.4446 211.378C22.0282 211.629 21.418 211.755 20.6139 211.755H19.1279V205.003ZM20.6139 211.227C21.2744 211.227 21.7626 211.13 22.0784 210.936C22.3943 210.743 22.5989 210.455 22.6922 210.075C22.7856 209.687 22.8322 209.131 22.8322 208.406C22.8322 207.659 22.7748 207.089 22.6599 206.694C22.5522 206.292 22.3369 205.997 22.0138 205.811C21.6908 205.624 21.2062 205.531 20.5601 205.531H19.7955V211.227H20.6139ZM26.3801 211.755V205.003H29.9768L29.8583 205.531H27.0478V207.954H29.686V208.46H27.0478V211.227H29.9122L29.9983 211.755H26.3801ZM32.2011 205.003H32.901C33.1523 205.972 33.4825 207.182 33.8917 208.632C34.222 209.809 34.4445 210.617 34.5594 211.055C34.6886 210.567 34.8788 209.878 35.1301 208.987C35.6183 207.221 35.9772 205.893 36.207 205.003H36.9177L34.9794 211.755H34.1502L32.2011 205.003ZM39.465 211.755V205.003H43.0616L42.9432 205.531H40.1326V207.954H42.7709V208.46H40.1326V211.227H42.997L43.0831 211.755H39.465ZM45.7813 211.755V205.003H46.4489V211.227H49.0333L49.1302 211.755H45.7813ZM53.768 211.809C53.1506 211.809 52.6697 211.676 52.3251 211.41C51.9876 211.145 51.7507 210.764 51.6143 210.269C51.4851 209.766 51.4205 209.127 51.4205 208.352C51.4205 207.584 51.4887 206.952 51.6251 206.457C51.7687 205.954 52.0128 205.574 52.3574 205.315C52.702 205.05 53.1722 204.917 53.768 204.917C54.3639 204.917 54.8341 205.05 55.1787 205.315C55.5233 205.574 55.7674 205.954 55.9109 206.457C56.0545 206.952 56.1263 207.584 56.1263 208.352C56.1263 209.135 56.0581 209.773 55.9217 210.269C55.7925 210.764 55.5556 211.145 55.211 211.41C54.8664 211.676 54.3854 211.809 53.768 211.809ZM53.768 211.249C54.2059 211.249 54.5469 211.148 54.791 210.947C55.0351 210.746 55.2074 210.441 55.3079 210.032C55.4084 209.615 55.4587 209.059 55.4587 208.363C55.4587 207.666 55.4048 207.11 55.2971 206.694C55.1966 206.277 55.0243 205.972 54.7803 205.778C54.5362 205.577 54.1988 205.477 53.768 205.477C53.3373 205.477 52.9999 205.577 52.7558 205.778C52.5189 205.972 52.3466 206.277 52.2389 206.694C52.1384 207.11 52.0882 207.666 52.0882 208.363C52.0882 209.059 52.1384 209.615 52.2389 210.032C52.3394 210.441 52.5117 210.746 52.7558 210.947C52.9999 211.148 53.3373 211.249 53.768 211.249ZM58.9923 205.003H60.8229C61.5552 205.003 62.1043 205.15 62.4705 205.445C62.8438 205.739 63.0304 206.256 63.0304 206.995C63.0304 207.519 62.9263 207.921 62.7181 208.201C62.51 208.481 62.2049 208.675 61.8028 208.783C61.408 208.883 60.8839 208.933 60.2306 208.933H59.6599V211.755H58.9923V205.003ZM60.1014 208.384C60.7045 208.384 61.1531 208.363 61.4475 208.32C61.7418 208.269 61.9644 208.147 62.1151 207.954C62.2731 207.753 62.352 207.437 62.352 207.006C62.352 206.446 62.2336 206.062 61.9967 205.854C61.7669 205.638 61.39 205.531 60.866 205.531H59.6599V208.384H60.1014ZM65.5489 211.755L66.0766 205.003H66.8196L68.4133 208.697L69.9532 205.003H70.6962L71.267 211.755H70.6532L70.1471 205.972L68.7149 209.45H68.1118L66.6258 205.961L66.1735 211.755H65.5489ZM74.2434 211.755V205.003H77.84L77.7216 205.531H74.911V207.954H77.5493V208.46H74.911V211.227H77.7754L77.8616 211.755H74.2434ZM80.5597 211.755V205.003H81.2704L84.6517 210.603V205.003H85.2655V211.755H84.5979L81.195 206.069V211.755H80.5597ZM89.5123 211.755V205.531H87.7032V205.003H92.0213V205.531H90.1907V211.755H89.5123Z" fill="#F3F3F3"/>
</g>
<rect x="3.16811" y="3.05263" width="190.895" height="256.484" rx="22.0263" stroke="#34C4CD" stroke-width="4.89474"/>
<defs>
<linearGradient id="paint0_linear_98_1056" x1="76.6405" y1="97.1776" x2="113.474" y2="77.1657" gradientUnits="userSpaceOnUse">
<stop offset="0.1376" stop-color="#41873F"/>
<stop offset="0.4032" stop-color="#54A044"/>
<stop offset="0.7136" stop-color="#66B848"/>
<stop offset="0.9081" stop-color="#6CC04A"/>
</linearGradient>
<linearGradient id="paint1_linear_98_1056" x1="65.9812" y1="75.628" x2="90.8036" y2="75.628" gradientUnits="userSpaceOnUse">
<stop offset="0.09192" stop-color="#6CC04A"/>
<stop offset="0.2864" stop-color="#66B848"/>
<stop offset="0.5968" stop-color="#54A044"/>
<stop offset="0.8624" stop-color="#41873F"/>
</linearGradient>
<linearGradient id="paint2_linear_98_1056" x1="63.1599" y1="95.3599" x2="94.2086" y2="95.3599" gradientUnits="userSpaceOnUse">
<stop offset="0.09192" stop-color="#6CC04A"/>
<stop offset="0.2864" stop-color="#66B848"/>
<stop offset="0.5968" stop-color="#54A044"/>
<stop offset="0.8624" stop-color="#41873F"/>
</linearGradient>
<linearGradient id="paint3_linear_98_1056" x1="84.8245" y1="104.189" x2="94.1463" y2="104.189" gradientUnits="userSpaceOnUse">
<stop offset="0.09192" stop-color="#6CC04A"/>
<stop offset="0.2864" stop-color="#66B848"/>
<stop offset="0.5968" stop-color="#54A044"/>
<stop offset="0.8624" stop-color="#41873F"/>
</linearGradient>
<linearGradient id="paint4_linear_98_1056" x1="63.1601" y1="108.23" x2="94.2085" y2="108.23" gradientUnits="userSpaceOnUse">
<stop offset="0.09192" stop-color="#6CC04A"/>
<stop offset="0.2864" stop-color="#66B848"/>
<stop offset="0.5968" stop-color="#54A044"/>
<stop offset="0.8624" stop-color="#41873F"/>
</linearGradient>
<linearGradient id="paint5_linear_98_1056" x1="98.7319" y1="83.4912" x2="90.8661" y2="124.708" gradientUnits="userSpaceOnUse">
<stop stop-color="#41873F"/>
<stop offset="0.3288" stop-color="#418B3D"/>
<stop offset="0.6352" stop-color="#419637"/>
<stop offset="0.9319" stop-color="#3FA92D"/>
<stop offset="1" stop-color="#3FAE2A"/>
</linearGradient>
<clipPath id="clip0_98_1056">
<rect x="5.61548" y="5.5" width="186" height="251.589" rx="19.5789" fill="white"/>
</clipPath>
</defs>
</svg>
