<svg width="197" height="262" viewBox="0 0 197 262" fill="none" xmlns="http://www.w3.org/2000/svg">
<g clip-path="url(#clip0_98_1116)">
<rect x="5.46191" y="5.5" width="186" height="251.589" rx="19.5789" fill="#222222" fill-opacity="0.6"/>
<g clip-path="url(#clip1_98_1116)">
<path d="M34.4619 41.0664V162.934H159.462V41.0664H34.4619ZM39.6689 46.2734H154.251V157.723H39.6689V46.2734ZM64.6729 69.6094C64.6729 69.2617 65.4072 69 65.833 69C70.307 68.8107 74.7847 68.7222 79.2627 68.7344C93.708 68.7344 99.3213 76.6484 99.3213 86.7812C99.3213 100.027 89.7197 105.703 77.958 105.703C75.9658 105.703 75.2939 105.602 73.9111 105.602V125.621C73.9111 126.047 73.7471 126.23 73.3213 126.23H65.2627C64.8369 126.23 64.6729 126.066 64.6729 125.641V69.6094ZM73.9111 97.2812C75.1104 97.3633 76.0674 97.3633 78.1416 97.3633C84.2236 97.3633 89.9619 95.207 89.9619 86.9687C89.9619 80.3555 85.8525 77 78.8955 77C76.8408 77 74.8682 77.082 73.9111 77.1641V97.2812ZM118.751 91.0742C114.622 91.0742 113.239 93.1484 113.239 94.8594C113.239 96.75 114.177 98.0352 119.688 100.883C127.849 104.852 130.431 108.613 130.431 114.207C130.431 122.527 124.063 127.004 115.478 127.004C110.919 127.004 107.036 126.047 104.798 124.766C104.474 124.602 104.392 124.34 104.392 123.91V116.262C104.392 115.754 104.638 115.57 104.981 115.836C108.099 117.863 111.739 118.938 115.458 118.93C119.587 118.93 121.298 117.219 121.298 114.883C121.298 112.992 120.099 111.363 114.868 108.617C107.462 105.078 104.368 101.477 104.368 95.4531C104.368 88.7383 109.618 83.1641 118.712 83.1641C123.188 83.1641 126.341 83.8555 128.071 84.6094C128.497 84.875 128.579 85.3008 128.579 85.6484V92.7891C128.579 93.2148 128.313 93.4805 127.806 93.2969C125.485 91.9336 122.067 91.0586 118.731 91.0586L118.751 91.0742Z" fill="#50A1EE"/>
</g>
<path d="M19.6332 222.791H25.3424C27.2689 222.791 28.7139 223.307 29.6772 224.341C30.6404 225.375 31.1221 226.89 31.1221 228.887V231.319C31.1221 233.316 30.6404 234.832 29.6772 235.865C28.7139 236.899 27.2689 237.416 25.3424 237.416H23.5098V247.46H19.6332V222.791ZM25.3424 233.892C25.9767 233.892 26.4466 233.716 26.7521 233.363C27.081 233.011 27.2455 232.412 27.2455 231.566V228.641C27.2455 227.795 27.081 227.196 26.7521 226.843C26.4466 226.491 25.9767 226.315 25.3424 226.315H23.5098V233.892H25.3424ZM33.2275 222.791H37.1042V232.835H41.2627V222.791H45.1394V247.46H41.2627V236.359H37.1042V247.46H33.2275V222.791ZM53.63 247.813C51.7269 247.813 50.2702 247.272 49.2599 246.191C48.2497 245.111 47.7445 243.583 47.7445 241.61V228.641C47.7445 226.667 48.2497 225.14 49.2599 224.059C50.2702 222.979 51.7269 222.438 53.63 222.438C55.533 222.438 56.9897 222.979 58 224.059C59.0102 225.14 59.5154 226.667 59.5154 228.641V241.61C59.5154 243.583 59.0102 245.111 58 246.191C56.9897 247.272 55.533 247.813 53.63 247.813ZM53.63 244.288C54.9692 244.288 55.6388 243.478 55.6388 241.857V228.394C55.6388 226.773 54.9692 225.962 53.63 225.962C52.2908 225.962 51.6212 226.773 51.6212 228.394V241.857C51.6212 243.478 52.2908 244.288 53.63 244.288ZM65.0302 226.315H60.9774V222.791H72.9597V226.315H68.9069V247.46H65.0302V226.315ZM80.3024 247.813C78.3994 247.813 76.9427 247.272 75.9324 246.191C74.9222 245.111 74.417 243.583 74.417 241.61V228.641C74.417 226.667 74.9222 225.14 75.9324 224.059C76.9427 222.979 78.3994 222.438 80.3024 222.438C82.2055 222.438 83.6622 222.979 84.6725 224.059C85.6827 225.14 86.1879 226.667 86.1879 228.641V241.61C86.1879 243.583 85.6827 245.111 84.6725 246.191C83.6622 247.272 82.2055 247.813 80.3024 247.813ZM80.3024 244.288C81.6416 244.288 82.3112 243.478 82.3112 241.857V228.394C82.3112 226.773 81.6416 225.962 80.3024 225.962C78.9632 225.962 78.2936 226.773 78.2936 228.394V241.857C78.2936 243.478 78.9632 244.288 80.3024 244.288ZM93.8492 247.813C91.9696 247.813 90.5482 247.284 89.5849 246.227C88.6216 245.146 88.14 243.607 88.14 241.61V240.2H91.8051V241.892C91.8051 243.489 92.4747 244.288 93.8139 244.288C94.4718 244.288 94.9652 244.1 95.2941 243.724C95.6465 243.325 95.8227 242.691 95.8227 241.821C95.8227 240.788 95.5878 239.883 95.1179 239.108C94.648 238.309 93.7787 237.357 92.51 236.253C90.9123 234.843 89.7963 233.575 89.162 232.447C88.5276 231.296 88.2104 230.003 88.2104 228.57C88.2104 226.62 88.7038 225.117 89.6906 224.059C90.6774 222.979 92.1106 222.438 93.9902 222.438C95.8462 222.438 97.2442 222.979 98.184 224.059C99.1473 225.117 99.6289 226.644 99.6289 228.641V229.663H95.9637V228.394C95.9637 227.548 95.7993 226.937 95.4703 226.562C95.1414 226.162 94.6598 225.962 94.0254 225.962C92.7332 225.962 92.0871 226.749 92.0871 228.324C92.0871 229.216 92.322 230.05 92.7919 230.826C93.2853 231.601 94.1664 232.541 95.4351 233.645C97.0562 235.055 98.1722 236.335 98.7831 237.487C99.3939 238.638 99.6994 239.989 99.6994 241.539C99.6994 243.56 99.1942 245.111 98.184 246.191C97.1972 247.272 95.7523 247.813 93.8492 247.813ZM101.922 222.791H105.799V232.835H109.957V222.791H113.834V247.46H109.957V236.359H105.799V247.46H101.922V222.791ZM122.325 247.813C120.421 247.813 118.965 247.272 117.955 246.191C116.944 245.111 116.439 243.583 116.439 241.61V228.641C116.439 226.667 116.944 225.14 117.955 224.059C118.965 222.979 120.421 222.438 122.325 222.438C124.228 222.438 125.684 222.979 126.695 224.059C127.705 225.14 128.21 226.667 128.21 228.641V241.61C128.21 243.583 127.705 245.111 126.695 246.191C125.684 247.272 124.228 247.813 122.325 247.813ZM122.325 244.288C123.664 244.288 124.333 243.478 124.333 241.857V228.394C124.333 226.773 123.664 225.962 122.325 225.962C120.985 225.962 120.316 226.773 120.316 228.394V241.857C120.316 243.478 120.985 244.288 122.325 244.288ZM130.832 222.791H136.541C138.467 222.791 139.912 223.307 140.876 224.341C141.839 225.375 142.321 226.89 142.321 228.887V231.319C142.321 233.316 141.839 234.832 140.876 235.865C139.912 236.899 138.467 237.416 136.541 237.416H134.708V247.46H130.832V222.791ZM136.541 233.892C137.175 233.892 137.645 233.716 137.951 233.363C138.279 233.011 138.444 232.412 138.444 231.566V228.641C138.444 227.795 138.279 227.196 137.951 226.843C137.645 226.491 137.175 226.315 136.541 226.315H134.708V233.892H136.541Z" fill="#F3F3F3"/>
<path d="M18.9743 205.003H20.4065C21.1962 205.003 21.8028 205.118 22.2264 205.348C22.6499 205.57 22.9407 205.922 23.0986 206.403C23.2637 206.884 23.3463 207.552 23.3463 208.406C23.3463 209.196 23.2745 209.827 23.1309 210.301C22.9874 210.768 22.7074 211.127 22.291 211.378C21.8746 211.629 21.2644 211.755 20.4604 211.755H18.9743V205.003ZM20.4604 211.227C21.1208 211.227 21.609 211.13 21.9249 210.936C22.2407 210.743 22.4453 210.455 22.5387 210.075C22.632 209.687 22.6787 209.131 22.6787 208.406C22.6787 207.659 22.6212 207.089 22.5064 206.694C22.3987 206.292 22.1833 205.997 21.8603 205.811C21.5372 205.624 21.0526 205.531 20.4065 205.531H19.642V211.227H20.4604ZM26.2266 211.755V205.003H29.8232L29.7048 205.531H26.8942V207.954H29.5325V208.46H26.8942V211.227H29.7586L29.8448 211.755H26.2266ZM34.2335 211.809C33.4438 211.809 32.8013 211.672 32.306 211.399L32.4567 210.85C32.7439 210.972 33.0167 211.069 33.2751 211.141C33.5408 211.213 33.8602 211.249 34.2335 211.249C34.6858 211.249 35.0376 211.137 35.2888 210.915C35.5473 210.692 35.6765 210.351 35.6765 209.892C35.6765 209.626 35.6298 209.418 35.5365 209.267C35.4432 209.109 35.3104 208.984 35.1381 208.89C34.9658 208.797 34.7145 208.697 34.3843 208.589L33.7382 208.374C33.2644 208.208 32.9054 207.997 32.6613 207.738C32.4244 207.473 32.306 207.114 32.306 206.661C32.306 206.058 32.4962 205.617 32.8767 205.337C33.2572 205.057 33.7561 204.917 34.3735 204.917C35.0627 204.917 35.6657 205.025 36.1826 205.24L36.0642 205.778C35.8129 205.685 35.558 205.613 35.2996 205.563C35.0483 205.506 34.7684 205.477 34.4597 205.477C33.4761 205.477 32.9844 205.864 32.9844 206.64C32.9844 206.934 33.049 207.16 33.1782 207.318C33.3074 207.469 33.5659 207.613 33.9535 207.749L34.5458 207.964C34.9909 208.122 35.3175 208.255 35.5257 208.363C35.7411 208.47 35.9313 208.646 36.0965 208.89C36.2616 209.135 36.3441 209.472 36.3441 209.903C36.3441 210.513 36.1539 210.983 35.7734 211.313C35.3929 211.644 34.8796 211.809 34.2335 211.809ZM38.7808 211.755V211.227H39.793V205.531H38.7808V205.003H41.4406V205.531H40.4714V211.227H41.4621V211.755H38.7808ZM46.5751 211.809C45.9649 211.809 45.4767 211.687 45.1106 211.443C44.7444 211.191 44.4824 210.814 44.3245 210.312C44.1665 209.809 44.0876 209.152 44.0876 208.341C44.0876 207.128 44.2993 206.256 44.7229 205.725C45.1536 205.186 45.7962 204.917 46.6504 204.917C47.275 204.917 47.8565 205.046 48.3949 205.305V206.586H47.8134V205.671C47.6842 205.613 47.5155 205.567 47.3073 205.531C47.1063 205.495 46.9089 205.477 46.7151 205.477C46.2843 205.477 45.9254 205.552 45.6382 205.703C45.3582 205.854 45.1393 206.137 44.9813 206.554C44.8234 206.963 44.7444 207.541 44.7444 208.287C44.7444 209.005 44.8019 209.58 44.9167 210.01C45.0316 210.434 45.2218 210.746 45.4875 210.947C45.7603 211.148 46.1336 211.249 46.6074 211.249C46.8515 211.249 47.092 211.227 47.3289 211.184C47.5729 211.141 47.7847 211.076 47.9642 210.99V208.772H46.7258V208.255H48.578V211.27C48.3052 211.421 48.0144 211.55 47.7058 211.658C47.3971 211.758 47.0202 211.809 46.5751 211.809ZM51.5129 211.755V205.003H52.2236L55.6049 210.603V205.003H56.2187V211.755H55.551L52.1482 206.069V211.755H51.5129Z" fill="#F3F3F3"/>
</g>
<rect x="3.01455" y="3.05263" width="190.895" height="256.484" rx="22.0263" stroke="#FCC439" stroke-width="4.89474"/>
<defs>
<clipPath id="clip0_98_1116">
<rect x="5.46191" y="5.5" width="186" height="251.589" rx="19.5789" fill="white"/>
</clipPath>
<clipPath id="clip1_98_1116">
<rect width="125" height="125" fill="white" transform="translate(34.4619 39.5)"/>
</clipPath>
</defs>
</svg>
