<svg width="197" height="262" viewBox="0 0 197 262" fill="none" xmlns="http://www.w3.org/2000/svg">
<g clip-path="url(#clip0_98_1125)">
<rect x="5.2312" y="5.5" width="186" height="251.589" rx="19.5789" fill="#222222" fill-opacity="0.6"/>
<path d="M34.2312 39.5V164.5H159.231V39.5H34.2312ZM39.4382 44.8409H154.02V159.155H39.4382V44.8409ZM67.0281 68.7567C67.0281 68.4001 67.1101 68.1316 67.5554 68.1316C72.0153 67.9453 76.4786 67.8611 80.9421 67.8792C95.3875 67.8792 101.653 75.9967 101.653 86.39C101.653 99.9526 92.0906 105.778 80.3093 105.778C78.3367 105.778 77.6453 105.694 76.2625 105.694V126.228C76.2625 126.665 76.0984 126.833 75.6726 126.833H67.6375C67.1882 126.833 67.0281 126.665 67.0281 126.228V68.7567ZM76.2625 97.1359C77.4851 97.22 78.4187 97.22 80.4929 97.22C86.575 97.22 92.2937 95.0284 92.2937 86.5583C92.2937 79.775 88.2234 76.3333 81.2468 76.3333C79.1921 76.3333 77.2195 76.4375 76.2625 76.5216V97.1359ZM109.61 92.2958C109.61 91.6708 109.61 90.0842 109.344 87.0992C109.344 86.6625 109.407 86.5583 109.751 86.39C115.829 83.9912 122.281 82.7397 128.794 82.6959C129.219 82.6959 129.403 82.78 129.403 83.2167V90.9817C129.403 91.4184 129.262 91.5025 128.833 91.5025C125.515 91.2901 122.186 91.6504 118.985 92.5683V126.228C118.985 126.665 118.802 126.833 118.376 126.833H110.196C109.77 126.833 109.606 126.665 109.606 126.228L109.61 92.2958Z" fill="#989CF8"/>
<path d="M19.4024 222.791H25.1117C27.0382 222.791 28.4832 223.307 29.4464 224.341C30.4097 225.375 30.8914 226.89 30.8914 228.887V231.319C30.8914 233.316 30.4097 234.832 29.4464 235.865C28.4832 236.899 27.0382 237.416 25.1117 237.416H23.2791V247.46H19.4024V222.791ZM25.1117 233.892C25.746 233.892 26.2159 233.716 26.5214 233.363C26.8503 233.011 27.0147 232.412 27.0147 231.566V228.641C27.0147 227.795 26.8503 227.196 26.5214 226.843C26.2159 226.491 25.746 226.315 25.1117 226.315H23.2791V233.892H25.1117ZM32.9968 222.791H38.7413C40.7383 222.791 42.195 223.261 43.1113 224.2C44.0276 225.117 44.4857 226.538 44.4857 228.465V229.98C44.4857 232.541 43.6399 234.162 41.9483 234.843V234.914C42.8881 235.196 43.546 235.771 43.9219 236.641C44.3213 237.51 44.521 238.673 44.521 240.13V244.465C44.521 245.169 44.5445 245.745 44.5915 246.191C44.6385 246.614 44.7559 247.037 44.9439 247.46H40.9968C40.8558 247.061 40.7618 246.685 40.7148 246.332C40.6678 245.98 40.6444 245.346 40.6444 244.429V239.918C40.6444 238.791 40.4564 238.003 40.0805 237.557C39.7281 237.111 39.1054 236.887 38.2126 236.887H36.8734V247.46H32.9968V222.791ZM38.2831 233.363C39.0585 233.363 39.6341 233.164 40.01 232.764C40.4094 232.365 40.6091 231.695 40.6091 230.755V228.852C40.6091 227.959 40.4446 227.313 40.1157 226.914C39.8103 226.515 39.3169 226.315 38.6356 226.315H36.8734V233.363H38.2831ZM47.2107 222.791H57.7833V226.315H51.0873V232.835H56.4089V236.359H51.0873V243.936H57.7833V247.46H47.2107V222.791ZM60.0135 222.791H65.5465L68.0134 240.447H68.0839L70.5509 222.791H76.0839V247.46H72.4187V228.782H72.3482L69.5288 247.46H66.2866L63.4672 228.782H63.3967V247.46H60.0135V222.791ZM78.9767 222.791H82.8534V247.46H78.9767V222.791ZM85.7567 222.791H96.3294V226.315H89.6334V232.835H94.9549V236.359H89.6334V243.936H96.3294V247.46H85.7567V222.791ZM98.5595 222.791H104.304C106.301 222.791 107.758 223.261 108.674 224.2C109.59 225.117 110.048 226.538 110.048 228.465V229.98C110.048 232.541 109.203 234.162 107.511 234.843V234.914C108.451 235.196 109.109 235.771 109.485 236.641C109.884 237.51 110.084 238.673 110.084 240.13V244.465C110.084 245.169 110.107 245.745 110.154 246.191C110.201 246.614 110.319 247.037 110.507 247.46H106.559C106.419 247.061 106.325 246.685 106.278 246.332C106.231 245.98 106.207 245.346 106.207 244.429V239.918C106.207 238.791 106.019 238.003 105.643 237.557C105.291 237.111 104.668 236.887 103.775 236.887H102.436V247.46H98.5595V222.791ZM103.846 233.363C104.621 233.363 105.197 233.164 105.573 232.764C105.972 232.365 106.172 231.695 106.172 230.755V228.852C106.172 227.959 106.007 227.313 105.678 226.914C105.373 226.515 104.88 226.315 104.198 226.315H102.436V233.363H103.846ZM112.773 222.791H123.346V226.315H116.65V232.835H121.972V236.359H116.65V243.936H123.346V247.46H112.773V222.791Z" fill="#F3F3F3"/>
<path d="M18.7436 205.003H20.1758C20.9655 205.003 21.5721 205.118 21.9957 205.348C22.4192 205.57 22.71 205.922 22.8679 206.403C23.033 206.884 23.1156 207.552 23.1156 208.406C23.1156 209.196 23.0438 209.827 22.9002 210.301C22.7566 210.768 22.4767 211.127 22.0603 211.378C21.6439 211.629 21.0337 211.755 20.2297 211.755H18.7436V205.003ZM20.2297 211.227C20.8901 211.227 21.3783 211.13 21.6942 210.936C22.01 210.743 22.2146 210.455 22.308 210.075C22.4013 209.687 22.448 209.131 22.448 208.406C22.448 207.659 22.3905 207.089 22.2757 206.694C22.168 206.292 21.9526 205.997 21.6296 205.811C21.3065 205.624 20.8219 205.531 20.1758 205.531H19.4113V211.227H20.2297ZM25.9959 211.755V205.003H29.5925L29.4741 205.531H26.6635V207.954H29.3018V208.46H26.6635V211.227H29.5279L29.614 211.755H25.9959ZM34.0028 211.809C33.2131 211.809 32.5706 211.672 32.0753 211.399L32.226 210.85C32.5132 210.972 32.786 211.069 33.0444 211.141C33.31 211.213 33.6295 211.249 34.0028 211.249C34.4551 211.249 34.8069 211.137 35.0581 210.915C35.3166 210.692 35.4458 210.351 35.4458 209.892C35.4458 209.626 35.3991 209.418 35.3058 209.267C35.2125 209.109 35.0797 208.984 34.9074 208.89C34.7351 208.797 34.4838 208.697 34.1536 208.589L33.5075 208.374C33.0337 208.208 32.6747 207.997 32.4306 207.738C32.1937 207.473 32.0753 207.114 32.0753 206.661C32.0753 206.058 32.2655 205.617 32.646 205.337C33.0265 205.057 33.5254 204.917 34.1428 204.917C34.832 204.917 35.435 205.025 35.9519 205.24L35.8334 205.778C35.5822 205.685 35.3273 205.613 35.0689 205.563C34.8176 205.506 34.5376 205.477 34.2289 205.477C33.2454 205.477 32.7537 205.864 32.7537 206.64C32.7537 206.934 32.8183 207.16 32.9475 207.318C33.0767 207.469 33.3352 207.613 33.7228 207.749L34.3151 207.964C34.7602 208.122 35.0868 208.255 35.295 208.363C35.5104 208.47 35.7006 208.646 35.8657 208.89C36.0309 209.135 36.1134 209.472 36.1134 209.903C36.1134 210.513 35.9232 210.983 35.5427 211.313C35.1622 211.644 34.6489 211.809 34.0028 211.809ZM38.5501 211.755V211.227H39.5623V205.531H38.5501V205.003H41.2099V205.531H40.2407V211.227H41.2314V211.755H38.5501ZM46.3444 211.809C45.7341 211.809 45.246 211.687 44.8799 211.443C44.5137 211.191 44.2517 210.814 44.0938 210.312C43.9358 209.809 43.8569 209.152 43.8569 208.341C43.8569 207.128 44.0686 206.256 44.4922 205.725C44.9229 205.186 45.5654 204.917 46.4197 204.917C47.0443 204.917 47.6258 205.046 48.1642 205.305V206.586H47.5827V205.671C47.4535 205.613 47.2848 205.567 47.0766 205.531C46.8756 205.495 46.6782 205.477 46.4843 205.477C46.0536 205.477 45.6947 205.552 45.4075 205.703C45.1275 205.854 44.9086 206.137 44.7506 206.554C44.5927 206.963 44.5137 207.541 44.5137 208.287C44.5137 209.005 44.5712 209.58 44.686 210.01C44.8009 210.434 44.9911 210.746 45.2567 210.947C45.5295 211.148 45.9029 211.249 46.3767 211.249C46.6207 211.249 46.8612 211.227 47.0981 211.184C47.3422 211.141 47.554 211.076 47.7335 210.99V208.772H46.4951V208.255H48.3473V211.27C48.0745 211.421 47.7837 211.55 47.475 211.658C47.1663 211.758 46.7895 211.809 46.3444 211.809ZM51.2821 211.755V205.003H51.9929L55.3741 210.603V205.003H55.9879V211.755H55.3203L51.9175 206.069V211.755H51.2821Z" fill="#F3F3F3"/>
</g>
<rect x="2.78383" y="3.05263" width="190.895" height="256.484" rx="22.0263" stroke="#FCC439" stroke-width="4.89474"/>
<defs>
<clipPath id="clip0_98_1125">
<rect x="5.2312" y="5.5" width="186" height="251.589" rx="19.5789" fill="white"/>
</clipPath>
</defs>
</svg>
