<svg width="196" height="262" viewBox="0 0 196 262" fill="none" xmlns="http://www.w3.org/2000/svg">
<g clip-path="url(#clip0_98_1038)">
<rect x="5" y="5.5" width="186" height="251.589" rx="19.5789" fill="#222222" fill-opacity="0.6"/>
<path d="M148.761 76.9136C147.065 76.3316 145.354 75.7925 143.631 75.2968C143.92 74.1139 144.187 72.9453 144.423 71.7973C148.307 52.945 145.768 37.7573 137.097 32.7568C128.783 27.9629 115.186 32.9616 101.454 44.9132C100.1 46.0932 98.7771 47.3072 97.485 48.554C96.6201 47.7249 95.7399 46.9119 94.8448 46.1154C80.4529 33.3364 66.0274 27.9505 57.3654 32.9653C49.0588 37.7741 46.5991 52.0516 50.0953 69.9183C50.4432 71.6878 50.8359 73.4482 51.2732 75.1978C49.2313 75.778 47.2609 76.3956 45.3752 77.053C28.5019 82.9364 17.7263 92.1561 17.7263 101.72C17.7263 111.597 29.2944 121.504 46.8687 127.511C48.2935 127.996 49.7301 128.445 51.1773 128.859C50.7073 130.743 50.29 132.64 49.926 134.548C46.5929 152.105 49.1958 166.045 57.4799 170.823C66.0361 175.758 80.3969 170.686 94.3798 158.462C95.5137 157.468 96.6225 156.446 97.7054 155.397C99.1046 156.747 100.541 158.058 102.013 159.328C115.559 170.984 128.936 175.69 137.212 170.899C145.76 165.95 148.538 150.975 144.931 132.755C144.647 131.328 144.329 129.907 143.976 128.495C144.984 128.196 145.974 127.889 146.939 127.569C165.209 121.516 177.097 111.729 177.097 101.72C177.097 92.1213 165.973 82.8393 148.761 76.9136V76.9136ZM144.798 121.107C143.927 121.395 143.033 121.673 142.121 121.944C140.104 115.558 137.382 108.768 134.051 101.753C137.23 94.9042 139.847 88.2009 141.807 81.8568C143.438 82.3288 145.02 82.8262 146.545 83.351C161.293 88.4288 170.289 95.9352 170.289 101.72C170.289 107.881 160.573 115.879 144.798 121.107V121.107ZM138.253 134.077C139.848 142.133 140.075 149.418 139.018 155.112C138.07 160.229 136.161 163.64 133.8 165.007C128.778 167.914 118.038 164.135 106.454 154.167C105.085 152.986 103.748 151.767 102.447 150.512C106.938 145.601 111.426 139.891 115.806 133.549C123.51 132.866 130.789 131.748 137.39 130.222C137.708 131.5 137.996 132.785 138.253 134.077V134.077ZM72.0592 164.504C67.1523 166.237 63.244 166.287 60.8815 164.925C55.8545 162.025 53.7646 150.832 56.6152 135.818C56.9541 134.044 57.3421 132.279 57.7787 130.527C64.3067 131.971 71.5325 133.01 79.2552 133.636C83.6652 139.841 88.2826 145.545 92.9361 150.539C91.9472 151.496 90.9348 152.428 89.9 153.335C83.7163 158.741 77.5201 162.576 72.0592 164.504V164.504ZM49.0713 121.069C41.3001 118.412 34.8823 114.96 30.4834 111.193C26.5303 107.808 24.5351 104.446 24.5351 101.72C24.5351 95.9159 33.1865 88.5134 47.6164 83.4824C49.3676 82.8723 51.2004 82.2964 53.1022 81.756C55.0968 88.2432 57.7128 95.0262 60.8697 101.885C57.6717 108.846 55.0184 115.737 53.0045 122.301C51.6835 121.922 50.372 121.511 49.0713 121.069V121.069ZM56.7771 68.6103C53.782 53.303 55.771 41.7561 60.7769 38.858C66.1083 35.7713 77.898 40.1723 90.3246 51.2068C91.1349 51.928 91.9321 52.6638 92.7157 53.4138C88.0853 58.3863 83.5102 64.0474 79.1394 70.2159C71.644 70.9107 64.4692 72.0264 57.8727 73.5212C57.4663 71.8939 57.101 70.2566 56.7771 68.6109V68.6103ZM125.522 85.5867C123.964 82.8952 122.348 80.2377 120.676 77.6159C125.761 78.259 130.633 79.1125 135.208 80.156C133.835 84.5588 132.123 89.1615 130.107 93.8807C128.634 91.0858 127.106 88.3205 125.522 85.5867V85.5867ZM97.4881 58.2799C100.628 61.6823 103.773 65.4806 106.867 69.6021C100.592 69.3057 94.3058 69.3044 88.0305 69.5983C91.127 65.5148 94.2989 61.7215 97.4881 58.2799ZM69.274 85.6334C67.7104 88.3452 66.2102 91.0932 64.7749 93.8751C62.7927 89.1727 61.0963 84.5489 59.7111 80.0837C64.2582 79.0665 69.1071 78.2347 74.1597 77.6034C72.4685 80.2412 70.8395 82.9184 69.274 85.6328V85.6334ZM74.3047 126.32C69.0847 125.737 64.1629 124.948 59.6171 123.959C61.0241 119.414 62.7578 114.692 64.783 109.888C66.224 112.672 67.7304 115.422 69.3007 118.135C70.9156 120.924 72.5878 123.656 74.3047 126.32ZM97.6762 145.639C94.4489 142.157 91.2304 138.305 88.0872 134.163C91.1389 134.282 94.2497 134.343 97.4116 134.343C100.66 134.343 103.871 134.27 107.032 134.13C103.928 138.347 100.795 142.204 97.6762 145.639ZM130.172 109.643C132.302 114.499 134.097 119.196 135.523 123.663C130.902 124.718 125.913 125.567 120.657 126.198C122.341 123.527 123.972 120.824 125.549 118.088C127.152 115.308 128.694 112.492 130.172 109.643V109.643ZM119.652 114.687C117.238 118.88 114.688 122.995 112.006 127.023C107.149 127.367 102.281 127.538 97.4116 127.535C92.4518 127.535 87.6277 127.381 82.9823 127.08C80.2308 123.061 77.6324 118.939 75.1925 114.724H75.1931C72.7647 110.531 70.4964 106.247 68.3931 101.882C70.491 97.5158 72.7524 93.2301 75.1725 89.0339L75.1719 89.0345C77.5911 84.8373 80.1688 80.7334 82.8995 76.7318C87.6389 76.3732 92.4991 76.1864 97.411 76.1864H97.4116C102.346 76.1864 107.212 76.3751 111.95 76.7362C114.654 80.7318 117.215 84.8215 119.629 88.9978C122.058 93.1847 124.349 97.4496 126.5 101.786C124.371 106.166 122.087 110.469 119.652 114.687V114.687ZM133.696 38.655C139.033 41.7331 141.108 54.1454 137.755 70.4226C137.541 71.4611 137.301 72.5188 137.039 73.5915C130.427 72.065 123.247 70.93 115.73 70.2246C111.351 63.9883 106.813 58.3185 102.258 53.4101C103.452 52.2593 104.674 51.1383 105.924 50.0482C117.69 39.8087 128.686 35.7657 133.696 38.655V38.655ZM97.4116 87.4874C105.271 87.4874 111.643 93.8595 111.643 101.72C111.643 109.58 105.271 115.952 97.4116 115.952C89.552 115.952 83.1803 109.58 83.1803 101.72C83.1803 93.8595 89.552 87.4874 97.4116 87.4874V87.4874Z" fill="#00D8FF"/>
<path d="M19.1712 222.791H24.9157C26.9128 222.791 28.3694 223.261 29.2857 224.2C30.202 225.117 30.6602 226.538 30.6602 228.465V229.98C30.6602 232.541 29.8144 234.162 28.1227 234.843V234.914C29.0625 235.196 29.7204 235.771 30.0963 236.641C30.4957 237.51 30.6954 238.673 30.6954 240.13V244.465C30.6954 245.169 30.7189 245.745 30.7659 246.191C30.8129 246.614 30.9304 247.037 31.1183 247.46H27.1712C27.0302 247.061 26.9363 246.685 26.8893 246.332C26.8423 245.98 26.8188 245.346 26.8188 244.429V239.918C26.8188 238.791 26.6308 238.003 26.2549 237.557C25.9025 237.111 25.2799 236.887 24.3871 236.887H23.0479V247.46H19.1712V222.791ZM24.4576 233.363C25.2329 233.363 25.8085 233.164 26.1844 232.764C26.5838 232.365 26.7835 231.695 26.7835 230.755V228.852C26.7835 227.959 26.6191 227.313 26.2902 226.914C25.9847 226.515 25.4913 226.315 24.81 226.315H23.0479V233.363H24.4576ZM33.3851 222.791H43.9577V226.315H37.2617V232.835H42.5833V236.359H37.2617V243.936H43.9577V247.46H33.3851V222.791ZM49.1835 222.791H54.4346L58.4522 247.46H54.5755L53.8707 242.561V242.632H49.4654L48.7606 247.46H45.1659L49.1835 222.791ZM53.4125 239.284L51.6857 227.09H51.6152L49.9236 239.284H53.4125ZM65.7266 247.813C63.8705 247.813 62.4491 247.284 61.4623 246.227C60.499 245.169 60.0174 243.677 60.0174 241.751V228.5C60.0174 226.573 60.499 225.081 61.4623 224.024C62.4491 222.967 63.8705 222.438 65.7266 222.438C67.5827 222.438 68.9924 222.967 69.9557 224.024C70.9424 225.081 71.4358 226.573 71.4358 228.5V231.108H67.7707V228.253C67.7707 226.726 67.1246 225.962 65.8323 225.962C64.5401 225.962 63.894 226.726 63.894 228.253V242.033C63.894 243.536 64.5401 244.288 65.8323 244.288C67.1246 244.288 67.7707 243.536 67.7707 242.033V238.262H71.4358V241.751C71.4358 243.677 70.9424 245.169 69.9557 246.227C68.9924 247.284 67.5827 247.813 65.7266 247.813ZM76.786 226.315H72.7332V222.791H84.7155V226.315H80.6627V247.46H76.786V226.315ZM87.5087 247.601C86.8039 247.601 86.2048 247.554 85.7114 247.46V243.936C86.0873 244.03 86.5102 244.077 86.9801 244.077C87.7554 244.077 88.331 243.889 88.707 243.513C89.0829 243.114 89.2708 242.514 89.2708 241.716V222.791H93.1475V241.61C93.1475 243.63 92.6776 245.134 91.7378 246.121C90.8215 247.108 89.4118 247.601 87.5087 247.601ZM100.959 247.813C99.0792 247.813 97.6578 247.284 96.6945 246.227C95.7312 245.146 95.2496 243.607 95.2496 241.61V240.2H98.9148V241.892C98.9148 243.489 99.5844 244.288 100.924 244.288C101.581 244.288 102.075 244.1 102.404 243.724C102.756 243.325 102.932 242.691 102.932 241.821C102.932 240.788 102.697 239.883 102.228 239.108C101.758 238.309 100.888 237.357 99.6196 236.253C98.022 234.843 96.906 233.575 96.2716 232.447C95.6373 231.296 95.3201 230.003 95.3201 228.57C95.3201 226.62 95.8135 225.117 96.8002 224.059C97.787 222.979 99.2202 222.438 101.1 222.438C102.956 222.438 104.354 222.979 105.294 224.059C106.257 225.117 106.739 226.644 106.739 228.641V229.663H103.073V228.394C103.073 227.548 102.909 226.937 102.58 226.562C102.251 226.162 101.769 225.962 101.135 225.962C99.8428 225.962 99.1967 226.749 99.1967 228.324C99.1967 229.216 99.4317 230.05 99.9016 230.826C100.395 231.601 101.276 232.541 102.545 233.645C104.166 235.055 105.282 236.335 105.893 237.487C106.504 238.638 106.809 239.989 106.809 241.539C106.809 243.56 106.304 245.111 105.294 246.191C104.307 247.272 102.862 247.813 100.959 247.813Z" fill="#F3F3F3"/>
<path d="M18.5124 205.003H19.9446C20.7343 205.003 21.3409 205.118 21.7645 205.348C22.188 205.57 22.4788 205.922 22.6367 206.403C22.8018 206.884 22.8844 207.552 22.8844 208.406C22.8844 209.196 22.8126 209.827 22.669 210.301C22.5254 210.768 22.2455 211.127 21.8291 211.378C21.4127 211.629 20.8025 211.755 19.9985 211.755H18.5124V205.003ZM19.9985 211.227C20.6589 211.227 21.1471 211.13 21.463 210.936C21.7788 210.743 21.9834 210.455 22.0768 210.075C22.1701 209.687 22.2168 209.131 22.2168 208.406C22.2168 207.659 22.1593 207.089 22.0445 206.694C21.9368 206.292 21.7214 205.997 21.3984 205.811C21.0753 205.624 20.5907 205.531 19.9446 205.531H19.1801V211.227H19.9985ZM25.7647 211.755V205.003H29.3613L29.2429 205.531H26.4323V207.954H29.0706V208.46H26.4323V211.227H29.2967L29.3828 211.755H25.7647ZM31.5856 205.003H32.2856C32.5368 205.972 32.8671 207.182 33.2763 208.632C33.6065 209.809 33.829 210.617 33.9439 211.055C34.0731 210.567 34.2634 209.878 34.5146 208.987C35.0028 207.221 35.3617 205.893 35.5915 205.003H36.3022L34.3639 211.755H33.5347L31.5856 205.003ZM38.8495 211.755V205.003H42.4461L42.3277 205.531H39.5171V207.954H42.1554V208.46H39.5171V211.227H42.3815L42.4677 211.755H38.8495ZM45.1658 211.755V205.003H45.8334V211.227H48.4178L48.5148 211.755H45.1658ZM53.1526 211.809C52.5352 211.809 52.0542 211.676 51.7096 211.41C51.3722 211.145 51.1353 210.764 50.9989 210.269C50.8696 209.766 50.805 209.127 50.805 208.352C50.805 207.584 50.8732 206.952 51.0096 206.457C51.1532 205.954 51.3973 205.574 51.7419 205.315C52.0865 205.05 52.5567 204.917 53.1526 204.917C53.7484 204.917 54.2186 205.05 54.5632 205.315C54.9078 205.574 55.1519 205.954 55.2955 206.457C55.439 206.952 55.5108 207.584 55.5108 208.352C55.5108 209.135 55.4426 209.773 55.3062 210.269C55.177 210.764 54.9401 211.145 54.5955 211.41C54.2509 211.676 53.7699 211.809 53.1526 211.809ZM53.1526 211.249C53.5905 211.249 53.9315 211.148 54.1756 210.947C54.4196 210.746 54.5919 210.441 54.6924 210.032C54.7929 209.615 54.8432 209.059 54.8432 208.363C54.8432 207.666 54.7894 207.11 54.6817 206.694C54.5812 206.277 54.4089 205.972 54.1648 205.778C53.9207 205.577 53.5833 205.477 53.1526 205.477C52.7218 205.477 52.3844 205.577 52.1403 205.778C51.9034 205.972 51.7311 206.277 51.6234 206.694C51.5229 207.11 51.4727 207.666 51.4727 208.363C51.4727 209.059 51.5229 209.615 51.6234 210.032C51.7239 210.441 51.8962 210.746 52.1403 210.947C52.3844 211.148 52.7218 211.249 53.1526 211.249ZM58.3768 205.003H60.2074C60.9397 205.003 61.4889 205.15 61.855 205.445C62.2283 205.739 62.415 206.256 62.415 206.995C62.415 207.519 62.3109 207.921 62.1027 208.201C61.8945 208.481 61.5894 208.675 61.1874 208.783C60.7925 208.883 60.2684 208.933 59.6152 208.933H59.0444V211.755H58.3768V205.003ZM59.4859 208.384C60.089 208.384 60.5377 208.363 60.832 208.32C61.1263 208.269 61.3489 208.147 61.4996 207.954C61.6576 207.753 61.7365 207.437 61.7365 207.006C61.7365 206.446 61.6181 206.062 61.3812 205.854C61.1515 205.638 60.7746 205.531 60.2505 205.531H59.0444V208.384H59.4859ZM64.9335 211.755L65.4611 205.003H66.2041L67.7979 208.697L69.3377 205.003H70.0808L70.6515 211.755H70.0377L69.5316 205.972L68.0994 209.45H67.4963L66.0103 205.961L65.558 211.755H64.9335ZM73.6279 211.755V205.003H77.2246L77.1061 205.531H74.2956V207.954H76.9338V208.46H74.2956V211.227H77.16L77.2461 211.755H73.6279ZM79.9442 211.755V205.003H80.6549L84.0362 210.603V205.003H84.65V211.755H83.9824L80.5796 206.069V211.755H79.9442ZM88.8968 211.755V205.531H87.0877V205.003H91.4058V205.531H89.5752V211.755H88.8968Z" fill="#F3F3F3"/>
</g>
<rect x="2.55263" y="3.05263" width="190.895" height="256.484" rx="22.0263" stroke="#34C4CD" stroke-width="4.89474"/>
<defs>
<clipPath id="clip0_98_1038">
<rect x="5" y="5.5" width="186" height="251.589" rx="19.5789" fill="white"/>
</clipPath>
</defs>
</svg>
